%MOIN*%
%OFA0B0*%
%FSLAX44Y44*%
%IPPOS*%
%LPD*%
%ADD10C,0*%
D10*
X00032514Y00019338D02*
X00032514Y00019338D01*
X00035131Y00019338D01*
X00035201Y00019344D01*
X00035270Y00019360D01*
X00035335Y00019387D01*
X00035395Y00019424D01*
X00035449Y00019470D01*
X00035495Y00019524D01*
X00035532Y00019584D01*
X00035559Y00019649D01*
X00035575Y00019718D01*
X00035581Y00019788D01*
X00035581Y00035788D01*
X00035575Y00035866D01*
X00035557Y00035943D01*
X00035526Y00036015D01*
X00035486Y00036082D01*
X00035435Y00036142D01*
X00035375Y00036193D01*
X00035308Y00036234D01*
X00035236Y00036264D01*
X00035159Y00036282D01*
X00035081Y00036288D01*
X00003631Y00036288D01*
X00003553Y00036282D01*
X00003476Y00036264D01*
X00003404Y00036234D01*
X00003337Y00036193D01*
X00003277Y00036142D01*
X00003226Y00036082D01*
X00003185Y00036015D01*
X00003155Y00035943D01*
X00003137Y00035866D01*
X00003131Y00035788D01*
X00003131Y00026738D01*
X00003137Y00026668D01*
X00003153Y00026599D01*
X00003180Y00026534D01*
X00003217Y00026474D01*
X00003263Y00026420D01*
X00003316Y00026374D01*
X00003377Y00026337D01*
X00003442Y00026310D01*
X00003511Y00026294D01*
X00003581Y00026288D01*
X00003581Y00026288D01*
X00010681Y00026288D01*
X00010751Y00026283D01*
X00010820Y00026266D01*
X00010885Y00026239D01*
X00010945Y00026202D01*
X00010999Y00026156D01*
X00011045Y00026103D01*
X00011082Y00026042D01*
X00011109Y00025977D01*
X00011125Y00025908D01*
X00011131Y00025838D01*
X00011131Y00019788D01*
X00011137Y00019718D01*
X00011153Y00019649D01*
X00011180Y00019584D01*
X00011217Y00019524D01*
X00011263Y00019470D01*
X00011316Y00019424D01*
X00011377Y00019387D01*
X00011442Y00019360D01*
X00011511Y00019344D01*
X00011581Y00019338D01*
X00013548Y00019338D01*
X00013580Y00019337D01*
X00013612Y00019333D01*
X00013643Y00019326D01*
X00013674Y00019317D01*
X00013704Y00019306D01*
X00013733Y00019292D01*
X00013760Y00019276D01*
X00013787Y00019258D01*
X00013811Y00019237D01*
X00013834Y00019215D01*
X00013855Y00019191D01*
X00013874Y00019165D01*
X00013891Y00019138D01*
X00013906Y00019109D01*
X00013918Y00019080D01*
X00013928Y00019049D01*
X00013935Y00019018D01*
X00013940Y00018987D01*
X00013942Y00018955D01*
X00013941Y00018923D01*
X00013921Y00018550D01*
X00013918Y00018520D01*
X00013913Y00018491D01*
X00013906Y00018462D01*
X00013896Y00018433D01*
X00013885Y00018406D01*
X00013871Y00018379D01*
X00013856Y00018354D01*
X00013838Y00018330D01*
X00013819Y00018307D01*
X00013798Y00018286D01*
X00013776Y00018266D01*
X00013752Y00018248D01*
X00013727Y00018232D01*
X00013700Y00018218D01*
X00013673Y00018206D01*
X00013645Y00018196D01*
X00013616Y00018188D01*
X00013587Y00018182D01*
X00013557Y00018179D01*
X00013528Y00018178D01*
X00003631Y00018178D01*
X00003553Y00018172D01*
X00003476Y00018153D01*
X00003404Y00018123D01*
X00003337Y00018082D01*
X00003277Y00018031D01*
X00003226Y00017972D01*
X00003185Y00017905D01*
X00003155Y00017832D01*
X00003137Y00017756D01*
X00003131Y00017678D01*
X00003131Y00008628D01*
X00003137Y00008557D01*
X00003153Y00008489D01*
X00003180Y00008424D01*
X00003217Y00008363D01*
X00003263Y00008310D01*
X00003316Y00008264D01*
X00003377Y00008227D01*
X00003442Y00008200D01*
X00003511Y00008183D01*
X00003581Y00008178D01*
X00003581Y00008178D01*
X00010681Y00008178D01*
X00010751Y00008172D01*
X00010820Y00008156D01*
X00010885Y00008129D01*
X00010945Y00008092D01*
X00010999Y00008046D01*
X00011045Y00007992D01*
X00011082Y00007932D01*
X00011109Y00007867D01*
X00011125Y00007798D01*
X00011131Y00007728D01*
X00011131Y00001678D01*
X00011137Y00001607D01*
X00011153Y00001539D01*
X00011180Y00001474D01*
X00011217Y00001413D01*
X00011263Y00001360D01*
X00011316Y00001314D01*
X00011377Y00001277D01*
X00011442Y00001250D01*
X00011511Y00001233D01*
X00011581Y00001228D01*
X00035131Y00001228D01*
X00035201Y00001233D01*
X00035270Y00001250D01*
X00035335Y00001277D01*
X00035395Y00001314D01*
X00035449Y00001360D01*
X00035495Y00001413D01*
X00035532Y00001474D01*
X00035559Y00001539D01*
X00035575Y00001607D01*
X00035581Y00001678D01*
X00035581Y00017678D01*
X00035575Y00017756D01*
X00035557Y00017832D01*
X00035526Y00017905D01*
X00035486Y00017972D01*
X00035435Y00018031D01*
X00035375Y00018082D01*
X00035308Y00018123D01*
X00035236Y00018153D01*
X00035159Y00018172D01*
X00035081Y00018178D01*
X00032534Y00018178D01*
X00032505Y00018179D01*
X00032475Y00018182D01*
X00032446Y00018188D01*
X00032417Y00018196D01*
X00032389Y00018206D01*
X00032362Y00018218D01*
X00032335Y00018232D01*
X00032310Y00018248D01*
X00032286Y00018266D01*
X00032264Y00018286D01*
X00032243Y00018307D01*
X00032224Y00018330D01*
X00032206Y00018354D01*
X00032191Y00018379D01*
X00032177Y00018406D01*
X00032166Y00018433D01*
X00032156Y00018462D01*
X00032149Y00018491D01*
X00032144Y00018520D01*
X00032141Y00018550D01*
X00032121Y00018923D01*
X00032120Y00018955D01*
X00032122Y00018987D01*
X00032127Y00019018D01*
X00032134Y00019049D01*
X00032144Y00019080D01*
X00032156Y00019109D01*
X00032171Y00019138D01*
X00032188Y00019165D01*
X00032207Y00019191D01*
X00032228Y00019215D01*
X00032251Y00019237D01*
X00032275Y00019258D01*
X00032302Y00019276D01*
X00032329Y00019292D01*
X00032358Y00019306D01*
X00032388Y00019317D01*
X00032419Y00019326D01*
X00032450Y00019333D01*
X00032482Y00019337D01*
X00032514Y00019338D01*
X00023873Y00018178D02*
X00023873Y00018178D01*
X00023843Y00018179D01*
X00023814Y00018182D01*
X00023784Y00018188D01*
X00023756Y00018196D01*
X00023727Y00018206D01*
X00023700Y00018218D01*
X00023674Y00018232D01*
X00023649Y00018248D01*
X00023625Y00018266D01*
X00023602Y00018286D01*
X00023582Y00018307D01*
X00023562Y00018330D01*
X00023545Y00018354D01*
X00023529Y00018379D01*
X00023516Y00018406D01*
X00023504Y00018433D01*
X00023495Y00018462D01*
X00023488Y00018491D01*
X00023483Y00018520D01*
X00023480Y00018550D01*
X00023459Y00018923D01*
X00023459Y00018955D01*
X00023461Y00018987D01*
X00023466Y00019018D01*
X00023473Y00019049D01*
X00023483Y00019080D01*
X00023495Y00019109D01*
X00023510Y00019138D01*
X00023526Y00019165D01*
X00023545Y00019191D01*
X00023566Y00019215D01*
X00023589Y00019237D01*
X00023614Y00019258D01*
X00023640Y00019276D01*
X00023668Y00019292D01*
X00023697Y00019306D01*
X00023727Y00019317D01*
X00023757Y00019326D01*
X00023789Y00019333D01*
X00023820Y00019337D01*
X00023852Y00019338D01*
X00030477Y00019338D01*
X00030509Y00019337D01*
X00030541Y00019333D01*
X00030572Y00019326D01*
X00030603Y00019317D01*
X00030633Y00019306D01*
X00030662Y00019292D01*
X00030689Y00019276D01*
X00030716Y00019258D01*
X00030740Y00019237D01*
X00030763Y00019215D01*
X00030784Y00019191D01*
X00030803Y00019165D01*
X00030820Y00019138D01*
X00030835Y00019109D01*
X00030847Y00019080D01*
X00030857Y00019049D01*
X00030864Y00019018D01*
X00030869Y00018987D01*
X00030871Y00018955D01*
X00030870Y00018923D01*
X00030850Y00018550D01*
X00030847Y00018520D01*
X00030842Y00018491D01*
X00030835Y00018462D01*
X00030825Y00018433D01*
X00030814Y00018406D01*
X00030800Y00018379D01*
X00030785Y00018354D01*
X00030767Y00018330D01*
X00030748Y00018307D01*
X00030727Y00018286D01*
X00030705Y00018266D01*
X00030681Y00018248D01*
X00030656Y00018232D01*
X00030630Y00018218D01*
X00030602Y00018206D01*
X00030574Y00018196D01*
X00030545Y00018188D01*
X00030516Y00018182D01*
X00030486Y00018179D01*
X00030457Y00018178D01*
X00023873Y00018178D01*
X00015605Y00018178D02*
X00015605Y00018178D01*
X00015576Y00018179D01*
X00015546Y00018182D01*
X00015517Y00018188D01*
X00015488Y00018196D01*
X00015460Y00018206D01*
X00015432Y00018218D01*
X00015406Y00018232D01*
X00015381Y00018248D01*
X00015357Y00018266D01*
X00015335Y00018286D01*
X00015314Y00018307D01*
X00015295Y00018330D01*
X00015277Y00018354D01*
X00015262Y00018379D01*
X00015248Y00018406D01*
X00015237Y00018433D01*
X00015227Y00018462D01*
X00015220Y00018491D01*
X00015215Y00018520D01*
X00015212Y00018550D01*
X00015192Y00018923D01*
X00015191Y00018955D01*
X00015193Y00018987D01*
X00015198Y00019018D01*
X00015205Y00019049D01*
X00015215Y00019080D01*
X00015227Y00019109D01*
X00015242Y00019138D01*
X00015259Y00019165D01*
X00015278Y00019191D01*
X00015299Y00019215D01*
X00015322Y00019237D01*
X00015346Y00019258D01*
X00015373Y00019276D01*
X00015400Y00019292D01*
X00015429Y00019306D01*
X00015459Y00019317D01*
X00015490Y00019326D01*
X00015521Y00019333D01*
X00015553Y00019337D01*
X00015585Y00019338D01*
X00021816Y00019338D01*
X00021848Y00019337D01*
X00021880Y00019333D01*
X00021911Y00019326D01*
X00021942Y00019317D01*
X00021972Y00019306D01*
X00022000Y00019292D01*
X00022028Y00019276D01*
X00022054Y00019258D01*
X00022079Y00019237D01*
X00022102Y00019215D01*
X00022123Y00019191D01*
X00022142Y00019165D01*
X00022159Y00019138D01*
X00022173Y00019109D01*
X00022186Y00019080D01*
X00022195Y00019049D01*
X00022203Y00019018D01*
X00022207Y00018987D01*
X00022209Y00018955D01*
X00022209Y00018923D01*
X00022188Y00018550D01*
X00022186Y00018520D01*
X00022181Y00018491D01*
X00022173Y00018462D01*
X00022164Y00018433D01*
X00022152Y00018406D01*
X00022139Y00018379D01*
X00022123Y00018354D01*
X00022106Y00018330D01*
X00022087Y00018307D01*
X00022066Y00018286D01*
X00022043Y00018266D01*
X00022020Y00018248D01*
X00021994Y00018232D01*
X00021968Y00018218D01*
X00021941Y00018206D01*
X00021913Y00018196D01*
X00021884Y00018188D01*
X00021855Y00018182D01*
X00021825Y00018179D01*
X00021795Y00018178D01*
X00015605Y00018178D01*
M02*