%MOIN*%
%OFA0B0*%
%FSLAX46Y46*%
%IPPOS*%
%LPD*%
%ADD10C,0.060000000000000005*%
%ADD11O,0.10400000000000001X0.052000000000000005*%
%ADD12C,0.052000000000000005*%
%ADD13C,0.066*%
%ADD14O,0.0593X0.1187*%
%ADD15C,0.006000000000000001*%
%ADD26C,0.060000000000000005*%
%ADD27O,0.10400000000000001X0.052000000000000005*%
%ADD28C,0.052000000000000005*%
%ADD29C,0.066*%
%ADD30O,0.0593X0.1187*%
%ADD31C,0.006000000000000001*%
%LPD*%
D10*
X-0000196850Y0002322834D02*
X0001788149Y0000427834D03*
X0001788149Y0000527834D03*
X0001788149Y0000327834D03*
X0002088149Y0000327834D03*
X0002088149Y0000427834D03*
X0002088149Y0000527834D03*
D11*
X0002438149Y0000402834D03*
X0002438149Y0000502834D03*
X0002438149Y0000302834D03*
D12*
X0003259645Y0000618818D03*
X0003259645Y0000218818D03*
X0003109645Y0000618818D03*
X0003109645Y0000218818D03*
X0002959645Y0000618818D03*
X0002959645Y0000218818D03*
X0002809645Y0000218818D03*
X0002809645Y0000618818D03*
X0002659645Y0000618818D03*
X0002659645Y0000218818D03*
D13*
X0001249015Y0000318818D03*
X0001249015Y0000418818D03*
X0001249015Y0000518818D03*
X0001349015Y0000318818D03*
X0001349015Y0000418818D03*
X0001349015Y0000518818D03*
D14*
X0001209645Y0000773818D03*
X0001309645Y0000773818D03*
X0001409645Y0000773818D03*
X0001509645Y0000773818D03*
X0001609645Y0000773818D03*
X0001709645Y0000773818D03*
X0001809645Y0000773818D03*
X0001909645Y0000773818D03*
X0002009645Y0000773818D03*
X0002109645Y0000773818D03*
X0002209645Y0000773818D03*
X0002309645Y0000773818D03*
X0002409645Y0000773818D03*
X0002509645Y0000773818D03*
X0002609645Y0000773818D03*
X0002709645Y0000773818D03*
X0002809645Y0000773818D03*
X0002909645Y0000773818D03*
X0003009645Y0000773818D03*
X0003109645Y0000773818D03*
X0003109645Y0001363818D03*
X0003009645Y0001363818D03*
X0002909645Y0001363818D03*
X0002809645Y0001363818D03*
X0002709645Y0001363818D03*
X0002609645Y0001363818D03*
X0002509645Y0001363818D03*
X0002409645Y0001363818D03*
X0002309645Y0001363818D03*
X0002209645Y0001363818D03*
X0002109645Y0001363818D03*
X0002009645Y0001363818D03*
X0001909645Y0001363818D03*
X0001809645Y0001363818D03*
X0001709645Y0001363818D03*
X0001609645Y0001363818D03*
X0001509645Y0001363818D03*
X0001409645Y0001363818D03*
X0001309645Y0001363818D03*
X0001209645Y0001363818D03*
X0000734645Y0001018834D03*
X0000834645Y0001018834D03*
X0000934645Y0001018834D03*
X0001034645Y0001018834D03*
X0001134645Y0001018834D03*
X0001234645Y0001018834D03*
X0001334645Y0001018834D03*
X0001434645Y0001018834D03*
X0001534645Y0001018834D03*
X0001634645Y0001018834D03*
X0001734645Y0001018834D03*
X0001834645Y0001018834D03*
X0001934645Y0001018834D03*
X0002034645Y0001018834D03*
X0002134645Y0001018834D03*
X0002234645Y0001018834D03*
X0002334645Y0001018834D03*
X0002434645Y0001018834D03*
X0002534645Y0001018834D03*
X0002634645Y0001018834D03*
X0002734645Y0001018834D03*
X0002834645Y0001018834D03*
X0002934645Y0001018834D03*
X0003034645Y0001018834D03*
X0003034645Y0001618834D03*
X0002934645Y0001618834D03*
X0002834645Y0001618834D03*
X0002734645Y0001618834D03*
X0002634645Y0001618834D03*
X0002534645Y0001618834D03*
X0002434645Y0001618834D03*
X0002334645Y0001618834D03*
X0002234645Y0001618834D03*
X0002134645Y0001618834D03*
X0002034645Y0001618834D03*
X0001934645Y0001618834D03*
X0001834645Y0001618834D03*
X0001734645Y0001618834D03*
X0001634645Y0001618834D03*
X0001534645Y0001618834D03*
X0001434645Y0001618834D03*
X0001334645Y0001618834D03*
X0001234645Y0001618834D03*
X0001134645Y0001618834D03*
X0001034645Y0001618834D03*
X0000934645Y0001618834D03*
X0000834645Y0001618834D03*
X0000734645Y0001618834D03*
D15*
X0002809645Y0000218818D02*
X0002959645Y0000218818D01*
X0002959645Y0000218818D02*
X0003109645Y0000218818D01*
X0003109645Y0000218818D02*
X0003259645Y0000218818D01*
X0002134645Y0000917181D02*
X0002209645Y0000842181D01*
X0002134645Y0001018834D02*
X0002134645Y0000917181D01*
X0002209645Y0000773818D02*
X0002209645Y0000842181D01*
X0002209645Y0001475472D02*
X0002209645Y0001363818D01*
X0002134645Y0001550472D02*
X0002209645Y0001475472D01*
X0002134645Y0001618834D02*
X0002134645Y0001550472D01*
X0002128122Y0000467807D02*
X0002088149Y0000427834D01*
X0002508633Y0000467807D02*
X0002128122Y0000467807D01*
X0002659645Y0000618818D02*
X0002508633Y0000467807D01*
X0002088149Y0000427834D02*
X0001788149Y0000427834D01*
X0000995370Y0001081181D02*
X0001209645Y0001295456D01*
X0000995370Y0000972716D02*
X0000995370Y0001081181D01*
X0001053283Y0000914803D02*
X0000995370Y0000972716D01*
X0001155724Y0000914803D02*
X0001053283Y0000914803D01*
X0001259645Y0000810881D02*
X0001155724Y0000914803D01*
X0001259645Y0000572169D02*
X0001259645Y0000810881D01*
X0001303267Y0000528547D02*
X0001259645Y0000572169D01*
X0001303267Y0000504933D02*
X0001303267Y0000528547D01*
X0001342129Y0000466070D02*
X0001303267Y0000504933D01*
X0001749913Y0000466070D02*
X0001342129Y0000466070D01*
X0001788149Y0000427834D02*
X0001749913Y0000466070D01*
X0001209645Y0001363818D02*
X0001209645Y0001295456D01*
X0002438149Y0000502834D02*
X0002438149Y0000537846D01*
X0002774484Y0000653980D02*
X0002809645Y0000618818D01*
X0002554283Y0000653980D02*
X0002774484Y0000653980D01*
X0002438149Y0000537846D02*
X0002554283Y0000653980D01*
X0002363122Y0000488818D02*
X0002377137Y0000502834D01*
X0001379015Y0000488818D02*
X0002363122Y0000488818D01*
X0001349015Y0000518818D02*
X0001379015Y0000488818D01*
X0002438149Y0000502834D02*
X0002377137Y0000502834D01*
X0001206405Y0000361429D02*
X0001249015Y0000318818D01*
X0001206405Y0000702216D02*
X0001206405Y0000361429D01*
X0001209645Y0000705456D02*
X0001206405Y0000702216D01*
X0001209645Y0000773818D02*
X0001209645Y0000705456D01*
X0002990657Y0000349830D02*
X0003259645Y0000618818D01*
X0002210129Y0000349830D02*
X0002990657Y0000349830D01*
X0002148846Y0000288547D02*
X0002210129Y0000349830D01*
X0001827437Y0000288547D02*
X0002148846Y0000288547D01*
X0001788149Y0000327834D02*
X0001827437Y0000288547D01*
X0001736405Y0000276090D02*
X0001788149Y0000327834D01*
X0001332007Y0000276090D02*
X0001736405Y0000276090D01*
X0001299019Y0000309078D02*
X0001332007Y0000276090D01*
X0001299019Y0000468814D02*
X0001299019Y0000309078D01*
X0001249015Y0000518818D02*
X0001299019Y0000468814D01*
X0002203606Y0000443291D02*
X0002088149Y0000327834D01*
X0002934118Y0000443291D02*
X0002203606Y0000443291D01*
X0003109645Y0000618818D02*
X0002934118Y0000443291D01*
X0001034645Y0001018834D02*
X0001034645Y0000950472D01*
X0001568566Y0000527834D02*
X0001788149Y0000527834D01*
X0001355393Y0000741007D02*
X0001568566Y0000527834D01*
X0001355393Y0000812814D02*
X0001355393Y0000741007D01*
X0001217736Y0000950472D02*
X0001355393Y0000812814D01*
X0001034645Y0000950472D02*
X0001217736Y0000950472D01*
X0002910838Y0000667625D02*
X0002959645Y0000618818D01*
X0001927940Y0000667625D02*
X0002910838Y0000667625D01*
X0001788149Y0000527834D02*
X0001927940Y0000667625D01*
X0001407000Y0000376803D02*
X0001349015Y0000318818D01*
X0002112224Y0000376803D02*
X0001407000Y0000376803D01*
X0002191216Y0000455795D02*
X0002112224Y0000376803D01*
X0002859984Y0000455795D02*
X0002191216Y0000455795D01*
X0003109645Y0000705456D02*
X0002859984Y0000455795D01*
X0003109645Y0000773818D02*
X0003109645Y0000705456D01*
X0002634645Y0001618834D02*
X0002634645Y0001550472D01*
X0001609645Y0000773818D02*
X0001609645Y0000842181D01*
X0001495263Y0000956562D02*
X0001609645Y0000842181D01*
X0001495263Y0001064811D02*
X0001495263Y0000956562D01*
X0001652590Y0001222137D02*
X0001495263Y0001064811D01*
X0002553314Y0001222137D02*
X0001652590Y0001222137D01*
X0002649779Y0001318602D02*
X0002553314Y0001222137D01*
X0002649779Y0001535338D02*
X0002649779Y0001318602D01*
X0002634645Y0001550472D02*
X0002649779Y0001535338D01*
X0002834645Y0001618834D02*
X0002834645Y0001550472D01*
X0001709645Y0000773818D02*
X0001709645Y0000842181D01*
X0002849779Y0001535338D02*
X0002834645Y0001550472D01*
X0002849779Y0001318598D02*
X0002849779Y0001535338D01*
X0002705271Y0001174090D02*
X0002849779Y0001318598D01*
X0001802913Y0001174090D02*
X0002705271Y0001174090D01*
X0001694019Y0001065196D02*
X0001802913Y0001174090D01*
X0001694019Y0000857807D02*
X0001694019Y0001065196D01*
X0001709645Y0000842181D02*
X0001694019Y0000857807D01*
X0003034645Y0001018834D02*
X0003034645Y0001087196D01*
X0001809645Y0000773818D02*
X0001809645Y0000842181D01*
X0002998610Y0001123232D02*
X0003034645Y0001087196D01*
X0002054586Y0001123232D02*
X0002998610Y0001123232D01*
X0001984645Y0001053291D02*
X0002054586Y0001123232D01*
X0001984645Y0000984177D02*
X0001984645Y0001053291D01*
X0001842649Y0000842181D02*
X0001984645Y0000984177D01*
X0001809645Y0000842181D02*
X0001842649Y0000842181D01*
X0001909645Y0000773818D02*
X0001909645Y0000842181D01*
X0002834645Y0001018834D02*
X0002834645Y0001087196D01*
X0002810622Y0001111220D02*
X0002834645Y0001087196D01*
X0002142314Y0001111220D02*
X0002810622Y0001111220D01*
X0002084645Y0001053551D02*
X0002142314Y0001111220D01*
X0002084645Y0000982696D02*
X0002084645Y0001053551D01*
X0001944129Y0000842181D02*
X0002084645Y0000982696D01*
X0001909645Y0000842181D02*
X0001944129Y0000842181D01*
X0002227944Y0000705456D02*
X0002009645Y0000705456D01*
X0002259645Y0000737157D02*
X0002227944Y0000705456D01*
X0002259645Y0000811086D02*
X0002259645Y0000737157D01*
X0002399027Y0000950468D02*
X0002259645Y0000811086D01*
X0002453224Y0000950468D02*
X0002399027Y0000950468D01*
X0002484645Y0000981889D02*
X0002453224Y0000950468D01*
X0002484645Y0001053893D02*
X0002484645Y0000981889D01*
X0002517948Y0001087196D02*
X0002484645Y0001053893D01*
X0002634645Y0001087196D02*
X0002517948Y0001087196D01*
X0002634645Y0001018834D02*
X0002634645Y0001087196D01*
X0002009645Y0000773818D02*
X0002009645Y0000705456D01*
X0002534645Y0001018834D02*
X0002534645Y0000950472D01*
X0002909645Y0000773818D02*
X0002909645Y0000842181D01*
X0002801354Y0000950472D02*
X0002909645Y0000842181D01*
X0002534645Y0000950472D02*
X0002801354Y0000950472D01*
X0002334645Y0001018834D02*
X0002334645Y0001087196D01*
X0003009645Y0000773818D02*
X0003009645Y0000842181D01*
X0002926913Y0000842181D02*
X0003009645Y0000842181D01*
X0002780393Y0000988700D02*
X0002926913Y0000842181D01*
X0002780393Y0001058527D02*
X0002780393Y0000988700D01*
X0002739712Y0001099208D02*
X0002780393Y0001058527D01*
X0002346657Y0001099208D02*
X0002739712Y0001099208D01*
X0002334645Y0001087196D02*
X0002346657Y0001099208D01*
X0001934645Y0001018834D02*
X0001934645Y0001087196D01*
X0003109645Y0001363818D02*
X0003109645Y0001295456D01*
X0002952244Y0001138055D02*
X0003109645Y0001295456D01*
X0001985503Y0001138055D02*
X0002952244Y0001138055D01*
X0001934645Y0001087196D02*
X0001985503Y0001138055D01*
X0001834645Y0001018834D02*
X0001834645Y0001087196D01*
X0003009645Y0001363818D02*
X0003009645Y0001295456D01*
X0002864255Y0001150066D02*
X0003009645Y0001295456D01*
X0001897515Y0001150066D02*
X0002864255Y0001150066D01*
X0001834645Y0001087196D02*
X0001897515Y0001150066D01*
X0001734645Y0001018834D02*
X0001734645Y0001087196D01*
X0002909645Y0001363818D02*
X0002909645Y0001295456D01*
X0002776267Y0001162078D02*
X0002909645Y0001295456D01*
X0001809527Y0001162078D02*
X0002776267Y0001162078D01*
X0001734645Y0001087196D02*
X0001809527Y0001162078D01*
X0001634645Y0001018834D02*
X0001634645Y0001087196D01*
X0002809645Y0001363818D02*
X0002809645Y0001295456D01*
X0002700291Y0001186102D02*
X0002809645Y0001295456D01*
X0001733551Y0001186102D02*
X0002700291Y0001186102D01*
X0001634645Y0001087196D02*
X0001733551Y0001186102D01*
X0002709645Y0001359110D02*
X0002709645Y0001363818D01*
X0002554653Y0001204118D02*
X0002709645Y0001359110D01*
X0001651566Y0001204118D02*
X0002554653Y0001204118D01*
X0001534645Y0001087196D02*
X0001651566Y0001204118D01*
X0001534645Y0001018834D02*
X0001534645Y0001087196D01*
X0001434645Y0001018834D02*
X0001434645Y0001087196D01*
X0002609645Y0001363818D02*
X0002609645Y0001295456D01*
X0001581598Y0001234149D02*
X0001434645Y0001087196D01*
X0002548338Y0001234149D02*
X0001581598Y0001234149D01*
X0002609645Y0001295456D02*
X0002548338Y0001234149D01*
X0001334645Y0001018834D02*
X0001334645Y0001087196D01*
X0002509645Y0001363818D02*
X0002509645Y0001295456D01*
X0002460350Y0001246161D02*
X0002509645Y0001295456D01*
X0001493610Y0001246161D02*
X0002460350Y0001246161D01*
X0001334645Y0001087196D02*
X0001493610Y0001246161D01*
X0001234645Y0001018834D02*
X0001234645Y0001087196D01*
X0002409645Y0001363818D02*
X0002409645Y0001295456D01*
X0002372362Y0001258173D02*
X0002409645Y0001295456D01*
X0001405622Y0001258173D02*
X0002372362Y0001258173D01*
X0001234645Y0001087196D02*
X0001405622Y0001258173D01*
X0001134645Y0001618834D02*
X0001134645Y0001550472D01*
X0002309645Y0001363818D02*
X0002309645Y0001295456D01*
X0002285622Y0001271433D02*
X0002309645Y0001295456D01*
X0001514937Y0001271433D02*
X0002285622Y0001271433D01*
X0001459645Y0001326724D02*
X0001514937Y0001271433D01*
X0001459645Y0001398476D02*
X0001459645Y0001326724D01*
X0001358228Y0001499893D02*
X0001459645Y0001398476D01*
X0001185224Y0001499893D02*
X0001358228Y0001499893D01*
X0001134645Y0001550472D02*
X0001185224Y0001499893D01*
X0002097633Y0001283444D02*
X0002109645Y0001295456D01*
X0001605200Y0001283444D02*
X0002097633Y0001283444D01*
X0001559645Y0001329000D02*
X0001605200Y0001283444D01*
X0001559645Y0001398472D02*
X0001559645Y0001329000D01*
X0001441960Y0001516157D02*
X0001559645Y0001398472D01*
X0001268960Y0001516157D02*
X0001441960Y0001516157D01*
X0001234645Y0001550472D02*
X0001268960Y0001516157D01*
X0002109645Y0001363818D02*
X0002109645Y0001295456D01*
X0001234645Y0001618834D02*
X0001234645Y0001550472D01*
X0001792976Y0001295456D02*
X0002009645Y0001295456D01*
X0001759645Y0001328787D02*
X0001792976Y0001295456D01*
X0001759645Y0001400488D02*
X0001759645Y0001328787D01*
X0001621677Y0001538456D02*
X0001759645Y0001400488D01*
X0001346661Y0001538456D02*
X0001621677Y0001538456D01*
X0001334645Y0001550472D02*
X0001346661Y0001538456D01*
X0001334645Y0001618834D02*
X0001334645Y0001550472D01*
X0002009645Y0001363818D02*
X0002009645Y0001295456D01*
X0001836913Y0001432181D02*
X0001909645Y0001432181D01*
X0001680393Y0001588700D02*
X0001836913Y0001432181D01*
X0001680393Y0001657649D02*
X0001680393Y0001588700D01*
X0001650846Y0001687196D02*
X0001680393Y0001657649D01*
X0001434645Y0001687196D02*
X0001650846Y0001687196D01*
X0001434645Y0001618834D02*
X0001434645Y0001687196D01*
X0001909645Y0001363818D02*
X0001909645Y0001432181D01*
X0001691354Y0001550472D02*
X0001809645Y0001432181D01*
X0001534645Y0001550472D02*
X0001691354Y0001550472D01*
X0001534645Y0001618834D02*
X0001534645Y0001550472D01*
X0001809645Y0001363818D02*
X0001809645Y0001432181D01*
G04 next file*
%LPD*%
G04 #@! TF.GenerationSoftware,KiCad,Pcbnew,(5.1.2)-2*
G04 #@! TF.CreationDate,2019-08-03T14:41:18-04:00*
G04 #@! TF.ProjectId,27C160_Adapter,32374331-3630-45f4-9164-61707465722e,rev?*
G04 #@! TF.SameCoordinates,Original*
G04 #@! TF.FileFunction,Copper,L1,Top*
G04 #@! TF.FilePolarity,Positive*
G04 Gerber Fmt 4.6, Leading zero omitted, Abs format (unit mm)*
G04 Created by KiCad (PCBNEW (5.1.2)-2) date 2019-08-03 14:41:18*
G04 APERTURE LIST*
G04 APERTURE END LIST*
D26*
X-0000196850Y0004133858D02*
X0001788149Y0002238858D03*
X0001788149Y0002338858D03*
X0001788149Y0002138858D03*
X0002088149Y0002138858D03*
X0002088149Y0002238858D03*
X0002088149Y0002338858D03*
D27*
X0002438149Y0002213858D03*
X0002438149Y0002313858D03*
X0002438149Y0002113858D03*
D28*
X0003259645Y0002429842D03*
X0003259645Y0002029842D03*
X0003109645Y0002429842D03*
X0003109645Y0002029842D03*
X0002959645Y0002429842D03*
X0002959645Y0002029842D03*
X0002809645Y0002029842D03*
X0002809645Y0002429842D03*
X0002659645Y0002429842D03*
X0002659645Y0002029842D03*
D29*
X0001249015Y0002129842D03*
X0001249015Y0002229842D03*
X0001249015Y0002329842D03*
X0001349015Y0002129842D03*
X0001349015Y0002229842D03*
X0001349015Y0002329842D03*
D30*
X0001209645Y0002584842D03*
X0001309645Y0002584842D03*
X0001409645Y0002584842D03*
X0001509645Y0002584842D03*
X0001609645Y0002584842D03*
X0001709645Y0002584842D03*
X0001809645Y0002584842D03*
X0001909645Y0002584842D03*
X0002009645Y0002584842D03*
X0002109645Y0002584842D03*
X0002209645Y0002584842D03*
X0002309645Y0002584842D03*
X0002409645Y0002584842D03*
X0002509645Y0002584842D03*
X0002609645Y0002584842D03*
X0002709645Y0002584842D03*
X0002809645Y0002584842D03*
X0002909645Y0002584842D03*
X0003009645Y0002584842D03*
X0003109645Y0002584842D03*
X0003109645Y0003174842D03*
X0003009645Y0003174842D03*
X0002909645Y0003174842D03*
X0002809645Y0003174842D03*
X0002709645Y0003174842D03*
X0002609645Y0003174842D03*
X0002509645Y0003174842D03*
X0002409645Y0003174842D03*
X0002309645Y0003174842D03*
X0002209645Y0003174842D03*
X0002109645Y0003174842D03*
X0002009645Y0003174842D03*
X0001909645Y0003174842D03*
X0001809645Y0003174842D03*
X0001709645Y0003174842D03*
X0001609645Y0003174842D03*
X0001509645Y0003174842D03*
X0001409645Y0003174842D03*
X0001309645Y0003174842D03*
X0001209645Y0003174842D03*
X0000734645Y0002829858D03*
X0000834645Y0002829858D03*
X0000934645Y0002829858D03*
X0001034645Y0002829858D03*
X0001134645Y0002829858D03*
X0001234645Y0002829858D03*
X0001334645Y0002829858D03*
X0001434645Y0002829858D03*
X0001534645Y0002829858D03*
X0001634645Y0002829858D03*
X0001734645Y0002829858D03*
X0001834645Y0002829858D03*
X0001934645Y0002829858D03*
X0002034645Y0002829858D03*
X0002134645Y0002829858D03*
X0002234645Y0002829858D03*
X0002334645Y0002829858D03*
X0002434645Y0002829858D03*
X0002534645Y0002829858D03*
X0002634645Y0002829858D03*
X0002734645Y0002829858D03*
X0002834645Y0002829858D03*
X0002934645Y0002829858D03*
X0003034645Y0002829858D03*
X0003034645Y0003429858D03*
X0002934645Y0003429858D03*
X0002834645Y0003429858D03*
X0002734645Y0003429858D03*
X0002634645Y0003429858D03*
X0002534645Y0003429858D03*
X0002434645Y0003429858D03*
X0002334645Y0003429858D03*
X0002234645Y0003429858D03*
X0002134645Y0003429858D03*
X0002034645Y0003429858D03*
X0001934645Y0003429858D03*
X0001834645Y0003429858D03*
X0001734645Y0003429858D03*
X0001634645Y0003429858D03*
X0001534645Y0003429858D03*
X0001434645Y0003429858D03*
X0001334645Y0003429858D03*
X0001234645Y0003429858D03*
X0001134645Y0003429858D03*
X0001034645Y0003429858D03*
X0000934645Y0003429858D03*
X0000834645Y0003429858D03*
X0000734645Y0003429858D03*
D31*
X0002809645Y0002029842D02*
X0002959645Y0002029842D01*
X0002959645Y0002029842D02*
X0003109645Y0002029842D01*
X0003109645Y0002029842D02*
X0003259645Y0002029842D01*
X0002134645Y0002728204D02*
X0002209645Y0002653204D01*
X0002134645Y0002829858D02*
X0002134645Y0002728204D01*
X0002209645Y0002584842D02*
X0002209645Y0002653204D01*
X0002209645Y0003286496D02*
X0002209645Y0003174842D01*
X0002134645Y0003361496D02*
X0002209645Y0003286496D01*
X0002134645Y0003429858D02*
X0002134645Y0003361496D01*
X0002128122Y0002278830D02*
X0002088149Y0002238858D01*
X0002508633Y0002278830D02*
X0002128122Y0002278830D01*
X0002659645Y0002429842D02*
X0002508633Y0002278830D01*
X0002088149Y0002238858D02*
X0001788149Y0002238858D01*
X0000995370Y0002892204D02*
X0001209645Y0003106480D01*
X0000995370Y0002783740D02*
X0000995370Y0002892204D01*
X0001053283Y0002725826D02*
X0000995370Y0002783740D01*
X0001155724Y0002725826D02*
X0001053283Y0002725826D01*
X0001259645Y0002621905D02*
X0001155724Y0002725826D01*
X0001259645Y0002383192D02*
X0001259645Y0002621905D01*
X0001303267Y0002339570D02*
X0001259645Y0002383192D01*
X0001303267Y0002315956D02*
X0001303267Y0002339570D01*
X0001342129Y0002277094D02*
X0001303267Y0002315956D01*
X0001749913Y0002277094D02*
X0001342129Y0002277094D01*
X0001788149Y0002238858D02*
X0001749913Y0002277094D01*
X0001209645Y0003174842D02*
X0001209645Y0003106480D01*
X0002438149Y0002313858D02*
X0002438149Y0002348870D01*
X0002774484Y0002465003D02*
X0002809645Y0002429842D01*
X0002554283Y0002465003D02*
X0002774484Y0002465003D01*
X0002438149Y0002348870D02*
X0002554283Y0002465003D01*
X0002363122Y0002299842D02*
X0002377137Y0002313858D01*
X0001379015Y0002299842D02*
X0002363122Y0002299842D01*
X0001349015Y0002329842D02*
X0001379015Y0002299842D01*
X0002438149Y0002313858D02*
X0002377137Y0002313858D01*
X0001206405Y0002172452D02*
X0001249015Y0002129842D01*
X0001206405Y0002513240D02*
X0001206405Y0002172452D01*
X0001209645Y0002516480D02*
X0001206405Y0002513240D01*
X0001209645Y0002584842D02*
X0001209645Y0002516480D01*
X0002990657Y0002160854D02*
X0003259645Y0002429842D01*
X0002210129Y0002160854D02*
X0002990657Y0002160854D01*
X0002148846Y0002099570D02*
X0002210129Y0002160854D01*
X0001827437Y0002099570D02*
X0002148846Y0002099570D01*
X0001788149Y0002138858D02*
X0001827437Y0002099570D01*
X0001736405Y0002087114D02*
X0001788149Y0002138858D01*
X0001332007Y0002087114D02*
X0001736405Y0002087114D01*
X0001299019Y0002120102D02*
X0001332007Y0002087114D01*
X0001299019Y0002279838D02*
X0001299019Y0002120102D01*
X0001249015Y0002329842D02*
X0001299019Y0002279838D01*
X0002203606Y0002254314D02*
X0002088149Y0002138858D01*
X0002934118Y0002254314D02*
X0002203606Y0002254314D01*
X0003109645Y0002429842D02*
X0002934118Y0002254314D01*
X0001034645Y0002829858D02*
X0001034645Y0002761496D01*
X0001568566Y0002338858D02*
X0001788149Y0002338858D01*
X0001355393Y0002552031D02*
X0001568566Y0002338858D01*
X0001355393Y0002623838D02*
X0001355393Y0002552031D01*
X0001217736Y0002761496D02*
X0001355393Y0002623838D01*
X0001034645Y0002761496D02*
X0001217736Y0002761496D01*
X0002910838Y0002478649D02*
X0002959645Y0002429842D01*
X0001927940Y0002478649D02*
X0002910838Y0002478649D01*
X0001788149Y0002338858D02*
X0001927940Y0002478649D01*
X0001407000Y0002187826D02*
X0001349015Y0002129842D01*
X0002112224Y0002187826D02*
X0001407000Y0002187826D01*
X0002191216Y0002266818D02*
X0002112224Y0002187826D01*
X0002859984Y0002266818D02*
X0002191216Y0002266818D01*
X0003109645Y0002516480D02*
X0002859984Y0002266818D01*
X0003109645Y0002584842D02*
X0003109645Y0002516480D01*
X0002634645Y0003429858D02*
X0002634645Y0003361496D01*
X0001609645Y0002584842D02*
X0001609645Y0002653204D01*
X0001495263Y0002767586D02*
X0001609645Y0002653204D01*
X0001495263Y0002875834D02*
X0001495263Y0002767586D01*
X0001652590Y0003033161D02*
X0001495263Y0002875834D01*
X0002553314Y0003033161D02*
X0001652590Y0003033161D01*
X0002649779Y0003129625D02*
X0002553314Y0003033161D01*
X0002649779Y0003346362D02*
X0002649779Y0003129625D01*
X0002634645Y0003361496D02*
X0002649779Y0003346362D01*
X0002834645Y0003429858D02*
X0002834645Y0003361496D01*
X0001709645Y0002584842D02*
X0001709645Y0002653204D01*
X0002849779Y0003346362D02*
X0002834645Y0003361496D01*
X0002849779Y0003129622D02*
X0002849779Y0003346362D01*
X0002705271Y0002985114D02*
X0002849779Y0003129622D01*
X0001802913Y0002985114D02*
X0002705271Y0002985114D01*
X0001694019Y0002876220D02*
X0001802913Y0002985114D01*
X0001694019Y0002668830D02*
X0001694019Y0002876220D01*
X0001709645Y0002653204D02*
X0001694019Y0002668830D01*
X0003034645Y0002829858D02*
X0003034645Y0002898220D01*
X0001809645Y0002584842D02*
X0001809645Y0002653204D01*
X0002998610Y0002934255D02*
X0003034645Y0002898220D01*
X0002054586Y0002934255D02*
X0002998610Y0002934255D01*
X0001984645Y0002864314D02*
X0002054586Y0002934255D01*
X0001984645Y0002795200D02*
X0001984645Y0002864314D01*
X0001842649Y0002653204D02*
X0001984645Y0002795200D01*
X0001809645Y0002653204D02*
X0001842649Y0002653204D01*
X0001909645Y0002584842D02*
X0001909645Y0002653204D01*
X0002834645Y0002829858D02*
X0002834645Y0002898220D01*
X0002810622Y0002922244D02*
X0002834645Y0002898220D01*
X0002142314Y0002922244D02*
X0002810622Y0002922244D01*
X0002084645Y0002864574D02*
X0002142314Y0002922244D01*
X0002084645Y0002793720D02*
X0002084645Y0002864574D01*
X0001944129Y0002653204D02*
X0002084645Y0002793720D01*
X0001909645Y0002653204D02*
X0001944129Y0002653204D01*
X0002227944Y0002516480D02*
X0002009645Y0002516480D01*
X0002259645Y0002548181D02*
X0002227944Y0002516480D01*
X0002259645Y0002622110D02*
X0002259645Y0002548181D01*
X0002399027Y0002761492D02*
X0002259645Y0002622110D01*
X0002453224Y0002761492D02*
X0002399027Y0002761492D01*
X0002484645Y0002792913D02*
X0002453224Y0002761492D01*
X0002484645Y0002864917D02*
X0002484645Y0002792913D01*
X0002517948Y0002898220D02*
X0002484645Y0002864917D01*
X0002634645Y0002898220D02*
X0002517948Y0002898220D01*
X0002634645Y0002829858D02*
X0002634645Y0002898220D01*
X0002009645Y0002584842D02*
X0002009645Y0002516480D01*
X0002534645Y0002829858D02*
X0002534645Y0002761496D01*
X0002909645Y0002584842D02*
X0002909645Y0002653204D01*
X0002801354Y0002761496D02*
X0002909645Y0002653204D01*
X0002534645Y0002761496D02*
X0002801354Y0002761496D01*
X0002334645Y0002829858D02*
X0002334645Y0002898220D01*
X0003009645Y0002584842D02*
X0003009645Y0002653204D01*
X0002926913Y0002653204D02*
X0003009645Y0002653204D01*
X0002780393Y0002799724D02*
X0002926913Y0002653204D01*
X0002780393Y0002869551D02*
X0002780393Y0002799724D01*
X0002739712Y0002910232D02*
X0002780393Y0002869551D01*
X0002346657Y0002910232D02*
X0002739712Y0002910232D01*
X0002334645Y0002898220D02*
X0002346657Y0002910232D01*
X0001934645Y0002829858D02*
X0001934645Y0002898220D01*
X0003109645Y0003174842D02*
X0003109645Y0003106480D01*
X0002952244Y0002949078D02*
X0003109645Y0003106480D01*
X0001985503Y0002949078D02*
X0002952244Y0002949078D01*
X0001934645Y0002898220D02*
X0001985503Y0002949078D01*
X0001834645Y0002829858D02*
X0001834645Y0002898220D01*
X0003009645Y0003174842D02*
X0003009645Y0003106480D01*
X0002864255Y0002961090D02*
X0003009645Y0003106480D01*
X0001897515Y0002961090D02*
X0002864255Y0002961090D01*
X0001834645Y0002898220D02*
X0001897515Y0002961090D01*
X0001734645Y0002829858D02*
X0001734645Y0002898220D01*
X0002909645Y0003174842D02*
X0002909645Y0003106480D01*
X0002776267Y0002973102D02*
X0002909645Y0003106480D01*
X0001809527Y0002973102D02*
X0002776267Y0002973102D01*
X0001734645Y0002898220D02*
X0001809527Y0002973102D01*
X0001634645Y0002829858D02*
X0001634645Y0002898220D01*
X0002809645Y0003174842D02*
X0002809645Y0003106480D01*
X0002700291Y0002997125D02*
X0002809645Y0003106480D01*
X0001733551Y0002997125D02*
X0002700291Y0002997125D01*
X0001634645Y0002898220D02*
X0001733551Y0002997125D01*
X0002709645Y0003170133D02*
X0002709645Y0003174842D01*
X0002554653Y0003015141D02*
X0002709645Y0003170133D01*
X0001651566Y0003015141D02*
X0002554653Y0003015141D01*
X0001534645Y0002898220D02*
X0001651566Y0003015141D01*
X0001534645Y0002829858D02*
X0001534645Y0002898220D01*
X0001434645Y0002829858D02*
X0001434645Y0002898220D01*
X0002609645Y0003174842D02*
X0002609645Y0003106480D01*
X0001581598Y0003045173D02*
X0001434645Y0002898220D01*
X0002548338Y0003045173D02*
X0001581598Y0003045173D01*
X0002609645Y0003106480D02*
X0002548338Y0003045173D01*
X0001334645Y0002829858D02*
X0001334645Y0002898220D01*
X0002509645Y0003174842D02*
X0002509645Y0003106480D01*
X0002460350Y0003057185D02*
X0002509645Y0003106480D01*
X0001493610Y0003057185D02*
X0002460350Y0003057185D01*
X0001334645Y0002898220D02*
X0001493610Y0003057185D01*
X0001234645Y0002829858D02*
X0001234645Y0002898220D01*
X0002409645Y0003174842D02*
X0002409645Y0003106480D01*
X0002372362Y0003069196D02*
X0002409645Y0003106480D01*
X0001405622Y0003069196D02*
X0002372362Y0003069196D01*
X0001234645Y0002898220D02*
X0001405622Y0003069196D01*
X0001134645Y0003429858D02*
X0001134645Y0003361496D01*
X0002309645Y0003174842D02*
X0002309645Y0003106480D01*
X0002285622Y0003082456D02*
X0002309645Y0003106480D01*
X0001514937Y0003082456D02*
X0002285622Y0003082456D01*
X0001459645Y0003137748D02*
X0001514937Y0003082456D01*
X0001459645Y0003209500D02*
X0001459645Y0003137748D01*
X0001358228Y0003310917D02*
X0001459645Y0003209500D01*
X0001185224Y0003310917D02*
X0001358228Y0003310917D01*
X0001134645Y0003361496D02*
X0001185224Y0003310917D01*
X0002097633Y0003094468D02*
X0002109645Y0003106480D01*
X0001605200Y0003094468D02*
X0002097633Y0003094468D01*
X0001559645Y0003140023D02*
X0001605200Y0003094468D01*
X0001559645Y0003209496D02*
X0001559645Y0003140023D01*
X0001441960Y0003327181D02*
X0001559645Y0003209496D01*
X0001268960Y0003327181D02*
X0001441960Y0003327181D01*
X0001234645Y0003361496D02*
X0001268960Y0003327181D01*
X0002109645Y0003174842D02*
X0002109645Y0003106480D01*
X0001234645Y0003429858D02*
X0001234645Y0003361496D01*
X0001792976Y0003106480D02*
X0002009645Y0003106480D01*
X0001759645Y0003139811D02*
X0001792976Y0003106480D01*
X0001759645Y0003211511D02*
X0001759645Y0003139811D01*
X0001621677Y0003349480D02*
X0001759645Y0003211511D01*
X0001346661Y0003349480D02*
X0001621677Y0003349480D01*
X0001334645Y0003361496D02*
X0001346661Y0003349480D01*
X0001334645Y0003429858D02*
X0001334645Y0003361496D01*
X0002009645Y0003174842D02*
X0002009645Y0003106480D01*
X0001836913Y0003243204D02*
X0001909645Y0003243204D01*
X0001680393Y0003399724D02*
X0001836913Y0003243204D01*
X0001680393Y0003468673D02*
X0001680393Y0003399724D01*
X0001650846Y0003498220D02*
X0001680393Y0003468673D01*
X0001434645Y0003498220D02*
X0001650846Y0003498220D01*
X0001434645Y0003429858D02*
X0001434645Y0003498220D01*
X0001909645Y0003174842D02*
X0001909645Y0003243204D01*
X0001691354Y0003361496D02*
X0001809645Y0003243204D01*
X0001534645Y0003361496D02*
X0001691354Y0003361496D01*
X0001534645Y0003429858D02*
X0001534645Y0003361496D01*
X0001809645Y0003174842D02*
X0001809645Y0003243204D01*
M02*