%
M48
METRIC,000.000
T01C0.76
T02C0.81
T03C1.00
T10C0.50
%
T01
X045419Y013406
X045419Y010866
X045419Y008326
X053039Y013406
X053039Y010866
X053039Y008326
X045419Y059407
X045419Y056867
X045419Y054327
X053039Y059407
X053039Y056867
X053039Y054327
T02
X082795Y015718
X082795Y005558
X075175Y015718
X075175Y005558
X061929Y012771
X061929Y010232
X061929Y007692
X078985Y015718
X078985Y005558
X071365Y015718
X071365Y005558
X067555Y015718
X067555Y005558
X082795Y061718
X082795Y051558
X075175Y061718
X075175Y051558
X061929Y058772
X061929Y056232
X061929Y053692
X078985Y061718
X078985Y051558
X071365Y061718
X071365Y051558
X067555Y061718
X067555Y051558
T03
X031725Y013177
X031725Y010637
X031725Y008096
X034265Y013177
X034265Y010637
X034265Y008096
X030725Y034641
X030725Y019655
X033265Y034641
X033265Y019655
X035805Y034641
X035805Y019655
X038345Y034641
X038345Y019655
X040885Y034641
X040885Y019655
X043425Y034641
X043425Y019655
X045965Y034641
X045965Y019655
X048505Y034641
X048505Y019655
X051045Y034641
X051045Y019655
X053585Y034641
X053585Y019655
X056125Y034641
X056125Y019655
X058665Y034641
X058665Y019655
X061205Y034641
X061205Y019655
X063745Y034641
X063745Y019655
X066285Y034641
X066285Y019655
X068825Y034641
X068825Y019655
X071365Y034641
X071365Y019655
X073905Y034641
X073905Y019655
X076445Y034641
X076445Y019655
X078985Y034641
X078985Y019655
X018660Y041117
X018660Y025878
X021200Y041117
X021200Y025878
X023740Y041117
X023740Y025878
X026280Y041117
X026280Y025878
X028820Y041117
X028820Y025878
X031360Y041117
X031360Y025878
X033900Y041117
X033900Y025878
X036440Y041117
X036440Y025878
X038980Y041117
X038980Y025878
X041520Y041117
X041520Y025878
X044060Y041117
X044060Y025878
X046600Y041117
X046600Y025878
X049140Y041117
X049140Y025878
X051680Y041117
X051680Y025878
X054220Y041117
X054220Y025878
X056760Y041117
X056760Y025878
X059300Y041117
X059300Y025878
X061840Y041117
X061840Y025878
X064379Y041117
X064379Y025878
X066920Y041117
X066920Y025878
X069460Y041117
X069460Y025878
X072000Y041117
X072000Y025878
X074540Y041117
X074540Y025878
X077080Y041117
X077080Y025878
X031725Y059178
X031725Y056638
X031725Y054098
X034265Y059178
X034265Y056638
X034265Y054098
X030725Y080640
X030725Y065655
X033265Y080640
X033265Y065655
X035805Y080640
X035805Y065655
X038345Y080640
X038345Y065655
X040885Y080640
X040885Y065655
X043425Y080640
X043425Y065655
X045965Y080640
X045965Y065655
X048505Y080640
X048505Y065655
X051045Y080640
X051045Y065655
X053585Y080640
X053585Y065655
X056125Y080640
X056125Y065655
X058665Y080640
X058665Y065655
X061205Y080640
X061205Y065655
X063745Y080640
X063745Y065655
X066285Y080640
X066285Y065655
X068825Y080640
X068825Y065655
X071365Y080640
X071365Y065655
X073905Y080640
X073905Y065655
X076445Y080640
X076445Y065655
X078985Y080640
X078985Y065655
X018660Y087118
X018660Y071878
X021200Y087118
X021200Y071878
X023740Y087118
X023740Y071878
X026280Y087118
X026280Y071878
X028820Y087118
X028820Y071878
X031360Y087118
X031360Y071878
X033900Y087118
X033900Y071878
X036440Y087118
X036440Y071878
X038980Y087118
X038980Y071878
X041520Y087118
X041520Y071878
X044060Y087118
X044060Y071878
X046600Y087118
X046600Y071878
X049140Y087118
X049140Y071878
X051680Y087118
X051680Y071878
X054220Y087118
X054220Y071878
X056760Y087118
X056760Y071878
X059300Y087118
X059300Y071878
X061840Y087118
X061840Y071878
X064379Y087118
X064379Y071878
X066920Y087118
X066920Y071878
X069460Y087118
X069460Y071878
X072000Y087118
X072000Y071878
X074540Y087118
X074540Y071878
X077080Y087118
X077080Y071878
T10
X039318Y046423
X038318Y046423
X037318Y046423
X036318Y046423
X035318Y046423
X034318Y046423
X034777Y048869
X035777Y048869
X036777Y048869
X037777Y048869
X038777Y048869
X060318Y046423
X059318Y046423
X058318Y046423
X057318Y046423
X056318Y046423
X055318Y046423
X055777Y048869
X056777Y048869
X057777Y048869
X058777Y048869
X059777Y048869
X082318Y046423
X081318Y046423
X080318Y046423
X079318Y046423
X078318Y046423
X077318Y046423
X077777Y048869
X078777Y048869
X079777Y048869
X080777Y048869
X081777Y048869
M30