%MOIN*%
%OFA0B0*%
%FSLAX46Y46*%
%IPPOS*%
%LPD*%
%ADD10C,0.060000000000000005*%
%ADD11O,0.10400000000000001X0.052000000000000005*%
%ADD12C,0.052000000000000005*%
%ADD13C,0.066*%
%ADD14O,0.0593X0.1187*%
%ADD25C,0.060000000000000005*%
%ADD26O,0.10400000000000001X0.052000000000000005*%
%ADD27C,0.052000000000000005*%
%ADD28C,0.066*%
%ADD29O,0.0593X0.1187*%
%LPD*%
D10*
X-0000196850Y0002322834D02*
X0001788149Y0000427834D03*
X0001788149Y0000527834D03*
X0001788149Y0000327834D03*
X0002088149Y0000327834D03*
X0002088149Y0000427834D03*
X0002088149Y0000527834D03*
D11*
X0002438149Y0000402834D03*
X0002438149Y0000502834D03*
X0002438149Y0000302834D03*
D12*
X0003259645Y0000618818D03*
X0003259645Y0000218818D03*
X0003109645Y0000618818D03*
X0003109645Y0000218818D03*
X0002959645Y0000618818D03*
X0002959645Y0000218818D03*
X0002809645Y0000218818D03*
X0002809645Y0000618818D03*
X0002659645Y0000618818D03*
X0002659645Y0000218818D03*
D13*
X0001249015Y0000318818D03*
X0001249015Y0000418818D03*
X0001249015Y0000518818D03*
X0001349015Y0000318818D03*
X0001349015Y0000418818D03*
X0001349015Y0000518818D03*
D14*
X0001209645Y0000773818D03*
X0001309645Y0000773818D03*
X0001409645Y0000773818D03*
X0001509645Y0000773818D03*
X0001609645Y0000773818D03*
X0001709645Y0000773818D03*
X0001809645Y0000773818D03*
X0001909645Y0000773818D03*
X0002009645Y0000773818D03*
X0002109645Y0000773818D03*
X0002209645Y0000773818D03*
X0002309645Y0000773818D03*
X0002409645Y0000773818D03*
X0002509645Y0000773818D03*
X0002609645Y0000773818D03*
X0002709645Y0000773818D03*
X0002809645Y0000773818D03*
X0002909645Y0000773818D03*
X0003009645Y0000773818D03*
X0003109645Y0000773818D03*
X0003109645Y0001363818D03*
X0003009645Y0001363818D03*
X0002909645Y0001363818D03*
X0002809645Y0001363818D03*
X0002709645Y0001363818D03*
X0002609645Y0001363818D03*
X0002509645Y0001363818D03*
X0002409645Y0001363818D03*
X0002309645Y0001363818D03*
X0002209645Y0001363818D03*
X0002109645Y0001363818D03*
X0002009645Y0001363818D03*
X0001909645Y0001363818D03*
X0001809645Y0001363818D03*
X0001709645Y0001363818D03*
X0001609645Y0001363818D03*
X0001509645Y0001363818D03*
X0001409645Y0001363818D03*
X0001309645Y0001363818D03*
X0001209645Y0001363818D03*
X0000734645Y0001018834D03*
X0000834645Y0001018834D03*
X0000934645Y0001018834D03*
X0001034645Y0001018834D03*
X0001134645Y0001018834D03*
X0001234645Y0001018834D03*
X0001334645Y0001018834D03*
X0001434645Y0001018834D03*
X0001534645Y0001018834D03*
X0001634645Y0001018834D03*
X0001734645Y0001018834D03*
X0001834645Y0001018834D03*
X0001934645Y0001018834D03*
X0002034645Y0001018834D03*
X0002134645Y0001018834D03*
X0002234645Y0001018834D03*
X0002334645Y0001018834D03*
X0002434645Y0001018834D03*
X0002534645Y0001018834D03*
X0002634645Y0001018834D03*
X0002734645Y0001018834D03*
X0002834645Y0001018834D03*
X0002934645Y0001018834D03*
X0003034645Y0001018834D03*
X0003034645Y0001618834D03*
X0002934645Y0001618834D03*
X0002834645Y0001618834D03*
X0002734645Y0001618834D03*
X0002634645Y0001618834D03*
X0002534645Y0001618834D03*
X0002434645Y0001618834D03*
X0002334645Y0001618834D03*
X0002234645Y0001618834D03*
X0002134645Y0001618834D03*
X0002034645Y0001618834D03*
X0001934645Y0001618834D03*
X0001834645Y0001618834D03*
X0001734645Y0001618834D03*
X0001634645Y0001618834D03*
X0001534645Y0001618834D03*
X0001434645Y0001618834D03*
X0001334645Y0001618834D03*
X0001234645Y0001618834D03*
X0001134645Y0001618834D03*
X0001034645Y0001618834D03*
X0000934645Y0001618834D03*
X0000834645Y0001618834D03*
X0000734645Y0001618834D03*
G04 next file*
%LPD*%
G04 #@! TF.GenerationSoftware,KiCad,Pcbnew,(5.1.2)-2*
G04 #@! TF.CreationDate,2019-08-03T14:41:18-04:00*
G04 #@! TF.ProjectId,27C160_Adapter,32374331-3630-45f4-9164-61707465722e,rev?*
G04 #@! TF.SameCoordinates,Original*
G04 #@! TF.FileFunction,Soldermask,Top*
G04 #@! TF.FilePolarity,Negative*
G04 Gerber Fmt 4.6, Leading zero omitted, Abs format (unit mm)*
G04 Created by KiCad (PCBNEW (5.1.2)-2) date 2019-08-03 14:41:18*
G04 APERTURE LIST*
G04 APERTURE END LIST*
D25*
X-0000196850Y0004133858D02*
X0001788149Y0002238858D03*
X0001788149Y0002338858D03*
X0001788149Y0002138858D03*
X0002088149Y0002138858D03*
X0002088149Y0002238858D03*
X0002088149Y0002338858D03*
D26*
X0002438149Y0002213858D03*
X0002438149Y0002313858D03*
X0002438149Y0002113858D03*
D27*
X0003259645Y0002429842D03*
X0003259645Y0002029842D03*
X0003109645Y0002429842D03*
X0003109645Y0002029842D03*
X0002959645Y0002429842D03*
X0002959645Y0002029842D03*
X0002809645Y0002029842D03*
X0002809645Y0002429842D03*
X0002659645Y0002429842D03*
X0002659645Y0002029842D03*
D28*
X0001249015Y0002129842D03*
X0001249015Y0002229842D03*
X0001249015Y0002329842D03*
X0001349015Y0002129842D03*
X0001349015Y0002229842D03*
X0001349015Y0002329842D03*
D29*
X0001209645Y0002584842D03*
X0001309645Y0002584842D03*
X0001409645Y0002584842D03*
X0001509645Y0002584842D03*
X0001609645Y0002584842D03*
X0001709645Y0002584842D03*
X0001809645Y0002584842D03*
X0001909645Y0002584842D03*
X0002009645Y0002584842D03*
X0002109645Y0002584842D03*
X0002209645Y0002584842D03*
X0002309645Y0002584842D03*
X0002409645Y0002584842D03*
X0002509645Y0002584842D03*
X0002609645Y0002584842D03*
X0002709645Y0002584842D03*
X0002809645Y0002584842D03*
X0002909645Y0002584842D03*
X0003009645Y0002584842D03*
X0003109645Y0002584842D03*
X0003109645Y0003174842D03*
X0003009645Y0003174842D03*
X0002909645Y0003174842D03*
X0002809645Y0003174842D03*
X0002709645Y0003174842D03*
X0002609645Y0003174842D03*
X0002509645Y0003174842D03*
X0002409645Y0003174842D03*
X0002309645Y0003174842D03*
X0002209645Y0003174842D03*
X0002109645Y0003174842D03*
X0002009645Y0003174842D03*
X0001909645Y0003174842D03*
X0001809645Y0003174842D03*
X0001709645Y0003174842D03*
X0001609645Y0003174842D03*
X0001509645Y0003174842D03*
X0001409645Y0003174842D03*
X0001309645Y0003174842D03*
X0001209645Y0003174842D03*
X0000734645Y0002829858D03*
X0000834645Y0002829858D03*
X0000934645Y0002829858D03*
X0001034645Y0002829858D03*
X0001134645Y0002829858D03*
X0001234645Y0002829858D03*
X0001334645Y0002829858D03*
X0001434645Y0002829858D03*
X0001534645Y0002829858D03*
X0001634645Y0002829858D03*
X0001734645Y0002829858D03*
X0001834645Y0002829858D03*
X0001934645Y0002829858D03*
X0002034645Y0002829858D03*
X0002134645Y0002829858D03*
X0002234645Y0002829858D03*
X0002334645Y0002829858D03*
X0002434645Y0002829858D03*
X0002534645Y0002829858D03*
X0002634645Y0002829858D03*
X0002734645Y0002829858D03*
X0002834645Y0002829858D03*
X0002934645Y0002829858D03*
X0003034645Y0002829858D03*
X0003034645Y0003429858D03*
X0002934645Y0003429858D03*
X0002834645Y0003429858D03*
X0002734645Y0003429858D03*
X0002634645Y0003429858D03*
X0002534645Y0003429858D03*
X0002434645Y0003429858D03*
X0002334645Y0003429858D03*
X0002234645Y0003429858D03*
X0002134645Y0003429858D03*
X0002034645Y0003429858D03*
X0001934645Y0003429858D03*
X0001834645Y0003429858D03*
X0001734645Y0003429858D03*
X0001634645Y0003429858D03*
X0001534645Y0003429858D03*
X0001434645Y0003429858D03*
X0001334645Y0003429858D03*
X0001234645Y0003429858D03*
X0001134645Y0003429858D03*
X0001034645Y0003429858D03*
X0000934645Y0003429858D03*
X0000834645Y0003429858D03*
X0000734645Y0003429858D03*
M02*