%MOIN*%
%OFA0B0*%
%FSLAX46Y46*%
%IPPOS*%
%LPD*%
%ADD10C,0.060000000000000005*%
%ADD11O,0.10400000000000001X0.052000000000000005*%
%ADD12C,0.052000000000000005*%
%ADD13C,0.066*%
%ADD14O,0.0593X0.1187*%
%ADD15C,0.006000000000000001*%
%ADD26C,0.060000000000000005*%
%ADD27O,0.10400000000000001X0.052000000000000005*%
%ADD28C,0.052000000000000005*%
%ADD29C,0.066*%
%ADD30O,0.0593X0.1187*%
%ADD31C,0.006000000000000001*%
%LPD*%
D10*
X-0000196850Y0002322834D02*
X0001788149Y0000427834D03*
X0001788149Y0000527834D03*
X0001788149Y0000327834D03*
X0002088149Y0000327834D03*
X0002088149Y0000427834D03*
X0002088149Y0000527834D03*
D11*
X0002438149Y0000402834D03*
X0002438149Y0000502834D03*
X0002438149Y0000302834D03*
D12*
X0003259645Y0000618818D03*
X0003259645Y0000218818D03*
X0003109645Y0000618818D03*
X0003109645Y0000218818D03*
X0002959645Y0000618818D03*
X0002959645Y0000218818D03*
X0002809645Y0000218818D03*
X0002809645Y0000618818D03*
X0002659645Y0000618818D03*
X0002659645Y0000218818D03*
D13*
X0001249015Y0000318818D03*
X0001249015Y0000418818D03*
X0001249015Y0000518818D03*
X0001349015Y0000318818D03*
X0001349015Y0000418818D03*
X0001349015Y0000518818D03*
D14*
X0001209645Y0000773818D03*
X0001309645Y0000773818D03*
X0001409645Y0000773818D03*
X0001509645Y0000773818D03*
X0001609645Y0000773818D03*
X0001709645Y0000773818D03*
X0001809645Y0000773818D03*
X0001909645Y0000773818D03*
X0002009645Y0000773818D03*
X0002109645Y0000773818D03*
X0002209645Y0000773818D03*
X0002309645Y0000773818D03*
X0002409645Y0000773818D03*
X0002509645Y0000773818D03*
X0002609645Y0000773818D03*
X0002709645Y0000773818D03*
X0002809645Y0000773818D03*
X0002909645Y0000773818D03*
X0003009645Y0000773818D03*
X0003109645Y0000773818D03*
X0003109645Y0001363818D03*
X0003009645Y0001363818D03*
X0002909645Y0001363818D03*
X0002809645Y0001363818D03*
X0002709645Y0001363818D03*
X0002609645Y0001363818D03*
X0002509645Y0001363818D03*
X0002409645Y0001363818D03*
X0002309645Y0001363818D03*
X0002209645Y0001363818D03*
X0002109645Y0001363818D03*
X0002009645Y0001363818D03*
X0001909645Y0001363818D03*
X0001809645Y0001363818D03*
X0001709645Y0001363818D03*
X0001609645Y0001363818D03*
X0001509645Y0001363818D03*
X0001409645Y0001363818D03*
X0001309645Y0001363818D03*
X0001209645Y0001363818D03*
X0000734645Y0001018834D03*
X0000834645Y0001018834D03*
X0000934645Y0001018834D03*
X0001034645Y0001018834D03*
X0001134645Y0001018834D03*
X0001234645Y0001018834D03*
X0001334645Y0001018834D03*
X0001434645Y0001018834D03*
X0001534645Y0001018834D03*
X0001634645Y0001018834D03*
X0001734645Y0001018834D03*
X0001834645Y0001018834D03*
X0001934645Y0001018834D03*
X0002034645Y0001018834D03*
X0002134645Y0001018834D03*
X0002234645Y0001018834D03*
X0002334645Y0001018834D03*
X0002434645Y0001018834D03*
X0002534645Y0001018834D03*
X0002634645Y0001018834D03*
X0002734645Y0001018834D03*
X0002834645Y0001018834D03*
X0002934645Y0001018834D03*
X0003034645Y0001018834D03*
X0003034645Y0001618834D03*
X0002934645Y0001618834D03*
X0002834645Y0001618834D03*
X0002734645Y0001618834D03*
X0002634645Y0001618834D03*
X0002534645Y0001618834D03*
X0002434645Y0001618834D03*
X0002334645Y0001618834D03*
X0002234645Y0001618834D03*
X0002134645Y0001618834D03*
X0002034645Y0001618834D03*
X0001934645Y0001618834D03*
X0001834645Y0001618834D03*
X0001734645Y0001618834D03*
X0001634645Y0001618834D03*
X0001534645Y0001618834D03*
X0001434645Y0001618834D03*
X0001334645Y0001618834D03*
X0001234645Y0001618834D03*
X0001134645Y0001618834D03*
X0001034645Y0001618834D03*
X0000934645Y0001618834D03*
X0000834645Y0001618834D03*
X0000734645Y0001618834D03*
D15*
X0002134645Y0001018834D02*
X0002134645Y0001087196D01*
X0002209645Y0000773818D02*
X0002209645Y0000705456D01*
X0002348322Y0000680141D02*
X0002809645Y0000218818D01*
X0002234960Y0000680141D02*
X0002348322Y0000680141D01*
X0002209645Y0000705456D02*
X0002234960Y0000680141D01*
X0002209645Y0001162196D02*
X0002209645Y0001363818D01*
X0002134645Y0001087196D02*
X0002209645Y0001162196D01*
X0002955393Y0001471220D02*
X0003034645Y0001550472D01*
X0002955393Y0001325177D02*
X0002955393Y0001471220D01*
X0002694901Y0001064685D02*
X0002955393Y0001325177D01*
X0002694901Y0000877440D02*
X0002694901Y0001064685D01*
X0002659645Y0000842185D02*
X0002694901Y0000877440D01*
X0002659645Y0000618818D02*
X0002659645Y0000842185D01*
X0003034645Y0001618834D02*
X0003034645Y0001550472D01*
X0002350559Y0000276255D02*
X0002377137Y0000302834D01*
X0001291578Y0000276255D02*
X0002350559Y0000276255D01*
X0001249015Y0000318818D02*
X0001291578Y0000276255D01*
X0002438149Y0000302834D02*
X0002377137Y0000302834D01*
X0002510641Y0000367822D02*
X0002438149Y0000367822D01*
X0002659645Y0000218818D02*
X0002510641Y0000367822D01*
X0002438149Y0000402834D02*
X0002438149Y0000367822D01*
X0002040889Y0000375094D02*
X0002088149Y0000327834D01*
X0001229657Y0000375094D02*
X0002040889Y0000375094D01*
X0001206984Y0000397767D02*
X0001229657Y0000375094D01*
X0001206984Y0000548795D02*
X0001206984Y0000397767D01*
X0001248724Y0000590535D02*
X0001206984Y0000548795D01*
X0001248724Y0000819641D02*
X0001248724Y0000590535D01*
X0001073307Y0000995059D02*
X0001248724Y0000819641D01*
X0001073307Y0001511811D02*
X0001073307Y0000995059D01*
X0001034645Y0001550472D02*
X0001073307Y0001511811D01*
X0001034645Y0001618834D02*
X0001034645Y0001550472D01*
X0001291618Y0000461421D02*
X0001249015Y0000418818D01*
X0001291618Y0000591543D02*
X0001291618Y0000461421D01*
X0001269429Y0000613732D02*
X0001291618Y0000591543D01*
X0001269429Y0000818247D02*
X0001269429Y0000613732D01*
X0001302240Y0000851059D02*
X0001269429Y0000818247D01*
X0001351409Y0000851059D02*
X0001302240Y0000851059D01*
X0001484645Y0000984295D02*
X0001351409Y0000851059D01*
X0001484645Y0001053917D02*
X0001484645Y0000984295D01*
X0001522996Y0001092267D02*
X0001484645Y0001053917D01*
X0001623692Y0001092267D02*
X0001522996Y0001092267D01*
X0001859645Y0001328220D02*
X0001623692Y0001092267D01*
X0001859645Y0001398464D02*
X0001859645Y0001328220D01*
X0002011653Y0001550472D02*
X0001859645Y0001398464D01*
X0002034645Y0001550472D02*
X0002011653Y0001550472D01*
X0002034645Y0001618834D02*
X0002034645Y0001550472D01*
X0002057996Y0000842185D02*
X0002234645Y0001018834D01*
X0001893625Y0000842185D02*
X0002057996Y0000842185D01*
X0001859645Y0000808204D02*
X0001893625Y0000842185D01*
X0001859645Y0000736917D02*
X0001859645Y0000808204D01*
X0001541547Y0000418818D02*
X0001859645Y0000736917D01*
X0001349015Y0000418818D02*
X0001541547Y0000418818D01*
X0001527933Y0000705456D02*
X0001309645Y0000705456D01*
X0001559645Y0000737169D02*
X0001527933Y0000705456D01*
X0001559645Y0000810055D02*
X0001559645Y0000737169D01*
X0001599291Y0000849700D02*
X0001559645Y0000810055D01*
X0001865511Y0000849700D02*
X0001599291Y0000849700D01*
X0001966283Y0000950472D02*
X0001865511Y0000849700D01*
X0002034645Y0000950472D02*
X0001966283Y0000950472D01*
X0002034645Y0001018834D02*
X0002034645Y0000950472D01*
X0001309645Y0000773818D02*
X0001309645Y0000705456D01*
X0001544968Y0000842181D02*
X0001409645Y0000842181D01*
X0001684645Y0000981858D02*
X0001544968Y0000842181D01*
X0001684645Y0001053496D02*
X0001684645Y0000981858D01*
X0001870704Y0001239555D02*
X0001684645Y0001053496D01*
X0001972476Y0001239555D02*
X0001870704Y0001239555D01*
X0002059645Y0001326724D02*
X0001972476Y0001239555D01*
X0002059645Y0001398464D02*
X0002059645Y0001326724D01*
X0002211653Y0001550472D02*
X0002059645Y0001398464D01*
X0002234645Y0001550472D02*
X0002211653Y0001550472D01*
X0002234645Y0001618834D02*
X0002234645Y0001550472D01*
X0001409645Y0000773818D02*
X0001409645Y0000842181D01*
X0001509645Y0000777153D02*
X0001509645Y0000773818D01*
X0001628929Y0000896437D02*
X0001509645Y0000777153D01*
X0001698618Y0000896437D02*
X0001628929Y0000896437D01*
X0001784645Y0000982464D02*
X0001698618Y0000896437D01*
X0001784645Y0001053578D02*
X0001784645Y0000982464D01*
X0001831940Y0001100874D02*
X0001784645Y0001053578D01*
X0001932299Y0001100874D02*
X0001831940Y0001100874D01*
X0002159645Y0001328220D02*
X0001932299Y0001100874D01*
X0002159645Y0001401220D02*
X0002159645Y0001328220D01*
X0002308897Y0001550472D02*
X0002159645Y0001401220D01*
X0002434645Y0001550472D02*
X0002308897Y0001550472D01*
X0002434645Y0001618834D02*
X0002434645Y0001550472D01*
X0002217937Y0000950472D02*
X0002109645Y0000842181D01*
X0002434645Y0000950472D02*
X0002217937Y0000950472D01*
X0002434645Y0001018834D02*
X0002434645Y0000950472D01*
X0002109645Y0000773818D02*
X0002109645Y0000842181D01*
X0002345480Y0000842181D02*
X0002309645Y0000842181D01*
X0002475421Y0000972122D02*
X0002345480Y0000842181D01*
X0002475421Y0001194062D02*
X0002475421Y0000972122D01*
X0002469724Y0001199759D02*
X0002475421Y0001194062D01*
X0002469724Y0001456240D02*
X0002469724Y0001199759D01*
X0002473988Y0001460503D02*
X0002469724Y0001456240D01*
X0002473988Y0001664653D02*
X0002473988Y0001460503D01*
X0002451444Y0001687196D02*
X0002473988Y0001664653D01*
X0002334645Y0001687196D02*
X0002451444Y0001687196D01*
X0002334645Y0001618834D02*
X0002334645Y0001687196D01*
X0002309645Y0000773818D02*
X0002309645Y0000842181D01*
X0002493137Y0000925673D02*
X0002409645Y0000842181D01*
X0002493137Y0001122078D02*
X0002493137Y0000925673D01*
X0002550271Y0001179212D02*
X0002493137Y0001122078D01*
X0002550271Y0001534846D02*
X0002550271Y0001179212D01*
X0002534645Y0001550472D02*
X0002550271Y0001534846D01*
X0002534645Y0001618834D02*
X0002534645Y0001550472D01*
X0002409645Y0000773818D02*
X0002409645Y0000842181D01*
X0002734645Y0001618834D02*
X0002734645Y0001550472D01*
X0002509645Y0000773818D02*
X0002509645Y0000842181D01*
X0002588897Y0000921433D02*
X0002509645Y0000842181D01*
X0002588897Y0001159448D02*
X0002588897Y0000921433D01*
X0002659645Y0001230196D02*
X0002588897Y0001159448D01*
X0002659645Y0001475472D02*
X0002659645Y0001230196D01*
X0002734645Y0001550472D02*
X0002659645Y0001475472D01*
X0002934645Y0001618834D02*
X0002934645Y0001550472D01*
X0002609645Y0000773818D02*
X0002609645Y0000842181D01*
X0002676889Y0000909425D02*
X0002609645Y0000842181D01*
X0002676889Y0001072055D02*
X0002676889Y0000909425D01*
X0002859645Y0001254811D02*
X0002676889Y0001072055D01*
X0002859645Y0001475472D02*
X0002859645Y0001254811D01*
X0002934645Y0001550472D02*
X0002859645Y0001475472D01*
X0002855393Y0000871220D02*
X0002934645Y0000950472D01*
X0002855393Y0000734996D02*
X0002855393Y0000871220D01*
X0002825854Y0000705456D02*
X0002855393Y0000734996D01*
X0002709645Y0000705456D02*
X0002825854Y0000705456D01*
X0002709645Y0000773818D02*
X0002709645Y0000705456D01*
X0002934645Y0001018834D02*
X0002934645Y0000950472D01*
X0002734645Y0000917181D02*
X0002809645Y0000842181D01*
X0002734645Y0001018834D02*
X0002734645Y0000917181D01*
X0002809645Y0000773818D02*
X0002809645Y0000842181D01*
X0001709645Y0001475472D02*
X0001709645Y0001363818D01*
X0001634645Y0001550472D02*
X0001709645Y0001475472D01*
X0001634645Y0001618834D02*
X0001634645Y0001550472D01*
X0001726039Y0001295456D02*
X0001609645Y0001295456D01*
X0001748972Y0001318389D02*
X0001726039Y0001295456D01*
X0001748972Y0001536145D02*
X0001748972Y0001318389D01*
X0001734645Y0001550472D02*
X0001748972Y0001536145D01*
X0001734645Y0001618834D02*
X0001734645Y0001550472D01*
X0001609645Y0001363818D02*
X0001609645Y0001295456D01*
X0001595980Y0001518515D02*
X0001509645Y0001432181D01*
X0001595980Y0001664767D02*
X0001595980Y0001518515D01*
X0001618409Y0001687196D02*
X0001595980Y0001664767D01*
X0001834645Y0001687196D02*
X0001618409Y0001687196D01*
X0001834645Y0001618834D02*
X0001834645Y0001687196D01*
X0001509645Y0001363818D02*
X0001509645Y0001432181D01*
X0001434161Y0001432181D02*
X0001409645Y0001432181D01*
X0001582192Y0001580212D02*
X0001434161Y0001432181D01*
X0001582192Y0001667976D02*
X0001582192Y0001580212D01*
X0001614444Y0001700228D02*
X0001582192Y0001667976D01*
X0001921614Y0001700228D02*
X0001614444Y0001700228D01*
X0001934645Y0001687196D02*
X0001921614Y0001700228D01*
X0001934645Y0001618834D02*
X0001934645Y0001687196D01*
X0001409645Y0001363818D02*
X0001409645Y0001432181D01*
X0001309645Y0001262196D02*
X0001309645Y0001363818D01*
X0001134645Y0001087196D02*
X0001309645Y0001262196D01*
X0001134645Y0001018834D02*
X0001134645Y0001087196D01*
G04 next file*
%LPD*%
G04 #@! TF.GenerationSoftware,KiCad,Pcbnew,(5.1.2)-2*
G04 #@! TF.CreationDate,2019-08-03T14:41:18-04:00*
G04 #@! TF.ProjectId,27C160_Adapter,32374331-3630-45f4-9164-61707465722e,rev?*
G04 #@! TF.SameCoordinates,Original*
G04 #@! TF.FileFunction,Copper,L2,Bot*
G04 #@! TF.FilePolarity,Positive*
G04 Gerber Fmt 4.6, Leading zero omitted, Abs format (unit mm)*
G04 Created by KiCad (PCBNEW (5.1.2)-2) date 2019-08-03 14:41:18*
G04 APERTURE LIST*
G04 APERTURE END LIST*
D26*
X-0000196850Y0004133858D02*
X0001788149Y0002238858D03*
X0001788149Y0002338858D03*
X0001788149Y0002138858D03*
X0002088149Y0002138858D03*
X0002088149Y0002238858D03*
X0002088149Y0002338858D03*
D27*
X0002438149Y0002213858D03*
X0002438149Y0002313858D03*
X0002438149Y0002113858D03*
D28*
X0003259645Y0002429842D03*
X0003259645Y0002029842D03*
X0003109645Y0002429842D03*
X0003109645Y0002029842D03*
X0002959645Y0002429842D03*
X0002959645Y0002029842D03*
X0002809645Y0002029842D03*
X0002809645Y0002429842D03*
X0002659645Y0002429842D03*
X0002659645Y0002029842D03*
D29*
X0001249015Y0002129842D03*
X0001249015Y0002229842D03*
X0001249015Y0002329842D03*
X0001349015Y0002129842D03*
X0001349015Y0002229842D03*
X0001349015Y0002329842D03*
D30*
X0001209645Y0002584842D03*
X0001309645Y0002584842D03*
X0001409645Y0002584842D03*
X0001509645Y0002584842D03*
X0001609645Y0002584842D03*
X0001709645Y0002584842D03*
X0001809645Y0002584842D03*
X0001909645Y0002584842D03*
X0002009645Y0002584842D03*
X0002109645Y0002584842D03*
X0002209645Y0002584842D03*
X0002309645Y0002584842D03*
X0002409645Y0002584842D03*
X0002509645Y0002584842D03*
X0002609645Y0002584842D03*
X0002709645Y0002584842D03*
X0002809645Y0002584842D03*
X0002909645Y0002584842D03*
X0003009645Y0002584842D03*
X0003109645Y0002584842D03*
X0003109645Y0003174842D03*
X0003009645Y0003174842D03*
X0002909645Y0003174842D03*
X0002809645Y0003174842D03*
X0002709645Y0003174842D03*
X0002609645Y0003174842D03*
X0002509645Y0003174842D03*
X0002409645Y0003174842D03*
X0002309645Y0003174842D03*
X0002209645Y0003174842D03*
X0002109645Y0003174842D03*
X0002009645Y0003174842D03*
X0001909645Y0003174842D03*
X0001809645Y0003174842D03*
X0001709645Y0003174842D03*
X0001609645Y0003174842D03*
X0001509645Y0003174842D03*
X0001409645Y0003174842D03*
X0001309645Y0003174842D03*
X0001209645Y0003174842D03*
X0000734645Y0002829858D03*
X0000834645Y0002829858D03*
X0000934645Y0002829858D03*
X0001034645Y0002829858D03*
X0001134645Y0002829858D03*
X0001234645Y0002829858D03*
X0001334645Y0002829858D03*
X0001434645Y0002829858D03*
X0001534645Y0002829858D03*
X0001634645Y0002829858D03*
X0001734645Y0002829858D03*
X0001834645Y0002829858D03*
X0001934645Y0002829858D03*
X0002034645Y0002829858D03*
X0002134645Y0002829858D03*
X0002234645Y0002829858D03*
X0002334645Y0002829858D03*
X0002434645Y0002829858D03*
X0002534645Y0002829858D03*
X0002634645Y0002829858D03*
X0002734645Y0002829858D03*
X0002834645Y0002829858D03*
X0002934645Y0002829858D03*
X0003034645Y0002829858D03*
X0003034645Y0003429858D03*
X0002934645Y0003429858D03*
X0002834645Y0003429858D03*
X0002734645Y0003429858D03*
X0002634645Y0003429858D03*
X0002534645Y0003429858D03*
X0002434645Y0003429858D03*
X0002334645Y0003429858D03*
X0002234645Y0003429858D03*
X0002134645Y0003429858D03*
X0002034645Y0003429858D03*
X0001934645Y0003429858D03*
X0001834645Y0003429858D03*
X0001734645Y0003429858D03*
X0001634645Y0003429858D03*
X0001534645Y0003429858D03*
X0001434645Y0003429858D03*
X0001334645Y0003429858D03*
X0001234645Y0003429858D03*
X0001134645Y0003429858D03*
X0001034645Y0003429858D03*
X0000934645Y0003429858D03*
X0000834645Y0003429858D03*
X0000734645Y0003429858D03*
D31*
X0002134645Y0002829858D02*
X0002134645Y0002898220D01*
X0002209645Y0002584842D02*
X0002209645Y0002516480D01*
X0002348322Y0002491165D02*
X0002809645Y0002029842D01*
X0002234960Y0002491165D02*
X0002348322Y0002491165D01*
X0002209645Y0002516480D02*
X0002234960Y0002491165D01*
X0002209645Y0002973220D02*
X0002209645Y0003174842D01*
X0002134645Y0002898220D02*
X0002209645Y0002973220D01*
X0002955393Y0003282244D02*
X0003034645Y0003361496D01*
X0002955393Y0003136200D02*
X0002955393Y0003282244D01*
X0002694901Y0002875708D02*
X0002955393Y0003136200D01*
X0002694901Y0002688464D02*
X0002694901Y0002875708D01*
X0002659645Y0002653208D02*
X0002694901Y0002688464D01*
X0002659645Y0002429842D02*
X0002659645Y0002653208D01*
X0003034645Y0003429858D02*
X0003034645Y0003361496D01*
X0002350559Y0002087279D02*
X0002377137Y0002113858D01*
X0001291578Y0002087279D02*
X0002350559Y0002087279D01*
X0001249015Y0002129842D02*
X0001291578Y0002087279D01*
X0002438149Y0002113858D02*
X0002377137Y0002113858D01*
X0002510641Y0002178846D02*
X0002438149Y0002178846D01*
X0002659645Y0002029842D02*
X0002510641Y0002178846D01*
X0002438149Y0002213858D02*
X0002438149Y0002178846D01*
X0002040889Y0002186118D02*
X0002088149Y0002138858D01*
X0001229657Y0002186118D02*
X0002040889Y0002186118D01*
X0001206984Y0002208791D02*
X0001229657Y0002186118D01*
X0001206984Y0002359818D02*
X0001206984Y0002208791D01*
X0001248724Y0002401559D02*
X0001206984Y0002359818D01*
X0001248724Y0002630665D02*
X0001248724Y0002401559D01*
X0001073307Y0002806082D02*
X0001248724Y0002630665D01*
X0001073307Y0003322834D02*
X0001073307Y0002806082D01*
X0001034645Y0003361496D02*
X0001073307Y0003322834D01*
X0001034645Y0003429858D02*
X0001034645Y0003361496D01*
X0001291618Y0002272444D02*
X0001249015Y0002229842D01*
X0001291618Y0002402566D02*
X0001291618Y0002272444D01*
X0001269429Y0002424755D02*
X0001291618Y0002402566D01*
X0001269429Y0002629271D02*
X0001269429Y0002424755D01*
X0001302240Y0002662082D02*
X0001269429Y0002629271D01*
X0001351409Y0002662082D02*
X0001302240Y0002662082D01*
X0001484645Y0002795318D02*
X0001351409Y0002662082D01*
X0001484645Y0002864940D02*
X0001484645Y0002795318D01*
X0001522996Y0002903291D02*
X0001484645Y0002864940D01*
X0001623692Y0002903291D02*
X0001522996Y0002903291D01*
X0001859645Y0003139244D02*
X0001623692Y0002903291D01*
X0001859645Y0003209488D02*
X0001859645Y0003139244D01*
X0002011653Y0003361496D02*
X0001859645Y0003209488D01*
X0002034645Y0003361496D02*
X0002011653Y0003361496D01*
X0002034645Y0003429858D02*
X0002034645Y0003361496D01*
X0002057996Y0002653208D02*
X0002234645Y0002829858D01*
X0001893625Y0002653208D02*
X0002057996Y0002653208D01*
X0001859645Y0002619228D02*
X0001893625Y0002653208D01*
X0001859645Y0002547940D02*
X0001859645Y0002619228D01*
X0001541547Y0002229842D02*
X0001859645Y0002547940D01*
X0001349015Y0002229842D02*
X0001541547Y0002229842D01*
X0001527933Y0002516480D02*
X0001309645Y0002516480D01*
X0001559645Y0002548192D02*
X0001527933Y0002516480D01*
X0001559645Y0002621078D02*
X0001559645Y0002548192D01*
X0001599291Y0002660724D02*
X0001559645Y0002621078D01*
X0001865511Y0002660724D02*
X0001599291Y0002660724D01*
X0001966283Y0002761496D02*
X0001865511Y0002660724D01*
X0002034645Y0002761496D02*
X0001966283Y0002761496D01*
X0002034645Y0002829858D02*
X0002034645Y0002761496D01*
X0001309645Y0002584842D02*
X0001309645Y0002516480D01*
X0001544968Y0002653204D02*
X0001409645Y0002653204D01*
X0001684645Y0002792881D02*
X0001544968Y0002653204D01*
X0001684645Y0002864519D02*
X0001684645Y0002792881D01*
X0001870704Y0003050578D02*
X0001684645Y0002864519D01*
X0001972476Y0003050578D02*
X0001870704Y0003050578D01*
X0002059645Y0003137748D02*
X0001972476Y0003050578D01*
X0002059645Y0003209488D02*
X0002059645Y0003137748D01*
X0002211653Y0003361496D02*
X0002059645Y0003209488D01*
X0002234645Y0003361496D02*
X0002211653Y0003361496D01*
X0002234645Y0003429858D02*
X0002234645Y0003361496D01*
X0001409645Y0002584842D02*
X0001409645Y0002653204D01*
X0001509645Y0002588177D02*
X0001509645Y0002584842D01*
X0001628929Y0002707460D02*
X0001509645Y0002588177D01*
X0001698618Y0002707460D02*
X0001628929Y0002707460D01*
X0001784645Y0002793488D02*
X0001698618Y0002707460D01*
X0001784645Y0002864602D02*
X0001784645Y0002793488D01*
X0001831940Y0002911897D02*
X0001784645Y0002864602D01*
X0001932299Y0002911897D02*
X0001831940Y0002911897D01*
X0002159645Y0003139244D02*
X0001932299Y0002911897D01*
X0002159645Y0003212244D02*
X0002159645Y0003139244D01*
X0002308897Y0003361496D02*
X0002159645Y0003212244D01*
X0002434645Y0003361496D02*
X0002308897Y0003361496D01*
X0002434645Y0003429858D02*
X0002434645Y0003361496D01*
X0002217937Y0002761496D02*
X0002109645Y0002653204D01*
X0002434645Y0002761496D02*
X0002217937Y0002761496D01*
X0002434645Y0002829858D02*
X0002434645Y0002761496D01*
X0002109645Y0002584842D02*
X0002109645Y0002653204D01*
X0002345480Y0002653204D02*
X0002309645Y0002653204D01*
X0002475421Y0002783145D02*
X0002345480Y0002653204D01*
X0002475421Y0003005086D02*
X0002475421Y0002783145D01*
X0002469724Y0003010783D02*
X0002475421Y0003005086D01*
X0002469724Y0003267263D02*
X0002469724Y0003010783D01*
X0002473988Y0003271527D02*
X0002469724Y0003267263D01*
X0002473988Y0003475677D02*
X0002473988Y0003271527D01*
X0002451444Y0003498220D02*
X0002473988Y0003475677D01*
X0002334645Y0003498220D02*
X0002451444Y0003498220D01*
X0002334645Y0003429858D02*
X0002334645Y0003498220D01*
X0002309645Y0002584842D02*
X0002309645Y0002653204D01*
X0002493137Y0002736696D02*
X0002409645Y0002653204D01*
X0002493137Y0002933102D02*
X0002493137Y0002736696D01*
X0002550271Y0002990236D02*
X0002493137Y0002933102D01*
X0002550271Y0003345870D02*
X0002550271Y0002990236D01*
X0002534645Y0003361496D02*
X0002550271Y0003345870D01*
X0002534645Y0003429858D02*
X0002534645Y0003361496D01*
X0002409645Y0002584842D02*
X0002409645Y0002653204D01*
X0002734645Y0003429858D02*
X0002734645Y0003361496D01*
X0002509645Y0002584842D02*
X0002509645Y0002653204D01*
X0002588897Y0002732456D02*
X0002509645Y0002653204D01*
X0002588897Y0002970472D02*
X0002588897Y0002732456D01*
X0002659645Y0003041220D02*
X0002588897Y0002970472D01*
X0002659645Y0003286496D02*
X0002659645Y0003041220D01*
X0002734645Y0003361496D02*
X0002659645Y0003286496D01*
X0002934645Y0003429858D02*
X0002934645Y0003361496D01*
X0002609645Y0002584842D02*
X0002609645Y0002653204D01*
X0002676889Y0002720448D02*
X0002609645Y0002653204D01*
X0002676889Y0002883078D02*
X0002676889Y0002720448D01*
X0002859645Y0003065834D02*
X0002676889Y0002883078D01*
X0002859645Y0003286496D02*
X0002859645Y0003065834D01*
X0002934645Y0003361496D02*
X0002859645Y0003286496D01*
X0002855393Y0002682244D02*
X0002934645Y0002761496D01*
X0002855393Y0002546019D02*
X0002855393Y0002682244D01*
X0002825854Y0002516480D02*
X0002855393Y0002546019D01*
X0002709645Y0002516480D02*
X0002825854Y0002516480D01*
X0002709645Y0002584842D02*
X0002709645Y0002516480D01*
X0002934645Y0002829858D02*
X0002934645Y0002761496D01*
X0002734645Y0002728204D02*
X0002809645Y0002653204D01*
X0002734645Y0002829858D02*
X0002734645Y0002728204D01*
X0002809645Y0002584842D02*
X0002809645Y0002653204D01*
X0001709645Y0003286496D02*
X0001709645Y0003174842D01*
X0001634645Y0003361496D02*
X0001709645Y0003286496D01*
X0001634645Y0003429858D02*
X0001634645Y0003361496D01*
X0001726039Y0003106480D02*
X0001609645Y0003106480D01*
X0001748972Y0003129413D02*
X0001726039Y0003106480D01*
X0001748972Y0003347169D02*
X0001748972Y0003129413D01*
X0001734645Y0003361496D02*
X0001748972Y0003347169D01*
X0001734645Y0003429858D02*
X0001734645Y0003361496D01*
X0001609645Y0003174842D02*
X0001609645Y0003106480D01*
X0001595980Y0003329539D02*
X0001509645Y0003243204D01*
X0001595980Y0003475791D02*
X0001595980Y0003329539D01*
X0001618409Y0003498220D02*
X0001595980Y0003475791D01*
X0001834645Y0003498220D02*
X0001618409Y0003498220D01*
X0001834645Y0003429858D02*
X0001834645Y0003498220D01*
X0001509645Y0003174842D02*
X0001509645Y0003243204D01*
X0001434161Y0003243204D02*
X0001409645Y0003243204D01*
X0001582192Y0003391236D02*
X0001434161Y0003243204D01*
X0001582192Y0003479000D02*
X0001582192Y0003391236D01*
X0001614444Y0003511251D02*
X0001582192Y0003479000D01*
X0001921614Y0003511251D02*
X0001614444Y0003511251D01*
X0001934645Y0003498220D02*
X0001921614Y0003511251D01*
X0001934645Y0003429858D02*
X0001934645Y0003498220D01*
X0001409645Y0003174842D02*
X0001409645Y0003243204D01*
X0001309645Y0003073220D02*
X0001309645Y0003174842D01*
X0001134645Y0002898220D02*
X0001309645Y0003073220D01*
X0001134645Y0002829858D02*
X0001134645Y0002898220D01*
M02*