G04 #@! TF.GenerationSoftware,KiCad,Pcbnew,(5.1.2)-2*
G04 #@! TF.CreationDate,2019-08-03T14:41:18-04:00*
G04 #@! TF.ProjectId,27C160_Adapter,32374331-3630-45f4-9164-61707465722e,rev?*
G04 #@! TF.SameCoordinates,Original*
G04 #@! TF.FileFunction,Copper,L2,Bot*
G04 #@! TF.FilePolarity,Positive*
%FSLAX46Y46*%
G04 Gerber Fmt 4.6, Leading zero omitted, Abs format (unit mm)*
G04 Created by KiCad (PCBNEW (5.1.2)-2) date 2019-08-03 14:41:18*
%MOMM*%
%LPD*%
G04 APERTURE LIST*
%ADD10C,1.524000*%
%ADD11O,2.641600X1.320800*%
%ADD12C,1.320800*%
%ADD13C,1.676400*%
%ADD14O,1.506220X3.014980*%
%ADD15C,0.152400*%
G04 APERTURE END LIST*
D10*
X50419000Y-48133000D03*
X50419000Y-45593000D03*
X50419000Y-50673000D03*
X58039000Y-50673000D03*
X58039000Y-48133000D03*
X58039000Y-45593000D03*
D11*
X66929000Y-48768000D03*
X66929000Y-46228000D03*
X66929000Y-51308000D03*
D12*
X87795000Y-43282000D03*
X87795000Y-53442000D03*
X83985000Y-43282000D03*
X83985000Y-53442000D03*
X80175000Y-43282000D03*
X80175000Y-53442000D03*
X76365000Y-53442000D03*
X76365000Y-43282000D03*
X72555000Y-43282000D03*
X72555000Y-53442000D03*
D13*
X36725000Y-50902000D03*
X36725000Y-48362000D03*
X36725000Y-45822000D03*
X39265000Y-50902000D03*
X39265000Y-48362000D03*
X39265000Y-45822000D03*
D14*
X35725000Y-39345000D03*
X38265000Y-39345000D03*
X40805000Y-39345000D03*
X43345000Y-39345000D03*
X45885000Y-39345000D03*
X48425000Y-39345000D03*
X50965000Y-39345000D03*
X53505000Y-39345000D03*
X56045000Y-39345000D03*
X58585000Y-39345000D03*
X61125000Y-39345000D03*
X63665000Y-39345000D03*
X66205000Y-39345000D03*
X68745000Y-39345000D03*
X71285000Y-39345000D03*
X73825000Y-39345000D03*
X76365000Y-39345000D03*
X78905000Y-39345000D03*
X81445000Y-39345000D03*
X83985000Y-39345000D03*
X83985000Y-24359000D03*
X81445000Y-24359000D03*
X78905000Y-24359000D03*
X76365000Y-24359000D03*
X73825000Y-24359000D03*
X71285000Y-24359000D03*
X68745000Y-24359000D03*
X66205000Y-24359000D03*
X63665000Y-24359000D03*
X61125000Y-24359000D03*
X58585000Y-24359000D03*
X56045000Y-24359000D03*
X53505000Y-24359000D03*
X50965000Y-24359000D03*
X48425000Y-24359000D03*
X45885000Y-24359000D03*
X43345000Y-24359000D03*
X40805000Y-24359000D03*
X38265000Y-24359000D03*
X35725000Y-24359000D03*
X23660000Y-33121600D03*
X26200000Y-33121600D03*
X28740000Y-33121600D03*
X31280000Y-33121600D03*
X33820000Y-33121600D03*
X36360000Y-33121600D03*
X38900000Y-33121600D03*
X41440000Y-33121600D03*
X43980000Y-33121600D03*
X46520000Y-33121600D03*
X49060000Y-33121600D03*
X51600000Y-33121600D03*
X54140000Y-33121600D03*
X56680000Y-33121600D03*
X59220000Y-33121600D03*
X61760000Y-33121600D03*
X64300000Y-33121600D03*
X66840000Y-33121600D03*
X69380000Y-33121600D03*
X71920000Y-33121600D03*
X74460000Y-33121600D03*
X77000000Y-33121600D03*
X79540000Y-33121600D03*
X82080000Y-33121600D03*
X82080000Y-17881600D03*
X79540000Y-17881600D03*
X77000000Y-17881600D03*
X74460000Y-17881600D03*
X71920000Y-17881600D03*
X69380000Y-17881600D03*
X66840000Y-17881600D03*
X64300000Y-17881600D03*
X61760000Y-17881600D03*
X59220000Y-17881600D03*
X56680000Y-17881600D03*
X54140000Y-17881600D03*
X51600000Y-17881600D03*
X49060000Y-17881600D03*
X46520000Y-17881600D03*
X43980000Y-17881600D03*
X41440000Y-17881600D03*
X38900000Y-17881600D03*
X36360000Y-17881600D03*
X33820000Y-17881600D03*
X31280000Y-17881600D03*
X28740000Y-17881600D03*
X26200000Y-17881600D03*
X23660000Y-17881600D03*
D15*
X59220000Y-33121600D02*
X59220000Y-31385200D01*
X61125000Y-39345000D02*
X61125000Y-41081400D01*
X64647400Y-41724400D02*
X76365000Y-53442000D01*
X61768000Y-41724400D02*
X64647400Y-41724400D01*
X61125000Y-41081400D02*
X61768000Y-41724400D01*
X61125000Y-29480200D02*
X61125000Y-24359000D01*
X59220000Y-31385200D02*
X61125000Y-29480200D01*
X80067000Y-21631000D02*
X82080000Y-19618000D01*
X80067000Y-25340500D02*
X80067000Y-21631000D01*
X73450500Y-31957000D02*
X80067000Y-25340500D01*
X73450500Y-36713000D02*
X73450500Y-31957000D01*
X72555000Y-37608500D02*
X73450500Y-36713000D01*
X72555000Y-43282000D02*
X72555000Y-37608500D01*
X82080000Y-17881600D02*
X82080000Y-19618000D01*
X64704200Y-51983100D02*
X65379300Y-51308000D01*
X37806100Y-51983100D02*
X64704200Y-51983100D01*
X36725000Y-50902000D02*
X37806100Y-51983100D01*
X66929000Y-51308000D02*
X65379300Y-51308000D01*
X68770300Y-49657300D02*
X66929000Y-49657300D01*
X72555000Y-53442000D02*
X68770300Y-49657300D01*
X66929000Y-48768000D02*
X66929000Y-49657300D01*
X56838600Y-49472600D02*
X58039000Y-50673000D01*
X36233300Y-49472600D02*
X56838600Y-49472600D01*
X35657400Y-48896700D02*
X36233300Y-49472600D01*
X35657400Y-45060600D02*
X35657400Y-48896700D01*
X36717600Y-44000400D02*
X35657400Y-45060600D01*
X36717600Y-38181100D02*
X36717600Y-44000400D01*
X32262000Y-33725500D02*
X36717600Y-38181100D01*
X32262000Y-20600000D02*
X32262000Y-33725500D01*
X31280000Y-19618000D02*
X32262000Y-20600000D01*
X31280000Y-17881600D02*
X31280000Y-19618000D01*
X37807100Y-47279900D02*
X36725000Y-48362000D01*
X37807100Y-43974800D02*
X37807100Y-47279900D01*
X37243500Y-43411200D02*
X37807100Y-43974800D01*
X37243500Y-38216500D02*
X37243500Y-43411200D01*
X38076900Y-37383100D02*
X37243500Y-38216500D01*
X39325800Y-37383100D02*
X38076900Y-37383100D01*
X42710000Y-33998900D02*
X39325800Y-37383100D01*
X42710000Y-32230500D02*
X42710000Y-33998900D01*
X43684100Y-31256400D02*
X42710000Y-32230500D01*
X46241800Y-31256400D02*
X43684100Y-31256400D01*
X52235000Y-25263200D02*
X46241800Y-31256400D01*
X52235000Y-23479000D02*
X52235000Y-25263200D01*
X56096000Y-19618000D02*
X52235000Y-23479000D01*
X56680000Y-19618000D02*
X56096000Y-19618000D01*
X56680000Y-17881600D02*
X56680000Y-19618000D01*
X57273100Y-37608500D02*
X61760000Y-33121600D01*
X53098100Y-37608500D02*
X57273100Y-37608500D01*
X52235000Y-38471600D02*
X53098100Y-37608500D01*
X52235000Y-40282300D02*
X52235000Y-38471600D01*
X44155300Y-48362000D02*
X52235000Y-40282300D01*
X39265000Y-48362000D02*
X44155300Y-48362000D01*
X43809500Y-41081400D02*
X38265000Y-41081400D01*
X44615000Y-40275900D02*
X43809500Y-41081400D01*
X44615000Y-38424600D02*
X44615000Y-40275900D01*
X45622000Y-37417600D02*
X44615000Y-38424600D01*
X52384000Y-37417600D02*
X45622000Y-37417600D01*
X54943600Y-34858000D02*
X52384000Y-37417600D01*
X56680000Y-34858000D02*
X54943600Y-34858000D01*
X56680000Y-33121600D02*
X56680000Y-34858000D01*
X38265000Y-39345000D02*
X38265000Y-41081400D01*
X44242200Y-37608600D02*
X40805000Y-37608600D01*
X47790000Y-34060800D02*
X44242200Y-37608600D01*
X47790000Y-32241200D02*
X47790000Y-34060800D01*
X52515900Y-27515300D02*
X47790000Y-32241200D01*
X55100900Y-27515300D02*
X52515900Y-27515300D01*
X57315000Y-25301200D02*
X55100900Y-27515300D01*
X57315000Y-23479000D02*
X57315000Y-25301200D01*
X61176000Y-19618000D02*
X57315000Y-23479000D01*
X61760000Y-19618000D02*
X61176000Y-19618000D01*
X61760000Y-17881600D02*
X61760000Y-19618000D01*
X40805000Y-39345000D02*
X40805000Y-37608600D01*
X43345000Y-39260300D02*
X43345000Y-39345000D01*
X46374800Y-36230500D02*
X43345000Y-39260300D01*
X48144900Y-36230500D02*
X46374800Y-36230500D01*
X50330000Y-34045400D02*
X48144900Y-36230500D01*
X50330000Y-32239100D02*
X50330000Y-34045400D01*
X51531300Y-31037800D02*
X50330000Y-32239100D01*
X54080400Y-31037800D02*
X51531300Y-31037800D01*
X59855000Y-25263200D02*
X54080400Y-31037800D01*
X59855000Y-23409000D02*
X59855000Y-25263200D01*
X63646000Y-19618000D02*
X59855000Y-23409000D01*
X66840000Y-19618000D02*
X63646000Y-19618000D01*
X66840000Y-17881600D02*
X66840000Y-19618000D01*
X61335600Y-34858000D02*
X58585000Y-37608600D01*
X66840000Y-34858000D02*
X61335600Y-34858000D01*
X66840000Y-33121600D02*
X66840000Y-34858000D01*
X58585000Y-39345000D02*
X58585000Y-37608600D01*
X64575200Y-37608600D02*
X63665000Y-37608600D01*
X67875700Y-34308100D02*
X64575200Y-37608600D01*
X67875700Y-28670800D02*
X67875700Y-34308100D01*
X67731000Y-28526100D02*
X67875700Y-28670800D01*
X67731000Y-22011500D02*
X67731000Y-28526100D01*
X67839300Y-21903200D02*
X67731000Y-22011500D01*
X67839300Y-16717800D02*
X67839300Y-21903200D01*
X67266700Y-16145200D02*
X67839300Y-16717800D01*
X64300000Y-16145200D02*
X67266700Y-16145200D01*
X64300000Y-17881600D02*
X64300000Y-16145200D01*
X63665000Y-39345000D02*
X63665000Y-37608600D01*
X68325700Y-35487900D02*
X66205000Y-37608600D01*
X68325700Y-30499200D02*
X68325700Y-35487900D01*
X69776900Y-29048000D02*
X68325700Y-30499200D01*
X69776900Y-20014900D02*
X69776900Y-29048000D01*
X69380000Y-19618000D02*
X69776900Y-20014900D01*
X69380000Y-17881600D02*
X69380000Y-19618000D01*
X66205000Y-39345000D02*
X66205000Y-37608600D01*
X74460000Y-17881600D02*
X74460000Y-19618000D01*
X68745000Y-39345000D02*
X68745000Y-37608600D01*
X70758000Y-35595600D02*
X68745000Y-37608600D01*
X70758000Y-29550000D02*
X70758000Y-35595600D01*
X72555000Y-27753000D02*
X70758000Y-29550000D01*
X72555000Y-21523000D02*
X72555000Y-27753000D01*
X74460000Y-19618000D02*
X72555000Y-21523000D01*
X79540000Y-17881600D02*
X79540000Y-19618000D01*
X71285000Y-39345000D02*
X71285000Y-37608600D01*
X72993000Y-35900600D02*
X71285000Y-37608600D01*
X72993000Y-31769800D02*
X72993000Y-35900600D01*
X77635000Y-27127800D02*
X72993000Y-31769800D01*
X77635000Y-21523000D02*
X77635000Y-27127800D01*
X79540000Y-19618000D02*
X77635000Y-21523000D01*
X77527000Y-36871000D02*
X79540000Y-34858000D01*
X77527000Y-40331100D02*
X77527000Y-36871000D01*
X76776700Y-41081400D02*
X77527000Y-40331100D01*
X73825000Y-41081400D02*
X76776700Y-41081400D01*
X73825000Y-39345000D02*
X73825000Y-41081400D01*
X79540000Y-33121600D02*
X79540000Y-34858000D01*
X74460000Y-35703600D02*
X76365000Y-37608600D01*
X74460000Y-33121600D02*
X74460000Y-35703600D01*
X76365000Y-39345000D02*
X76365000Y-37608600D01*
X48425000Y-21523000D02*
X48425000Y-24359000D01*
X46520000Y-19618000D02*
X48425000Y-21523000D01*
X46520000Y-17881600D02*
X46520000Y-19618000D01*
X48841400Y-26095400D02*
X45885000Y-26095400D01*
X49423900Y-25512900D02*
X48841400Y-26095400D01*
X49423900Y-19981900D02*
X49423900Y-25512900D01*
X49060000Y-19618000D02*
X49423900Y-19981900D01*
X49060000Y-17881600D02*
X49060000Y-19618000D01*
X45885000Y-24359000D02*
X45885000Y-26095400D01*
X45537900Y-20429700D02*
X43345000Y-22622600D01*
X45537900Y-16714900D02*
X45537900Y-20429700D01*
X46107600Y-16145200D02*
X45537900Y-16714900D01*
X51600000Y-16145200D02*
X46107600Y-16145200D01*
X51600000Y-17881600D02*
X51600000Y-16145200D01*
X43345000Y-24359000D02*
X43345000Y-22622600D01*
X41427700Y-22622600D02*
X40805000Y-22622600D01*
X45187700Y-18862600D02*
X41427700Y-22622600D01*
X45187700Y-16633400D02*
X45187700Y-18862600D01*
X46006900Y-15814200D02*
X45187700Y-16633400D01*
X53809000Y-15814200D02*
X46006900Y-15814200D01*
X54140000Y-16145200D02*
X53809000Y-15814200D01*
X54140000Y-17881600D02*
X54140000Y-16145200D01*
X40805000Y-24359000D02*
X40805000Y-22622600D01*
X38265000Y-26940200D02*
X38265000Y-24359000D01*
X33820000Y-31385200D02*
X38265000Y-26940200D01*
X33820000Y-33121600D02*
X33820000Y-31385200D01*
M02*
