M48
;DRILL file {KiCad 4.0.6} date 06/26/18 14:48:55
;FORMAT={-:-/ absolute / metric / decimal}
FMAT,2
METRIC,TZ
T1C0.762
T2C0.813
T3C0.998
%
G90
G05
M71
T1
X144.78Y-116.205
X144.78Y-118.745
X144.78Y-121.285
X152.4Y-116.205
X152.4Y-118.745
X152.4Y-121.285
T2
X161.29Y-116.84
X161.29Y-119.38
X161.29Y-121.92
X166.916Y-113.894
X166.916Y-124.054
X170.726Y-113.894
X170.726Y-124.054
X174.536Y-113.894
X174.536Y-124.054
X178.346Y-113.894
X178.346Y-124.054
X182.156Y-113.894
X182.156Y-124.054
T3
X118.021Y-88.494
X118.021Y-103.734
X120.561Y-88.494
X120.561Y-103.734
X123.101Y-88.494
X123.101Y-103.734
X125.641Y-88.494
X125.641Y-103.734
X128.181Y-88.494
X128.181Y-103.734
X130.086Y-94.971
X130.086Y-109.957
X130.721Y-88.494
X130.721Y-103.734
X131.086Y-116.434
X131.086Y-118.974
X131.086Y-121.514
X132.626Y-94.971
X132.626Y-109.957
X133.261Y-88.494
X133.261Y-103.734
X133.626Y-116.434
X133.626Y-118.974
X133.626Y-121.514
X135.166Y-94.971
X135.166Y-109.957
X135.801Y-88.494
X135.801Y-103.734
X137.706Y-94.971
X137.706Y-109.957
X138.341Y-88.494
X138.341Y-103.734
X140.246Y-94.971
X140.246Y-109.957
X140.881Y-88.494
X140.881Y-103.734
X142.786Y-94.971
X142.786Y-109.957
X143.421Y-88.494
X143.421Y-103.734
X145.326Y-94.971
X145.326Y-109.957
X145.961Y-88.494
X145.961Y-103.734
X147.866Y-94.971
X147.866Y-109.957
X148.501Y-88.494
X148.501Y-103.734
X150.406Y-94.971
X150.406Y-109.957
X151.041Y-88.494
X151.041Y-103.734
X152.946Y-94.971
X152.946Y-109.957
X153.581Y-88.494
X153.581Y-103.734
X155.486Y-94.971
X155.486Y-109.957
X156.121Y-88.494
X156.121Y-103.734
X158.026Y-94.971
X158.026Y-109.957
X158.661Y-88.494
X158.661Y-103.734
X160.566Y-94.971
X160.566Y-109.957
X161.201Y-88.494
X161.201Y-103.734
X163.106Y-94.971
X163.106Y-109.957
X163.741Y-88.494
X163.741Y-103.734
X165.646Y-94.971
X165.646Y-109.957
X166.281Y-88.494
X166.281Y-103.734
X168.186Y-94.971
X168.186Y-109.957
X168.821Y-88.494
X168.821Y-103.734
X170.726Y-94.971
X170.726Y-109.957
X171.361Y-88.494
X171.361Y-103.734
X173.266Y-94.971
X173.266Y-109.957
X173.901Y-88.494
X173.901Y-103.734
X175.806Y-94.971
X175.806Y-109.957
X176.441Y-88.494
X176.441Y-103.734
X178.346Y-94.971
X178.346Y-109.957
T0
M30
