G04 #@! TF.FileFunction,Copper,L1,Top,Signal*
%FSLAX46Y46*%
G04 Gerber Fmt 4.6, Leading zero omitted, Abs format (unit mm)*
G04 Created by KiCad (PCBNEW 4.0.6) date 06/09/18 23:54:49*
%MOMM*%
%LPD*%
G01*
G04 APERTURE LIST*
%ADD10C,0.100000*%
%ADD11C,1.524000*%
%ADD12O,2.641600X1.320800*%
%ADD13C,1.320800*%
%ADD14C,1.676400*%
%ADD15O,1.506220X3.014980*%
%ADD16C,0.152400*%
G04 APERTURE END LIST*
D10*
D11*
X144780000Y-118745000D03*
X144780000Y-116205000D03*
X144780000Y-121285000D03*
X152400000Y-121285000D03*
X152400000Y-118745000D03*
X152400000Y-116205000D03*
D12*
X161290000Y-119380000D03*
X161290000Y-116840000D03*
X161290000Y-121920000D03*
D13*
X182156000Y-113894000D03*
X182156000Y-124054000D03*
X178346000Y-113894000D03*
X178346000Y-124054000D03*
X174536000Y-113894000D03*
X174536000Y-124054000D03*
X170726000Y-124054000D03*
X170726000Y-113894000D03*
X166916000Y-113894000D03*
X166916000Y-124054000D03*
D14*
X131086000Y-121514000D03*
X131086000Y-118974000D03*
X131086000Y-116434000D03*
X133626000Y-121514000D03*
X133626000Y-118974000D03*
X133626000Y-116434000D03*
D15*
X130086000Y-109957000D03*
X132626000Y-109957000D03*
X135166000Y-109957000D03*
X137706000Y-109957000D03*
X140246000Y-109957000D03*
X142786000Y-109957000D03*
X145326000Y-109957000D03*
X147866000Y-109957000D03*
X150406000Y-109957000D03*
X152946000Y-109957000D03*
X155486000Y-109957000D03*
X158026000Y-109957000D03*
X160566000Y-109957000D03*
X163106000Y-109957000D03*
X165646000Y-109957000D03*
X168186000Y-109957000D03*
X170726000Y-109957000D03*
X173266000Y-109957000D03*
X175806000Y-109957000D03*
X178346000Y-109957000D03*
X178346000Y-94971000D03*
X175806000Y-94971000D03*
X173266000Y-94971000D03*
X170726000Y-94971000D03*
X168186000Y-94971000D03*
X165646000Y-94971000D03*
X163106000Y-94971000D03*
X160566000Y-94971000D03*
X158026000Y-94971000D03*
X155486000Y-94971000D03*
X152946000Y-94971000D03*
X150406000Y-94971000D03*
X147866000Y-94971000D03*
X145326000Y-94971000D03*
X142786000Y-94971000D03*
X140246000Y-94971000D03*
X137706000Y-94971000D03*
X135166000Y-94971000D03*
X132626000Y-94971000D03*
X130086000Y-94971000D03*
X118021000Y-103733600D03*
X120561000Y-103733600D03*
X123101000Y-103733600D03*
X125641000Y-103733600D03*
X128181000Y-103733600D03*
X130721000Y-103733600D03*
X133261000Y-103733600D03*
X135801000Y-103733600D03*
X138341000Y-103733600D03*
X140881000Y-103733600D03*
X143421000Y-103733600D03*
X145961000Y-103733600D03*
X148501000Y-103733600D03*
X151041000Y-103733600D03*
X153581000Y-103733600D03*
X156121000Y-103733600D03*
X158661000Y-103733600D03*
X161201000Y-103733600D03*
X163741000Y-103733600D03*
X166281000Y-103733600D03*
X168821000Y-103733600D03*
X171361000Y-103733600D03*
X173901000Y-103733600D03*
X176441000Y-103733600D03*
X176441000Y-88493600D03*
X173901000Y-88493600D03*
X171361000Y-88493600D03*
X168821000Y-88493600D03*
X166281000Y-88493600D03*
X163741000Y-88493600D03*
X161201000Y-88493600D03*
X158661000Y-88493600D03*
X156121000Y-88493600D03*
X153581000Y-88493600D03*
X151041000Y-88493600D03*
X148501000Y-88493600D03*
X145961000Y-88493600D03*
X143421000Y-88493600D03*
X140881000Y-88493600D03*
X138341000Y-88493600D03*
X135801000Y-88493600D03*
X133261000Y-88493600D03*
X130721000Y-88493600D03*
X128181000Y-88493600D03*
X125641000Y-88493600D03*
X123101000Y-88493600D03*
X120561000Y-88493600D03*
X118021000Y-88493600D03*
D16*
X170726000Y-124054000D02*
X174536000Y-124054000D01*
X174536000Y-124054000D02*
X178346000Y-124054000D01*
X178346000Y-124054000D02*
X182156000Y-124054000D01*
X153581000Y-91329600D02*
X155486000Y-93234600D01*
X153581000Y-88493600D02*
X153581000Y-91329600D01*
X155486000Y-94971000D02*
X155486000Y-93234600D01*
X152400000Y-118745000D02*
X144780000Y-118745000D01*
X153134800Y-118010200D02*
X152400000Y-118745000D01*
X162799800Y-118010200D02*
X153134800Y-118010200D01*
X166916000Y-113894000D02*
X162799800Y-118010200D01*
X161290000Y-116840000D02*
X159740300Y-116840000D01*
X164276800Y-112963900D02*
X161290000Y-115950700D01*
X169795900Y-112963900D02*
X164276800Y-112963900D01*
X170726000Y-113894000D02*
X169795900Y-112963900D01*
X161290000Y-116840000D02*
X161290000Y-115950700D01*
X159372000Y-117208300D02*
X159740300Y-116840000D01*
X134400300Y-117208300D02*
X159372000Y-117208300D01*
X133626000Y-116434000D02*
X134400300Y-117208300D01*
X159065200Y-122595100D02*
X159740300Y-121920000D01*
X132167100Y-122595100D02*
X159065200Y-122595100D01*
X131086000Y-121514000D02*
X132167100Y-122595100D01*
X161290000Y-121920000D02*
X159740300Y-121920000D01*
X143941500Y-115366500D02*
X144780000Y-116205000D01*
X132153500Y-115366500D02*
X143941500Y-115366500D01*
X131086000Y-116434000D02*
X132153500Y-115366500D01*
X148326700Y-112658300D02*
X144780000Y-116205000D01*
X180920300Y-112658300D02*
X148326700Y-112658300D01*
X182156000Y-113894000D02*
X180920300Y-112658300D01*
X171590000Y-120650000D02*
X178346000Y-113894000D01*
X153035000Y-120650000D02*
X171590000Y-120650000D01*
X152400000Y-121285000D02*
X153035000Y-120650000D01*
X146072800Y-119992200D02*
X144780000Y-121285000D01*
X154948400Y-119992200D02*
X146072800Y-119992200D01*
X156588200Y-118352400D02*
X154948400Y-119992200D01*
X170077600Y-118352400D02*
X156588200Y-118352400D01*
X174536000Y-113894000D02*
X170077600Y-118352400D01*
X151041000Y-88493600D02*
X151041000Y-86757200D01*
X129671600Y-117559600D02*
X131086000Y-118974000D01*
X129671600Y-115742400D02*
X129671600Y-117559600D01*
X131105300Y-114308700D02*
X129671600Y-115742400D01*
X131105300Y-107664800D02*
X131105300Y-114308700D01*
X129725600Y-106285100D02*
X131105300Y-107664800D01*
X129725600Y-100901300D02*
X129725600Y-106285100D01*
X133637700Y-96989200D02*
X129725600Y-100901300D01*
X133637700Y-91731300D02*
X133637700Y-96989200D01*
X132266600Y-90360200D02*
X133637700Y-91731300D01*
X132266600Y-87272200D02*
X132266600Y-90360200D01*
X133093500Y-86445300D02*
X132266600Y-87272200D01*
X150729100Y-86445300D02*
X133093500Y-86445300D01*
X151041000Y-86757200D02*
X150729100Y-86445300D01*
X156121000Y-103733600D02*
X156121000Y-105470000D01*
X132248000Y-117596000D02*
X133626000Y-118974000D01*
X130738800Y-117596000D02*
X132248000Y-117596000D01*
X129976700Y-116833900D02*
X130738800Y-117596000D01*
X129976700Y-116021500D02*
X129976700Y-116833900D01*
X133999600Y-111998600D02*
X129976700Y-116021500D01*
X148028200Y-111998600D02*
X133999600Y-111998600D01*
X149136000Y-110890800D02*
X148028200Y-111998600D01*
X149136000Y-109010600D02*
X149136000Y-110890800D01*
X150244200Y-107902400D02*
X149136000Y-109010600D01*
X152361700Y-107902400D02*
X150244200Y-107902400D01*
X154794100Y-105470000D02*
X152361700Y-107902400D01*
X156121000Y-105470000D02*
X154794100Y-105470000D01*
X143213400Y-111693400D02*
X132626000Y-111693400D01*
X144056000Y-110850800D02*
X143213400Y-111693400D01*
X144056000Y-109051900D02*
X144056000Y-110850800D01*
X147637900Y-105470000D02*
X144056000Y-109051900D01*
X151041000Y-105470000D02*
X147637900Y-105470000D01*
X151041000Y-103733600D02*
X151041000Y-105470000D01*
X132626000Y-109957000D02*
X132626000Y-111693400D01*
X142389100Y-107823700D02*
X142786000Y-108220600D01*
X142389100Y-102569000D02*
X142389100Y-107823700D01*
X146056600Y-98901500D02*
X142389100Y-102569000D01*
X168987300Y-98901500D02*
X146056600Y-98901500D01*
X171715000Y-96173800D02*
X168987300Y-98901500D01*
X171715000Y-90584000D02*
X171715000Y-96173800D01*
X171361000Y-90230000D02*
X171715000Y-90584000D01*
X171361000Y-88493600D02*
X171361000Y-90230000D01*
X142786000Y-109957000D02*
X142786000Y-108220600D01*
X176441000Y-103733600D02*
X176441000Y-101997200D01*
X145326000Y-109957000D02*
X145326000Y-108220600D01*
X148741900Y-108220600D02*
X145326000Y-108220600D01*
X152311000Y-104651500D02*
X148741900Y-108220600D01*
X152311000Y-102798500D02*
X152311000Y-104651500D01*
X154027600Y-101081900D02*
X152311000Y-102798500D01*
X175525700Y-101081900D02*
X154027600Y-101081900D01*
X176441000Y-101997200D02*
X175525700Y-101081900D01*
X171361000Y-103733600D02*
X171361000Y-101997200D01*
X147866000Y-109849100D02*
X147866000Y-109957000D01*
X150136300Y-107578800D02*
X147866000Y-109849100D01*
X151917400Y-107578800D02*
X150136300Y-107578800D01*
X154851000Y-104645200D02*
X151917400Y-107578800D01*
X154851000Y-102833400D02*
X154851000Y-104645200D01*
X156297400Y-101387000D02*
X154851000Y-102833400D01*
X170750800Y-101387000D02*
X156297400Y-101387000D01*
X171361000Y-101997200D02*
X170750800Y-101387000D01*
X152494900Y-108220600D02*
X150406000Y-108220600D01*
X153606600Y-107108900D02*
X152494900Y-108220600D01*
X157433900Y-107108900D02*
X153606600Y-107108900D01*
X159899400Y-104643400D02*
X157433900Y-107108900D01*
X159899400Y-102824600D02*
X159899400Y-104643400D01*
X160726800Y-101997200D02*
X159899400Y-102824600D01*
X166281000Y-101997200D02*
X160726800Y-101997200D01*
X166281000Y-103733600D02*
X166281000Y-101997200D01*
X150406000Y-109957000D02*
X150406000Y-108220600D01*
X152946000Y-109957000D02*
X152946000Y-108220600D01*
X158450400Y-108220600D02*
X161201000Y-105470000D01*
X152946000Y-108220600D02*
X158450400Y-108220600D01*
X161201000Y-103733600D02*
X161201000Y-105470000D01*
X168821000Y-106315600D02*
X170726000Y-108220600D01*
X168821000Y-103733600D02*
X168821000Y-106315600D01*
X170726000Y-109957000D02*
X170726000Y-108220600D01*
X170257200Y-111693400D02*
X173266000Y-111693400D01*
X169456000Y-110892200D02*
X170257200Y-111693400D01*
X169456000Y-109056700D02*
X169456000Y-110892200D01*
X165869300Y-105470000D02*
X169456000Y-109056700D01*
X163741000Y-105470000D02*
X165869300Y-105470000D01*
X163741000Y-103733600D02*
X163741000Y-105470000D01*
X173266000Y-109957000D02*
X173266000Y-111693400D01*
X158661000Y-103733600D02*
X158661000Y-101997200D01*
X175806000Y-109957000D02*
X175806000Y-108220600D01*
X158966100Y-101692100D02*
X158661000Y-101997200D01*
X168949700Y-101692100D02*
X158966100Y-101692100D01*
X169983000Y-102725400D02*
X168949700Y-101692100D01*
X169983000Y-104530600D02*
X169983000Y-102725400D01*
X173673000Y-108220600D02*
X169983000Y-104530600D01*
X175806000Y-108220600D02*
X173673000Y-108220600D01*
X148501000Y-103733600D02*
X148501000Y-101997200D01*
X178346000Y-94971000D02*
X178346000Y-96707400D01*
X150026500Y-100471700D02*
X148501000Y-101997200D01*
X174581700Y-100471700D02*
X150026500Y-100471700D01*
X178346000Y-96707400D02*
X174581700Y-100471700D01*
X145961000Y-103733600D02*
X145961000Y-101997200D01*
X175806000Y-94971000D02*
X175806000Y-96707400D01*
X172588600Y-99924800D02*
X175806000Y-96707400D01*
X148033400Y-99924800D02*
X172588600Y-99924800D01*
X145961000Y-101997200D02*
X148033400Y-99924800D01*
X143421000Y-103733600D02*
X143421000Y-101997200D01*
X173266000Y-94971000D02*
X173266000Y-96707400D01*
X170614200Y-99359200D02*
X173266000Y-96707400D01*
X146059000Y-99359200D02*
X170614200Y-99359200D01*
X143421000Y-101997200D02*
X146059000Y-99359200D01*
X140881000Y-103733600D02*
X140881000Y-101997200D01*
X170726000Y-94971000D02*
X170726000Y-96707400D01*
X144281800Y-98596400D02*
X140881000Y-101997200D01*
X168837000Y-98596400D02*
X144281800Y-98596400D01*
X170726000Y-96707400D02*
X168837000Y-98596400D01*
X138341000Y-103733600D02*
X138341000Y-101997200D01*
X168186000Y-94971000D02*
X168186000Y-96707400D01*
X166602100Y-98291300D02*
X168186000Y-96707400D01*
X142046900Y-98291300D02*
X166602100Y-98291300D01*
X138341000Y-101997200D02*
X142046900Y-98291300D01*
X135801000Y-103733600D02*
X135801000Y-101997200D01*
X165646000Y-94971000D02*
X165646000Y-96707400D01*
X164519700Y-97833700D02*
X165646000Y-96707400D01*
X139964500Y-97833700D02*
X164519700Y-97833700D01*
X135801000Y-101997200D02*
X139964500Y-97833700D01*
X133261000Y-103733600D02*
X133261000Y-101997200D01*
X163106000Y-94971000D02*
X163106000Y-96707400D01*
X162284800Y-97528600D02*
X163106000Y-96707400D01*
X137729600Y-97528600D02*
X162284800Y-97528600D01*
X133261000Y-101997200D02*
X137729600Y-97528600D01*
X160200000Y-97073400D02*
X160566000Y-96707400D01*
X135644800Y-97073400D02*
X160200000Y-97073400D01*
X130721000Y-101997200D02*
X135644800Y-97073400D01*
X130721000Y-103733600D02*
X130721000Y-101997200D01*
X160566000Y-94971000D02*
X160566000Y-96707400D01*
X154743000Y-89951600D02*
X158026000Y-93234600D01*
X154743000Y-87463900D02*
X154743000Y-89951600D01*
X153114100Y-85835000D02*
X154743000Y-87463900D01*
X129103200Y-85835000D02*
X153114100Y-85835000D01*
X128181000Y-86757200D02*
X129103200Y-85835000D01*
X128181000Y-88493600D02*
X128181000Y-86757200D01*
X158026000Y-94971000D02*
X158026000Y-93234600D01*
X130721000Y-88493600D02*
X130721000Y-86757200D01*
X152946000Y-94971000D02*
X152946000Y-93234600D01*
X152068400Y-92357000D02*
X152946000Y-93234600D01*
X152068400Y-87328600D02*
X152068400Y-92357000D01*
X150880000Y-86140200D02*
X152068400Y-87328600D01*
X131338000Y-86140200D02*
X150880000Y-86140200D01*
X130721000Y-86757200D02*
X131338000Y-86140200D01*
X147706500Y-90535100D02*
X150406000Y-93234600D01*
X140771200Y-90535100D02*
X147706500Y-90535100D01*
X139611000Y-89374900D02*
X140771200Y-90535100D01*
X139611000Y-87603400D02*
X139611000Y-89374900D01*
X138764800Y-86757200D02*
X139611000Y-87603400D01*
X133261000Y-86757200D02*
X138764800Y-86757200D01*
X133261000Y-88493600D02*
X133261000Y-86757200D01*
X150406000Y-94971000D02*
X150406000Y-93234600D01*
X144863600Y-96707400D02*
X147866000Y-96707400D01*
X144056000Y-95899800D02*
X144863600Y-96707400D01*
X144056000Y-94079900D02*
X144056000Y-95899800D01*
X141601500Y-91625400D02*
X144056000Y-94079900D01*
X137196400Y-91625400D02*
X141601500Y-91625400D01*
X135801000Y-90230000D02*
X137196400Y-91625400D01*
X135801000Y-88493600D02*
X135801000Y-90230000D01*
X147866000Y-94971000D02*
X147866000Y-96707400D01*
X138341000Y-88493600D02*
X138341000Y-90230000D01*
X145326000Y-94971000D02*
X145326000Y-93234600D01*
X142931600Y-90840200D02*
X145326000Y-93234600D01*
X138951200Y-90840200D02*
X142931600Y-90840200D01*
X138341000Y-90230000D02*
X138951200Y-90840200D01*
X128181000Y-101152400D02*
X132626000Y-96707400D01*
X128181000Y-103733600D02*
X128181000Y-101152400D01*
X132626000Y-94971000D02*
X132626000Y-96707400D01*
M02*
