M48
; DRILL file {KiCad (5.1.2)-2} date 8/3/2019 2:41:21 PM
; FORMAT={-:-/ absolute / metric / decimal}
; #@! TF.CreationDate,2019-08-03T14:41:21-04:00
; #@! TF.GenerationSoftware,Kicad,Pcbnew,(5.1.2)-2
; #@! TF.FileFunction,Plated,1,2,PTH
FMAT,2
METRIC
T1C0.762
T2C0.813
T3C0.998
%
G90
G05
T1
X50.419Y-45.593
X50.419Y-48.133
X50.419Y-50.673
X58.039Y-45.593
X58.039Y-48.133
X58.039Y-50.673
T2
X87.795Y-43.282
X87.795Y-53.442
X80.175Y-43.282
X80.175Y-53.442
X66.929Y-46.228
X66.929Y-48.768
X66.929Y-51.308
X83.985Y-43.282
X83.985Y-53.442
X76.365Y-43.282
X76.365Y-53.442
X72.555Y-43.282
X72.555Y-53.442
T3
X36.725Y-45.822
X36.725Y-48.362
X36.725Y-50.902
X39.265Y-45.822
X39.265Y-48.362
X39.265Y-50.902
X35.725Y-24.359
X35.725Y-39.345
X38.265Y-24.359
X38.265Y-39.345
X40.805Y-24.359
X40.805Y-39.345
X43.345Y-24.359
X43.345Y-39.345
X45.885Y-24.359
X45.885Y-39.345
X48.425Y-24.359
X48.425Y-39.345
X50.965Y-24.359
X50.965Y-39.345
X53.505Y-24.359
X53.505Y-39.345
X56.045Y-24.359
X56.045Y-39.345
X58.585Y-24.359
X58.585Y-39.345
X61.125Y-24.359
X61.125Y-39.345
X63.665Y-24.359
X63.665Y-39.345
X66.205Y-24.359
X66.205Y-39.345
X68.745Y-24.359
X68.745Y-39.345
X71.285Y-24.359
X71.285Y-39.345
X73.825Y-24.359
X73.825Y-39.345
X76.365Y-24.359
X76.365Y-39.345
X78.905Y-24.359
X78.905Y-39.345
X81.445Y-24.359
X81.445Y-39.345
X83.985Y-24.359
X83.985Y-39.345
X23.66Y-17.882
X23.66Y-33.122
X26.2Y-17.882
X26.2Y-33.122
X28.74Y-17.882
X28.74Y-33.122
X31.28Y-17.882
X31.28Y-33.122
X33.82Y-17.882
X33.82Y-33.122
X36.36Y-17.882
X36.36Y-33.122
X38.9Y-17.882
X38.9Y-33.122
X41.44Y-17.882
X41.44Y-33.122
X43.98Y-17.882
X43.98Y-33.122
X46.52Y-17.882
X46.52Y-33.122
X49.06Y-17.882
X49.06Y-33.122
X51.6Y-17.882
X51.6Y-33.122
X54.14Y-17.882
X54.14Y-33.122
X56.68Y-17.882
X56.68Y-33.122
X59.22Y-17.882
X59.22Y-33.122
X61.76Y-17.882
X61.76Y-33.122
X64.3Y-17.882
X64.3Y-33.122
X66.84Y-17.882
X66.84Y-33.122
X69.38Y-17.882
X69.38Y-33.122
X71.92Y-17.882
X71.92Y-33.122
X74.46Y-17.882
X74.46Y-33.122
X77.0Y-17.882
X77.0Y-33.122
X79.54Y-17.882
X79.54Y-33.122
X82.08Y-17.882
X82.08Y-33.122
T0
M30
