G04 #@! TF.FileFunction,Copper,L2,Bot,Signal*
%FSLAX46Y46*%
G04 Gerber Fmt 4.6, Leading zero omitted, Abs format (unit mm)*
G04 Created by KiCad (PCBNEW 4.0.6) date 06/10/18 11:22:36*
%MOMM*%
%LPD*%
G01*
G04 APERTURE LIST*
%ADD10C,0.100000*%
%ADD11C,1.524000*%
%ADD12O,2.641600X1.320800*%
%ADD13C,1.320800*%
%ADD14C,1.676400*%
%ADD15O,1.506220X3.014980*%
%ADD16C,0.152400*%
G04 APERTURE END LIST*
D10*
D11*
X144780000Y-118745000D03*
X144780000Y-116205000D03*
X144780000Y-121285000D03*
X152400000Y-121285000D03*
X152400000Y-118745000D03*
X152400000Y-116205000D03*
D12*
X161290000Y-119380000D03*
X161290000Y-116840000D03*
X161290000Y-121920000D03*
D13*
X182156000Y-113894000D03*
X182156000Y-124054000D03*
X178346000Y-113894000D03*
X178346000Y-124054000D03*
X174536000Y-113894000D03*
X174536000Y-124054000D03*
X170726000Y-124054000D03*
X170726000Y-113894000D03*
X166916000Y-113894000D03*
X166916000Y-124054000D03*
D14*
X131086000Y-121514000D03*
X131086000Y-118974000D03*
X131086000Y-116434000D03*
X133626000Y-121514000D03*
X133626000Y-118974000D03*
X133626000Y-116434000D03*
D15*
X130086000Y-109957000D03*
X132626000Y-109957000D03*
X135166000Y-109957000D03*
X137706000Y-109957000D03*
X140246000Y-109957000D03*
X142786000Y-109957000D03*
X145326000Y-109957000D03*
X147866000Y-109957000D03*
X150406000Y-109957000D03*
X152946000Y-109957000D03*
X155486000Y-109957000D03*
X158026000Y-109957000D03*
X160566000Y-109957000D03*
X163106000Y-109957000D03*
X165646000Y-109957000D03*
X168186000Y-109957000D03*
X170726000Y-109957000D03*
X173266000Y-109957000D03*
X175806000Y-109957000D03*
X178346000Y-109957000D03*
X178346000Y-94971000D03*
X175806000Y-94971000D03*
X173266000Y-94971000D03*
X170726000Y-94971000D03*
X168186000Y-94971000D03*
X165646000Y-94971000D03*
X163106000Y-94971000D03*
X160566000Y-94971000D03*
X158026000Y-94971000D03*
X155486000Y-94971000D03*
X152946000Y-94971000D03*
X150406000Y-94971000D03*
X147866000Y-94971000D03*
X145326000Y-94971000D03*
X142786000Y-94971000D03*
X140246000Y-94971000D03*
X137706000Y-94971000D03*
X135166000Y-94971000D03*
X132626000Y-94971000D03*
X130086000Y-94971000D03*
X118021000Y-103733600D03*
X120561000Y-103733600D03*
X123101000Y-103733600D03*
X125641000Y-103733600D03*
X128181000Y-103733600D03*
X130721000Y-103733600D03*
X133261000Y-103733600D03*
X135801000Y-103733600D03*
X138341000Y-103733600D03*
X140881000Y-103733600D03*
X143421000Y-103733600D03*
X145961000Y-103733600D03*
X148501000Y-103733600D03*
X151041000Y-103733600D03*
X153581000Y-103733600D03*
X156121000Y-103733600D03*
X158661000Y-103733600D03*
X161201000Y-103733600D03*
X163741000Y-103733600D03*
X166281000Y-103733600D03*
X168821000Y-103733600D03*
X171361000Y-103733600D03*
X173901000Y-103733600D03*
X176441000Y-103733600D03*
X176441000Y-88493600D03*
X173901000Y-88493600D03*
X171361000Y-88493600D03*
X168821000Y-88493600D03*
X166281000Y-88493600D03*
X163741000Y-88493600D03*
X161201000Y-88493600D03*
X158661000Y-88493600D03*
X156121000Y-88493600D03*
X153581000Y-88493600D03*
X151041000Y-88493600D03*
X148501000Y-88493600D03*
X145961000Y-88493600D03*
X143421000Y-88493600D03*
X140881000Y-88493600D03*
X138341000Y-88493600D03*
X135801000Y-88493600D03*
X133261000Y-88493600D03*
X130721000Y-88493600D03*
X128181000Y-88493600D03*
X125641000Y-88493600D03*
X123101000Y-88493600D03*
X120561000Y-88493600D03*
X118021000Y-88493600D03*
D16*
X153581000Y-106315600D02*
X155486000Y-108220600D01*
X153581000Y-103733600D02*
X153581000Y-106315600D01*
X155486000Y-109957000D02*
X155486000Y-109650700D01*
X155486000Y-109650700D02*
X155486000Y-108220600D01*
X162175800Y-115503800D02*
X170726000Y-124054000D01*
X161339100Y-115503800D02*
X162175800Y-115503800D01*
X155486000Y-109650700D02*
X161339100Y-115503800D01*
X155486000Y-100092200D02*
X153581000Y-101997200D01*
X155486000Y-94971000D02*
X155486000Y-100092200D01*
X153581000Y-103733600D02*
X153581000Y-101997200D01*
X130086000Y-94971000D02*
X130086000Y-96707400D01*
X141363300Y-118745000D02*
X144780000Y-118745000D01*
X133632600Y-111014300D02*
X141363300Y-118745000D01*
X133632600Y-107416700D02*
X133632600Y-111014300D01*
X131991000Y-105775100D02*
X133632600Y-107416700D01*
X131991000Y-98612400D02*
X131991000Y-105775100D01*
X130086000Y-96707400D02*
X131991000Y-98612400D01*
X166916000Y-108067900D02*
X166916000Y-113894000D01*
X169983000Y-105000900D02*
X166916000Y-108067900D01*
X169983000Y-101788000D02*
X169983000Y-105000900D01*
X174536000Y-97235000D02*
X169983000Y-101788000D01*
X174536000Y-92135000D02*
X174536000Y-97235000D01*
X176441000Y-90230000D02*
X174536000Y-92135000D01*
X176441000Y-88493600D02*
X176441000Y-90230000D01*
X160400700Y-117729300D02*
X161290000Y-117729300D01*
X155848900Y-122281100D02*
X160400700Y-117729300D01*
X139473100Y-122281100D02*
X155848900Y-122281100D01*
X133626000Y-116434000D02*
X139473100Y-122281100D01*
X161290000Y-116840000D02*
X161290000Y-117729300D01*
X129967800Y-120395800D02*
X131086000Y-121514000D01*
X129967800Y-111811600D02*
X129967800Y-120395800D01*
X130086000Y-111693400D02*
X129967800Y-111811600D01*
X130086000Y-109957000D02*
X130086000Y-111693400D01*
X162839700Y-119977700D02*
X162839700Y-119380000D01*
X166916000Y-124054000D02*
X162839700Y-119977700D01*
X161290000Y-119380000D02*
X162839700Y-119380000D01*
X148590000Y-117475000D02*
X152400000Y-121285000D01*
X140525000Y-117475000D02*
X148590000Y-117475000D01*
X134113900Y-111063900D02*
X140525000Y-117475000D01*
X134113900Y-105024100D02*
X134113900Y-111063900D01*
X134275000Y-104863000D02*
X134113900Y-105024100D01*
X134275000Y-99141300D02*
X134275000Y-104863000D01*
X131356000Y-96222300D02*
X134275000Y-99141300D01*
X131356000Y-94038000D02*
X131356000Y-96222300D01*
X127548000Y-90230000D02*
X131356000Y-94038000D01*
X125641000Y-90230000D02*
X127548000Y-90230000D01*
X125641000Y-88493600D02*
X125641000Y-90230000D01*
X141804200Y-121285000D02*
X144780000Y-121285000D01*
X131260500Y-110741300D02*
X141804200Y-121285000D01*
X131260500Y-108969700D02*
X131260500Y-110741300D01*
X127760800Y-105470000D02*
X131260500Y-108969700D01*
X125641000Y-105470000D02*
X127760800Y-105470000D01*
X125641000Y-103733600D02*
X125641000Y-105470000D01*
X136784200Y-106602400D02*
X135166000Y-108220600D01*
X140221400Y-106602400D02*
X136784200Y-106602400D01*
X142151000Y-104672800D02*
X140221400Y-106602400D01*
X142151000Y-102853400D02*
X142151000Y-104672800D01*
X147991800Y-97012600D02*
X142151000Y-102853400D01*
X150554500Y-97012600D02*
X147991800Y-97012600D01*
X151676000Y-95891100D02*
X150554500Y-97012600D01*
X151676000Y-94091000D02*
X151676000Y-95891100D01*
X155537000Y-90230000D02*
X151676000Y-94091000D01*
X156121000Y-90230000D02*
X155537000Y-90230000D01*
X156121000Y-88493600D02*
X156121000Y-90230000D01*
X135166000Y-109957000D02*
X135166000Y-108220600D01*
X161201000Y-88493600D02*
X161201000Y-86757200D01*
X137706000Y-109957000D02*
X137706000Y-108220600D01*
X141093400Y-108220600D02*
X137706000Y-108220600D01*
X144691000Y-104623000D02*
X141093400Y-108220600D01*
X144691000Y-102848600D02*
X144691000Y-104623000D01*
X146363600Y-101176000D02*
X144691000Y-102848600D01*
X148915200Y-101176000D02*
X146363600Y-101176000D01*
X154063500Y-96027700D02*
X148915200Y-101176000D01*
X154063500Y-93695400D02*
X154063500Y-96027700D01*
X157206400Y-90552500D02*
X154063500Y-93695400D01*
X157206400Y-87339600D02*
X157206400Y-90552500D01*
X158093900Y-86452100D02*
X157206400Y-87339600D01*
X160895900Y-86452100D02*
X158093900Y-86452100D01*
X161201000Y-86757200D02*
X160895900Y-86452100D01*
X143012300Y-107190700D02*
X140246000Y-109957000D01*
X144685500Y-107190700D02*
X143012300Y-107190700D01*
X147231000Y-104645200D02*
X144685500Y-107190700D01*
X147231000Y-102858900D02*
X147231000Y-104645200D01*
X148303700Y-101786200D02*
X147231000Y-102858900D01*
X148774500Y-101786200D02*
X148303700Y-101786200D01*
X154503900Y-96056800D02*
X148774500Y-101786200D01*
X154503900Y-93686700D02*
X154503900Y-96056800D01*
X157663900Y-90526700D02*
X154503900Y-93686700D01*
X157663900Y-87313700D02*
X157663900Y-90526700D01*
X158220400Y-86757200D02*
X157663900Y-87313700D01*
X159098900Y-86757200D02*
X158220400Y-86757200D01*
X159931000Y-87589300D02*
X159098900Y-86757200D01*
X159931000Y-89409400D02*
X159931000Y-87589300D01*
X160773300Y-90251700D02*
X159931000Y-89409400D01*
X161635600Y-90251700D02*
X160773300Y-90251700D01*
X162471000Y-89416300D02*
X161635600Y-90251700D01*
X162471000Y-87616400D02*
X162471000Y-89416300D01*
X163330200Y-86757200D02*
X162471000Y-87616400D01*
X166281000Y-86757200D02*
X163330200Y-86757200D01*
X166281000Y-88493600D02*
X166281000Y-86757200D01*
X159057900Y-90626900D02*
X158661000Y-90230000D01*
X159057900Y-97615700D02*
X159057900Y-90626900D01*
X157629100Y-99044500D02*
X159057900Y-97615700D01*
X157629100Y-107823700D02*
X157629100Y-99044500D01*
X158026000Y-108220600D02*
X157629100Y-107823700D01*
X158026000Y-109957000D02*
X158026000Y-108220600D01*
X158661000Y-88493600D02*
X158661000Y-90230000D01*
X160169100Y-107823700D02*
X160566000Y-108220600D01*
X160169100Y-100859000D02*
X160169100Y-107823700D01*
X161728000Y-99300100D02*
X160169100Y-100859000D01*
X161728000Y-92243000D02*
X161728000Y-99300100D01*
X163741000Y-90230000D02*
X161728000Y-92243000D01*
X163741000Y-88493600D02*
X163741000Y-90230000D01*
X160566000Y-109957000D02*
X160566000Y-108220600D01*
X165119000Y-106207600D02*
X163106000Y-108220600D01*
X165119000Y-101218900D02*
X165119000Y-106207600D01*
X166916000Y-99421900D02*
X165119000Y-101218900D01*
X166916000Y-92135000D02*
X166916000Y-99421900D01*
X168821000Y-90230000D02*
X166916000Y-92135000D01*
X168821000Y-88493600D02*
X168821000Y-90230000D01*
X163106000Y-109957000D02*
X163106000Y-108220600D01*
X171888000Y-92243000D02*
X173901000Y-90230000D01*
X171888000Y-97485600D02*
X171888000Y-92243000D01*
X167551000Y-101822600D02*
X171888000Y-97485600D01*
X167551000Y-106315600D02*
X167551000Y-101822600D01*
X165646000Y-108220600D02*
X167551000Y-106315600D01*
X165646000Y-109957000D02*
X165646000Y-108220600D01*
X173901000Y-88493600D02*
X173901000Y-90230000D01*
X170936600Y-105470000D02*
X168186000Y-108220600D01*
X173901000Y-105470000D02*
X170936600Y-105470000D01*
X173901000Y-103733600D02*
X173901000Y-105470000D01*
X168186000Y-109957000D02*
X168186000Y-108220600D01*
X148548000Y-93234600D02*
X150406000Y-93234600D01*
X144583000Y-89269600D02*
X148548000Y-93234600D01*
X144583000Y-87470900D02*
X144583000Y-89269600D01*
X143543300Y-86431200D02*
X144583000Y-87470900D01*
X133587000Y-86431200D02*
X143543300Y-86431200D01*
X133261000Y-86757200D02*
X133587000Y-86431200D01*
X133261000Y-88493600D02*
X133261000Y-86757200D01*
X150406000Y-94971000D02*
X150406000Y-93234600D01*
X142342700Y-96707400D02*
X147866000Y-96707400D01*
X141516000Y-95880700D02*
X142342700Y-96707400D01*
X141516000Y-94061500D02*
X141516000Y-95880700D01*
X137684500Y-90230000D02*
X141516000Y-94061500D01*
X135801000Y-90230000D02*
X137684500Y-90230000D01*
X135801000Y-88493600D02*
X135801000Y-90230000D01*
X147866000Y-94971000D02*
X147866000Y-96707400D01*
X145326000Y-92951400D02*
X145326000Y-94971000D01*
X142043000Y-89668400D02*
X145326000Y-92951400D01*
X142043000Y-87508400D02*
X142043000Y-89668400D01*
X141291800Y-86757200D02*
X142043000Y-87508400D01*
X138341000Y-86757200D02*
X141291800Y-86757200D01*
X138341000Y-88493600D02*
X138341000Y-86757200D01*
X142786000Y-92135000D02*
X142786000Y-94971000D01*
X140881000Y-90230000D02*
X142786000Y-92135000D01*
X140881000Y-88493600D02*
X140881000Y-90230000D01*
M02*
