G04 #@! TF.FileFunction,Legend,Bot*
%FSLAX46Y46*%
G04 Gerber Fmt 4.6, Leading zero omitted, Abs format (unit mm)*
G04 Created by KiCad (PCBNEW 4.0.6) date 06/10/18 11:22:36*
%MOMM*%
%LPD*%
G01*
G04 APERTURE LIST*
%ADD10C,0.100000*%
%ADD11C,0.134112*%
%ADD12C,0.142240*%
G04 APERTURE END LIST*
D10*
D11*
X113634919Y-103714369D02*
X114393291Y-104245229D01*
X113634919Y-104624414D02*
X115227499Y-104624414D01*
X115227499Y-104017717D01*
X115151662Y-103866043D01*
X115075825Y-103790206D01*
X114924151Y-103714369D01*
X114696639Y-103714369D01*
X114544965Y-103790206D01*
X114469128Y-103866043D01*
X114393291Y-104017717D01*
X114393291Y-104624414D01*
X113634919Y-102197626D02*
X113634919Y-103107671D01*
X113634919Y-102652649D02*
X115227499Y-102652649D01*
X114999988Y-102804323D01*
X114848313Y-102955997D01*
X114772476Y-103107671D01*
X114241616Y-101515091D02*
X114241616Y-100301697D01*
X115227499Y-98784954D02*
X115227499Y-99543325D01*
X114469128Y-99619162D01*
X114544965Y-99543325D01*
X114620802Y-99391651D01*
X114620802Y-99012465D01*
X114544965Y-98860791D01*
X114469128Y-98784954D01*
X114317453Y-98709117D01*
X113938268Y-98709117D01*
X113786593Y-98784954D01*
X113710756Y-98860791D01*
X113634919Y-99012465D01*
X113634919Y-99391651D01*
X113710756Y-99543325D01*
X113786593Y-99619162D01*
X113786593Y-98026582D02*
X113710756Y-97950745D01*
X113634919Y-98026582D01*
X113710756Y-98102419D01*
X113786593Y-98026582D01*
X113634919Y-98026582D01*
X114620802Y-98026582D02*
X114544965Y-97950745D01*
X114469128Y-98026582D01*
X114544965Y-98102419D01*
X114620802Y-98026582D01*
X114469128Y-98026582D01*
X113634919Y-95220609D02*
X113634919Y-96130654D01*
X113634919Y-95675632D02*
X115227499Y-95675632D01*
X114999988Y-95827306D01*
X114848313Y-95978980D01*
X114772476Y-96130654D01*
X115227499Y-94234726D02*
X115227499Y-94083051D01*
X115151662Y-93931377D01*
X115075825Y-93855540D01*
X114924151Y-93779703D01*
X114620802Y-93703866D01*
X114241616Y-93703866D01*
X113938268Y-93779703D01*
X113786593Y-93855540D01*
X113710756Y-93931377D01*
X113634919Y-94083051D01*
X113634919Y-94234726D01*
X113710756Y-94386400D01*
X113786593Y-94462237D01*
X113938268Y-94538074D01*
X114241616Y-94613911D01*
X114620802Y-94613911D01*
X114924151Y-94538074D01*
X115075825Y-94462237D01*
X115151662Y-94386400D01*
X115227499Y-94234726D01*
X113634919Y-93021331D02*
X115227499Y-93021331D01*
X114241616Y-92869657D02*
X113634919Y-92414634D01*
X114696639Y-92414634D02*
X114089942Y-93021331D01*
X115227499Y-91428752D02*
X115227499Y-91125403D01*
X115151662Y-90973729D01*
X114999988Y-90822055D01*
X114696639Y-90746217D01*
X114165779Y-90746217D01*
X113862431Y-90822055D01*
X113710756Y-90973729D01*
X113634919Y-91125403D01*
X113634919Y-91428752D01*
X113710756Y-91580426D01*
X113862431Y-91732100D01*
X114165779Y-91807937D01*
X114696639Y-91807937D01*
X114999988Y-91732100D01*
X115151662Y-91580426D01*
X115227499Y-91428752D01*
X113634919Y-90063683D02*
X115227499Y-90063683D01*
X113634919Y-89381149D02*
X114469128Y-89381149D01*
X114620802Y-89456986D01*
X114696639Y-89608660D01*
X114696639Y-89836172D01*
X114620802Y-89987846D01*
X114544965Y-90063683D01*
X113634919Y-88622777D02*
X114696639Y-88622777D01*
X114544965Y-88622777D02*
X114620802Y-88546940D01*
X114696639Y-88395266D01*
X114696639Y-88167754D01*
X114620802Y-88016080D01*
X114469128Y-87940243D01*
X113634919Y-87940243D01*
X114469128Y-87940243D02*
X114620802Y-87864406D01*
X114696639Y-87712732D01*
X114696639Y-87485220D01*
X114620802Y-87333546D01*
X114469128Y-87257709D01*
X113634919Y-87257709D01*
X110960263Y-103562694D02*
X111036100Y-103714369D01*
X111187774Y-103866043D01*
X111415286Y-104093554D01*
X111491123Y-104245229D01*
X111491123Y-104396903D01*
X111111937Y-104321066D02*
X111187774Y-104472740D01*
X111339449Y-104624414D01*
X111642797Y-104700251D01*
X112173657Y-104700251D01*
X112477006Y-104624414D01*
X112628680Y-104472740D01*
X112704517Y-104321066D01*
X112704517Y-104017717D01*
X112628680Y-103866043D01*
X112477006Y-103714369D01*
X112173657Y-103638531D01*
X111642797Y-103638531D01*
X111339449Y-103714369D01*
X111187774Y-103866043D01*
X111111937Y-104017717D01*
X111111937Y-104321066D01*
X111111937Y-102121789D02*
X111111937Y-103031834D01*
X111111937Y-102576812D02*
X112704517Y-102576812D01*
X112477006Y-102728486D01*
X112325331Y-102880160D01*
X112249494Y-103031834D01*
X111263611Y-101439254D02*
X111187774Y-101363417D01*
X111111937Y-101439254D01*
X111187774Y-101515091D01*
X111263611Y-101439254D01*
X111111937Y-101439254D01*
X112097820Y-101439254D02*
X112021983Y-101363417D01*
X111946146Y-101439254D01*
X112021983Y-101515091D01*
X112097820Y-101439254D01*
X111946146Y-101439254D01*
X111946146Y-96509841D02*
X111870309Y-96282330D01*
X111794471Y-96206493D01*
X111642797Y-96130656D01*
X111415286Y-96130656D01*
X111263611Y-96206493D01*
X111187774Y-96282330D01*
X111111937Y-96434004D01*
X111111937Y-97040701D01*
X112704517Y-97040701D01*
X112704517Y-96509841D01*
X112628680Y-96358167D01*
X112552843Y-96282330D01*
X112401169Y-96206493D01*
X112249494Y-96206493D01*
X112097820Y-96282330D01*
X112021983Y-96358167D01*
X111946146Y-96509841D01*
X111946146Y-97040701D01*
X111263611Y-94538076D02*
X111187774Y-94613913D01*
X111111937Y-94841424D01*
X111111937Y-94993098D01*
X111187774Y-95220610D01*
X111339449Y-95372284D01*
X111491123Y-95448121D01*
X111794471Y-95523958D01*
X112021983Y-95523958D01*
X112325331Y-95448121D01*
X112477006Y-95372284D01*
X112628680Y-95220610D01*
X112704517Y-94993098D01*
X112704517Y-94841424D01*
X112628680Y-94613913D01*
X112552843Y-94538076D01*
X112704517Y-94007216D02*
X112704517Y-93021333D01*
X112097820Y-93552193D01*
X112097820Y-93324681D01*
X112021983Y-93173007D01*
X111946146Y-93097170D01*
X111794471Y-93021333D01*
X111415286Y-93021333D01*
X111263611Y-93097170D01*
X111187774Y-93173007D01*
X111111937Y-93324681D01*
X111111937Y-93779704D01*
X111187774Y-93931378D01*
X111263611Y-94007216D01*
X112552843Y-92414635D02*
X112628680Y-92338798D01*
X112704517Y-92187124D01*
X112704517Y-91807938D01*
X112628680Y-91656264D01*
X112552843Y-91580427D01*
X112401169Y-91504590D01*
X112249494Y-91504590D01*
X112021983Y-91580427D01*
X111111937Y-92490473D01*
X111111937Y-91504590D01*
X112704517Y-90973730D02*
X112704517Y-89912010D01*
X111111937Y-90594544D01*
D12*
X185716333Y-106404828D02*
X185796767Y-106565695D01*
X185877200Y-106646128D01*
X186038067Y-106726562D01*
X186520667Y-106726562D01*
X186681533Y-106646128D01*
X186761967Y-106565695D01*
X186842400Y-106404828D01*
X186842400Y-106163528D01*
X186761967Y-106002662D01*
X186681533Y-105922228D01*
X186520667Y-105841795D01*
X186038067Y-105841795D01*
X185877200Y-105922228D01*
X185796767Y-106002662D01*
X185716333Y-106163528D01*
X185716333Y-106404828D01*
X185716333Y-105117895D02*
X186842400Y-105117895D01*
X186520667Y-105117895D02*
X186681533Y-105037462D01*
X186761967Y-104957029D01*
X186842400Y-104796162D01*
X186842400Y-104635295D01*
X185716333Y-104072262D02*
X186842400Y-104072262D01*
X187405433Y-104072262D02*
X187325000Y-104152696D01*
X187244567Y-104072262D01*
X187325000Y-103991829D01*
X187405433Y-104072262D01*
X187244567Y-104072262D01*
X186842400Y-102544029D02*
X185475033Y-102544029D01*
X185314167Y-102624463D01*
X185233733Y-102704896D01*
X185153300Y-102865763D01*
X185153300Y-103107063D01*
X185233733Y-103267929D01*
X185796767Y-102544029D02*
X185716333Y-102704896D01*
X185716333Y-103026629D01*
X185796767Y-103187496D01*
X185877200Y-103267929D01*
X186038067Y-103348363D01*
X186520667Y-103348363D01*
X186681533Y-103267929D01*
X186761967Y-103187496D01*
X186842400Y-103026629D01*
X186842400Y-102704896D01*
X186761967Y-102544029D01*
X185716333Y-101739696D02*
X186842400Y-101739696D01*
X187405433Y-101739696D02*
X187325000Y-101820130D01*
X187244567Y-101739696D01*
X187325000Y-101659263D01*
X187405433Y-101739696D01*
X187244567Y-101739696D01*
X186842400Y-100935363D02*
X185716333Y-100935363D01*
X186681533Y-100935363D02*
X186761967Y-100854930D01*
X186842400Y-100694063D01*
X186842400Y-100452763D01*
X186761967Y-100291897D01*
X186601100Y-100211463D01*
X185716333Y-100211463D01*
X185716333Y-98683230D02*
X186601100Y-98683230D01*
X186761967Y-98763664D01*
X186842400Y-98924530D01*
X186842400Y-99246264D01*
X186761967Y-99407130D01*
X185796767Y-98683230D02*
X185716333Y-98844097D01*
X185716333Y-99246264D01*
X185796767Y-99407130D01*
X185957633Y-99487564D01*
X186118500Y-99487564D01*
X186279367Y-99407130D01*
X186359800Y-99246264D01*
X186359800Y-98844097D01*
X186440233Y-98683230D01*
X185716333Y-97637597D02*
X185796767Y-97798464D01*
X185957633Y-97878897D01*
X187405433Y-97878897D01*
X185716333Y-95707197D02*
X187405433Y-95707197D01*
X186761967Y-95707197D02*
X186842400Y-95546331D01*
X186842400Y-95224597D01*
X186761967Y-95063731D01*
X186681533Y-94983297D01*
X186520667Y-94902864D01*
X186038067Y-94902864D01*
X185877200Y-94983297D01*
X185796767Y-95063731D01*
X185716333Y-95224597D01*
X185716333Y-95546331D01*
X185796767Y-95707197D01*
X186842400Y-94339831D02*
X185716333Y-93937664D01*
X186842400Y-93535498D02*
X185716333Y-93937664D01*
X185314167Y-94098531D01*
X185233733Y-94178964D01*
X185153300Y-94339831D01*
X186842400Y-90881198D02*
X185475033Y-90881198D01*
X185314167Y-90961632D01*
X185233733Y-91042065D01*
X185153300Y-91202932D01*
X185153300Y-91444232D01*
X185233733Y-91605098D01*
X185796767Y-90881198D02*
X185716333Y-91042065D01*
X185716333Y-91363798D01*
X185796767Y-91524665D01*
X185877200Y-91605098D01*
X186038067Y-91685532D01*
X186520667Y-91685532D01*
X186681533Y-91605098D01*
X186761967Y-91524665D01*
X186842400Y-91363798D01*
X186842400Y-91042065D01*
X186761967Y-90881198D01*
X185716333Y-89352965D02*
X186601100Y-89352965D01*
X186761967Y-89433399D01*
X186842400Y-89594265D01*
X186842400Y-89915999D01*
X186761967Y-90076865D01*
X185796767Y-89352965D02*
X185716333Y-89513832D01*
X185716333Y-89915999D01*
X185796767Y-90076865D01*
X185957633Y-90157299D01*
X186118500Y-90157299D01*
X186279367Y-90076865D01*
X186359800Y-89915999D01*
X186359800Y-89513832D01*
X186440233Y-89352965D01*
X186842400Y-87824732D02*
X185475033Y-87824732D01*
X185314167Y-87905166D01*
X185233733Y-87985599D01*
X185153300Y-88146466D01*
X185153300Y-88387766D01*
X185233733Y-88548632D01*
X185796767Y-87824732D02*
X185716333Y-87985599D01*
X185716333Y-88307332D01*
X185796767Y-88468199D01*
X185877200Y-88548632D01*
X186038067Y-88629066D01*
X186520667Y-88629066D01*
X186681533Y-88548632D01*
X186761967Y-88468199D01*
X186842400Y-88307332D01*
X186842400Y-87985599D01*
X186761967Y-87824732D01*
X186842400Y-86296499D02*
X185475033Y-86296499D01*
X185314167Y-86376933D01*
X185233733Y-86457366D01*
X185153300Y-86618233D01*
X185153300Y-86859533D01*
X185233733Y-87020399D01*
X185796767Y-86296499D02*
X185716333Y-86457366D01*
X185716333Y-86779099D01*
X185796767Y-86939966D01*
X185877200Y-87020399D01*
X186038067Y-87100833D01*
X186520667Y-87100833D01*
X186681533Y-87020399D01*
X186761967Y-86939966D01*
X186842400Y-86779099D01*
X186842400Y-86457366D01*
X186761967Y-86296499D01*
X185716333Y-85492166D02*
X186842400Y-85492166D01*
X187405433Y-85492166D02*
X187325000Y-85572600D01*
X187244567Y-85492166D01*
X187325000Y-85411733D01*
X187405433Y-85492166D01*
X187244567Y-85492166D01*
X183040443Y-116378562D02*
X184166510Y-116378562D01*
X184005643Y-116378562D02*
X184086077Y-116298129D01*
X184166510Y-116137262D01*
X184166510Y-115895962D01*
X184086077Y-115735096D01*
X183925210Y-115654662D01*
X183040443Y-115654662D01*
X183925210Y-115654662D02*
X184086077Y-115574229D01*
X184166510Y-115413362D01*
X184166510Y-115172062D01*
X184086077Y-115011196D01*
X183925210Y-114930762D01*
X183040443Y-114930762D01*
X183040443Y-113885129D02*
X183120877Y-114045996D01*
X183201310Y-114126429D01*
X183362177Y-114206863D01*
X183844777Y-114206863D01*
X184005643Y-114126429D01*
X184086077Y-114045996D01*
X184166510Y-113885129D01*
X184166510Y-113643829D01*
X184086077Y-113482963D01*
X184005643Y-113402529D01*
X183844777Y-113322096D01*
X183362177Y-113322096D01*
X183201310Y-113402529D01*
X183120877Y-113482963D01*
X183040443Y-113643829D01*
X183040443Y-113885129D01*
X183040443Y-111874296D02*
X184729543Y-111874296D01*
X183120877Y-111874296D02*
X183040443Y-112035163D01*
X183040443Y-112356896D01*
X183120877Y-112517763D01*
X183201310Y-112598196D01*
X183362177Y-112678630D01*
X183844777Y-112678630D01*
X184005643Y-112598196D01*
X184086077Y-112517763D01*
X184166510Y-112356896D01*
X184166510Y-112035163D01*
X184086077Y-111874296D01*
X183040443Y-111069963D02*
X184166510Y-111069963D01*
X184729543Y-111069963D02*
X184649110Y-111150397D01*
X184568677Y-111069963D01*
X184649110Y-110989530D01*
X184729543Y-111069963D01*
X184568677Y-111069963D01*
X184166510Y-110506930D02*
X184166510Y-109863464D01*
X183040443Y-110265630D02*
X184488243Y-110265630D01*
X184649110Y-110185197D01*
X184729543Y-110024330D01*
X184729543Y-109863464D01*
X183040443Y-109300430D02*
X184166510Y-109300430D01*
X184729543Y-109300430D02*
X184649110Y-109380864D01*
X184568677Y-109300430D01*
X184649110Y-109219997D01*
X184729543Y-109300430D01*
X184568677Y-109300430D01*
X183120877Y-107852631D02*
X183040443Y-108013497D01*
X183040443Y-108335231D01*
X183120877Y-108496097D01*
X183281743Y-108576531D01*
X183925210Y-108576531D01*
X184086077Y-108496097D01*
X184166510Y-108335231D01*
X184166510Y-108013497D01*
X184086077Y-107852631D01*
X183925210Y-107772197D01*
X183764343Y-107772197D01*
X183603477Y-108576531D01*
X183040443Y-106324397D02*
X184729543Y-106324397D01*
X183120877Y-106324397D02*
X183040443Y-106485264D01*
X183040443Y-106806997D01*
X183120877Y-106967864D01*
X183201310Y-107048297D01*
X183362177Y-107128731D01*
X183844777Y-107128731D01*
X184005643Y-107048297D01*
X184086077Y-106967864D01*
X184166510Y-106806997D01*
X184166510Y-106485264D01*
X184086077Y-106324397D01*
X183040443Y-104233131D02*
X184729543Y-104233131D01*
X184086077Y-104233131D02*
X184166510Y-104072265D01*
X184166510Y-103750531D01*
X184086077Y-103589665D01*
X184005643Y-103509231D01*
X183844777Y-103428798D01*
X183362177Y-103428798D01*
X183201310Y-103509231D01*
X183120877Y-103589665D01*
X183040443Y-103750531D01*
X183040443Y-104072265D01*
X183120877Y-104233131D01*
X184166510Y-102865765D02*
X183040443Y-102463598D01*
X184166510Y-102061432D02*
X183040443Y-102463598D01*
X182638277Y-102624465D01*
X182557843Y-102704898D01*
X182477410Y-102865765D01*
X183040443Y-100131032D02*
X184729543Y-100131032D01*
X184729543Y-99728866D01*
X184649110Y-99487566D01*
X184488243Y-99326699D01*
X184327377Y-99246266D01*
X184005643Y-99165832D01*
X183764343Y-99165832D01*
X183442610Y-99246266D01*
X183281743Y-99326699D01*
X183120877Y-99487566D01*
X183040443Y-99728866D01*
X183040443Y-100131032D01*
X183040443Y-98441932D02*
X184166510Y-98441932D01*
X184729543Y-98441932D02*
X184649110Y-98522366D01*
X184568677Y-98441932D01*
X184649110Y-98361499D01*
X184729543Y-98441932D01*
X184568677Y-98441932D01*
X183120877Y-96994133D02*
X183040443Y-97154999D01*
X183040443Y-97476733D01*
X183120877Y-97637599D01*
X183281743Y-97718033D01*
X183925210Y-97718033D01*
X184086077Y-97637599D01*
X184166510Y-97476733D01*
X184166510Y-97154999D01*
X184086077Y-96994133D01*
X183925210Y-96913699D01*
X183764343Y-96913699D01*
X183603477Y-97718033D01*
X183040443Y-96189799D02*
X184729543Y-96189799D01*
X183040443Y-95224599D02*
X184005643Y-95948499D01*
X184729543Y-95224599D02*
X183764343Y-96189799D01*
X183040443Y-93776799D02*
X183925210Y-93776799D01*
X184086077Y-93857233D01*
X184166510Y-94018099D01*
X184166510Y-94339833D01*
X184086077Y-94500699D01*
X183120877Y-93776799D02*
X183040443Y-93937666D01*
X183040443Y-94339833D01*
X183120877Y-94500699D01*
X183281743Y-94581133D01*
X183442610Y-94581133D01*
X183603477Y-94500699D01*
X183683910Y-94339833D01*
X183683910Y-93937666D01*
X183764343Y-93776799D01*
X184166510Y-93213766D02*
X184166510Y-92570300D01*
X184729543Y-92972466D02*
X183281743Y-92972466D01*
X183120877Y-92892033D01*
X183040443Y-92731166D01*
X183040443Y-92570300D01*
X184166510Y-92168133D02*
X184166510Y-91283366D01*
X183040443Y-92168133D01*
X183040443Y-91283366D01*
X183120877Y-89915999D02*
X183040443Y-90076866D01*
X183040443Y-90398599D01*
X183120877Y-90559466D01*
X183201310Y-90639899D01*
X183362177Y-90720333D01*
X183844777Y-90720333D01*
X184005643Y-90639899D01*
X184086077Y-90559466D01*
X184166510Y-90398599D01*
X184166510Y-90076866D01*
X184086077Y-89915999D01*
X183040443Y-89192099D02*
X184729543Y-89192099D01*
X183040443Y-88468199D02*
X183925210Y-88468199D01*
X184086077Y-88548633D01*
X184166510Y-88709499D01*
X184166510Y-88950799D01*
X184086077Y-89111666D01*
X184005643Y-89192099D01*
X183120877Y-87020400D02*
X183040443Y-87181266D01*
X183040443Y-87503000D01*
X183120877Y-87663866D01*
X183281743Y-87744300D01*
X183925210Y-87744300D01*
X184086077Y-87663866D01*
X184166510Y-87503000D01*
X184166510Y-87181266D01*
X184086077Y-87020400D01*
X183925210Y-86939966D01*
X183764343Y-86939966D01*
X183603477Y-87744300D01*
X184166510Y-86216066D02*
X183040443Y-86216066D01*
X184005643Y-86216066D02*
X184086077Y-86135633D01*
X184166510Y-85974766D01*
X184166510Y-85733466D01*
X184086077Y-85572600D01*
X183925210Y-85492166D01*
X183040443Y-85492166D01*
M02*
