M48
;DRILL file {KiCad 4.0.6} date 06/10/18 11:22:40
;FORMAT={-:-/ absolute / inch / decimal}
FMAT,2
INCH,TZ
T1C0.030
T2C0.032
T3C0.039
%
G90
G05
M72
T1
X5.7Y-4.575
X5.7Y-4.675
X5.7Y-4.775
X6.Y-4.575
X6.Y-4.675
X6.Y-4.775
T2
X6.35Y-4.6
X6.35Y-4.7
X6.35Y-4.8
X6.5715Y-4.484
X6.5715Y-4.884
X6.7215Y-4.484
X6.7215Y-4.884
X6.8715Y-4.484
X6.8715Y-4.884
X7.0215Y-4.484
X7.0215Y-4.884
X7.1715Y-4.484
X7.1715Y-4.884
T3
X4.6465Y-3.484
X4.6465Y-4.084
X4.7465Y-3.484
X4.7465Y-4.084
X4.8465Y-3.484
X4.8465Y-4.084
X4.9465Y-3.484
X4.9465Y-4.084
X5.0465Y-3.484
X5.0465Y-4.084
X5.1215Y-3.739
X5.1215Y-4.329
X5.1465Y-3.484
X5.1465Y-4.084
X5.1609Y-4.584
X5.1609Y-4.684
X5.1609Y-4.784
X5.2215Y-3.739
X5.2215Y-4.329
X5.2465Y-3.484
X5.2465Y-4.084
X5.2609Y-4.584
X5.2609Y-4.684
X5.2609Y-4.784
X5.3215Y-3.739
X5.3215Y-4.329
X5.3465Y-3.484
X5.3465Y-4.084
X5.4215Y-3.739
X5.4215Y-4.329
X5.4465Y-3.484
X5.4465Y-4.084
X5.5215Y-3.739
X5.5215Y-4.329
X5.5465Y-3.484
X5.5465Y-4.084
X5.6215Y-3.739
X5.6215Y-4.329
X5.6465Y-3.484
X5.6465Y-4.084
X5.7215Y-3.739
X5.7215Y-4.329
X5.7465Y-3.484
X5.7465Y-4.084
X5.8215Y-3.739
X5.8215Y-4.329
X5.8465Y-3.484
X5.8465Y-4.084
X5.9215Y-3.739
X5.9215Y-4.329
X5.9465Y-3.484
X5.9465Y-4.084
X6.0215Y-3.739
X6.0215Y-4.329
X6.0465Y-3.484
X6.0465Y-4.084
X6.1215Y-3.739
X6.1215Y-4.329
X6.1465Y-3.484
X6.1465Y-4.084
X6.2215Y-3.739
X6.2215Y-4.329
X6.2465Y-3.484
X6.2465Y-4.084
X6.3215Y-3.739
X6.3215Y-4.329
X6.3465Y-3.484
X6.3465Y-4.084
X6.4215Y-3.739
X6.4215Y-4.329
X6.4465Y-3.484
X6.4465Y-4.084
X6.5215Y-3.739
X6.5215Y-4.329
X6.5465Y-3.484
X6.5465Y-4.084
X6.6215Y-3.739
X6.6215Y-4.329
X6.6465Y-3.484
X6.6465Y-4.084
X6.7215Y-3.739
X6.7215Y-4.329
X6.7465Y-3.484
X6.7465Y-4.084
X6.8215Y-3.739
X6.8215Y-4.329
X6.8465Y-3.484
X6.8465Y-4.084
X6.9215Y-3.739
X6.9215Y-4.329
X6.9465Y-3.484
X6.9465Y-4.084
X7.0215Y-3.739
X7.0215Y-4.329
T0
M30
