G04 #@! TF.FileFunction,Legend,Top*
%FSLAX46Y46*%
G04 Gerber Fmt 4.6, Leading zero omitted, Abs format (unit mm)*
G04 Created by KiCad (PCBNEW 4.0.6) date 06/10/18 11:22:36*
%MOMM*%
%LPD*%
G01*
G04 APERTURE LIST*
%ADD10C,0.100000*%
%ADD11C,0.113792*%
%ADD12C,0.134112*%
%ADD13C,0.150000*%
%ADD14C,0.081280*%
%ADD15C,0.127000*%
%ADD16C,0.066040*%
%ADD17C,0.152400*%
%ADD18C,0.203200*%
%ADD19C,0.101600*%
G04 APERTURE END LIST*
D10*
D11*
X146189073Y-117069477D02*
X146660478Y-116598072D01*
X147064538Y-117608225D01*
X145756381Y-118554523D02*
X145756381Y-118745000D01*
X145804000Y-118840238D01*
X145851619Y-118887857D01*
X145994476Y-118983095D01*
X146184952Y-119030714D01*
X146565905Y-119030714D01*
X146661143Y-118983095D01*
X146708762Y-118935476D01*
X146756381Y-118840238D01*
X146756381Y-118649761D01*
X146708762Y-118554523D01*
X146661143Y-118506904D01*
X146565905Y-118459285D01*
X146327810Y-118459285D01*
X146232571Y-118506904D01*
X146184952Y-118554523D01*
X146137333Y-118649761D01*
X146137333Y-118840238D01*
X146184952Y-118935476D01*
X146232571Y-118983095D01*
X146327810Y-119030714D01*
X146256416Y-120614866D02*
X146593133Y-120951584D01*
X146963522Y-120648538D01*
X146896179Y-120648538D01*
X146795164Y-120614867D01*
X146626804Y-120446507D01*
X146593133Y-120345492D01*
X146593133Y-120278149D01*
X146626805Y-120177133D01*
X146795164Y-120008774D01*
X146896179Y-119975102D01*
X146963522Y-119975102D01*
X147064538Y-120008774D01*
X147232897Y-120177133D01*
X147266569Y-120278149D01*
X147266569Y-120345492D01*
X148399523Y-121372286D02*
X148399523Y-120705619D01*
X148637619Y-121753238D02*
X148875714Y-121038952D01*
X148256666Y-121038952D01*
X150736927Y-120674523D02*
X150299194Y-121112256D01*
X150265523Y-120607180D01*
X150164507Y-120708196D01*
X150063492Y-120741867D01*
X149996149Y-120741867D01*
X149895133Y-120708195D01*
X149726774Y-120539836D01*
X149693102Y-120438821D01*
X149693102Y-120371478D01*
X149726774Y-120270462D01*
X149928805Y-120068431D01*
X150029820Y-120034760D01*
X150097164Y-120034760D01*
X151328381Y-118459286D02*
X151376000Y-118506905D01*
X151423619Y-118602143D01*
X151423619Y-118840239D01*
X151376000Y-118935477D01*
X151328381Y-118983096D01*
X151233143Y-119030715D01*
X151137905Y-119030715D01*
X150995048Y-118983096D01*
X150423619Y-118411667D01*
X150423619Y-119030715D01*
X150250149Y-117615913D02*
X149846088Y-117211851D01*
X150048118Y-117413882D02*
X150755225Y-116706775D01*
X150586867Y-116740447D01*
X150452180Y-116740447D01*
X150351164Y-116706775D01*
X148542381Y-115784381D02*
X148637620Y-115784381D01*
X148732858Y-115832000D01*
X148780477Y-115879619D01*
X148828096Y-115974857D01*
X148875715Y-116165333D01*
X148875715Y-116403429D01*
X148828096Y-116593905D01*
X148780477Y-116689143D01*
X148732858Y-116736762D01*
X148637620Y-116784381D01*
X148542381Y-116784381D01*
X148447143Y-116736762D01*
X148399524Y-116689143D01*
X148351905Y-116593905D01*
X148304286Y-116403429D01*
X148304286Y-116165333D01*
X148351905Y-115974857D01*
X148399524Y-115879619D01*
X148447143Y-115832000D01*
X148542381Y-115784381D01*
X142697144Y-124987857D02*
X142911430Y-125059286D01*
X142982858Y-125130714D01*
X143054287Y-125273571D01*
X143054287Y-125487857D01*
X142982858Y-125630714D01*
X142911430Y-125702143D01*
X142768572Y-125773571D01*
X142197144Y-125773571D01*
X142197144Y-124273571D01*
X142697144Y-124273571D01*
X142840001Y-124345000D01*
X142911430Y-124416429D01*
X142982858Y-124559286D01*
X142982858Y-124702143D01*
X142911430Y-124845000D01*
X142840001Y-124916429D01*
X142697144Y-124987857D01*
X142197144Y-124987857D01*
X144340001Y-125773571D02*
X144340001Y-124987857D01*
X144268572Y-124845000D01*
X144125715Y-124773571D01*
X143840001Y-124773571D01*
X143697144Y-124845000D01*
X144340001Y-125702143D02*
X144197144Y-125773571D01*
X143840001Y-125773571D01*
X143697144Y-125702143D01*
X143625715Y-125559286D01*
X143625715Y-125416429D01*
X143697144Y-125273571D01*
X143840001Y-125202143D01*
X144197144Y-125202143D01*
X144340001Y-125130714D01*
X145054287Y-124773571D02*
X145054287Y-125773571D01*
X145054287Y-124916429D02*
X145125715Y-124845000D01*
X145268573Y-124773571D01*
X145482858Y-124773571D01*
X145625715Y-124845000D01*
X145697144Y-124987857D01*
X145697144Y-125773571D01*
X146411430Y-125773571D02*
X146411430Y-124273571D01*
X146554287Y-125202143D02*
X146982858Y-125773571D01*
X146982858Y-124773571D02*
X146411430Y-125345000D01*
X148697144Y-125702143D02*
X148911430Y-125773571D01*
X149268573Y-125773571D01*
X149411430Y-125702143D01*
X149482859Y-125630714D01*
X149554287Y-125487857D01*
X149554287Y-125345000D01*
X149482859Y-125202143D01*
X149411430Y-125130714D01*
X149268573Y-125059286D01*
X148982859Y-124987857D01*
X148840001Y-124916429D01*
X148768573Y-124845000D01*
X148697144Y-124702143D01*
X148697144Y-124559286D01*
X148768573Y-124416429D01*
X148840001Y-124345000D01*
X148982859Y-124273571D01*
X149340001Y-124273571D01*
X149554287Y-124345000D01*
X150768572Y-125702143D02*
X150625715Y-125773571D01*
X150340001Y-125773571D01*
X150197144Y-125702143D01*
X150125715Y-125559286D01*
X150125715Y-124987857D01*
X150197144Y-124845000D01*
X150340001Y-124773571D01*
X150625715Y-124773571D01*
X150768572Y-124845000D01*
X150840001Y-124987857D01*
X150840001Y-125130714D01*
X150125715Y-125273571D01*
X151697144Y-125773571D02*
X151554286Y-125702143D01*
X151482858Y-125559286D01*
X151482858Y-124273571D01*
X152840000Y-125702143D02*
X152697143Y-125773571D01*
X152411429Y-125773571D01*
X152268572Y-125702143D01*
X152197143Y-125559286D01*
X152197143Y-124987857D01*
X152268572Y-124845000D01*
X152411429Y-124773571D01*
X152697143Y-124773571D01*
X152840000Y-124845000D01*
X152911429Y-124987857D01*
X152911429Y-125130714D01*
X152197143Y-125273571D01*
X154197143Y-125702143D02*
X154054286Y-125773571D01*
X153768572Y-125773571D01*
X153625714Y-125702143D01*
X153554286Y-125630714D01*
X153482857Y-125487857D01*
X153482857Y-125059286D01*
X153554286Y-124916429D01*
X153625714Y-124845000D01*
X153768572Y-124773571D01*
X154054286Y-124773571D01*
X154197143Y-124845000D01*
X154625714Y-124773571D02*
X155197143Y-124773571D01*
X154840000Y-124273571D02*
X154840000Y-125559286D01*
X154911428Y-125702143D01*
X155054286Y-125773571D01*
X155197143Y-125773571D01*
D12*
X186443257Y-124156651D02*
X186367420Y-124080814D01*
X186291583Y-123929140D01*
X186291583Y-123549954D01*
X186367420Y-123398280D01*
X186443257Y-123322443D01*
X186594931Y-123246606D01*
X186746606Y-123246606D01*
X186974117Y-123322443D01*
X187884163Y-124232489D01*
X187884163Y-123246606D01*
X186291583Y-122715746D02*
X186291583Y-121654026D01*
X187884163Y-122336560D01*
X187808326Y-120364794D02*
X187884163Y-120516468D01*
X187884163Y-120819817D01*
X187808326Y-120971491D01*
X187732489Y-121047328D01*
X187580814Y-121123165D01*
X187125791Y-121123165D01*
X186974117Y-121047328D01*
X186898280Y-120971491D01*
X186822443Y-120819817D01*
X186822443Y-120516468D01*
X186898280Y-120364794D01*
X187884163Y-118848051D02*
X187884163Y-119758096D01*
X187884163Y-119303074D02*
X186291583Y-119303074D01*
X186519094Y-119454748D01*
X186670769Y-119606422D01*
X186746606Y-119758096D01*
X186291583Y-117482982D02*
X186291583Y-117786331D01*
X186367420Y-117938005D01*
X186443257Y-118013842D01*
X186670769Y-118165516D01*
X186974117Y-118241353D01*
X187580814Y-118241353D01*
X187732489Y-118165516D01*
X187808326Y-118089679D01*
X187884163Y-117938005D01*
X187884163Y-117634656D01*
X187808326Y-117482982D01*
X187732489Y-117407145D01*
X187580814Y-117331308D01*
X187201629Y-117331308D01*
X187049954Y-117407145D01*
X186974117Y-117482982D01*
X186898280Y-117634656D01*
X186898280Y-117938005D01*
X186974117Y-118089679D01*
X187049954Y-118165516D01*
X187201629Y-118241353D01*
X186291583Y-116345425D02*
X186291583Y-116193750D01*
X186367420Y-116042076D01*
X186443257Y-115966239D01*
X186594931Y-115890402D01*
X186898280Y-115814565D01*
X187277466Y-115814565D01*
X187580814Y-115890402D01*
X187732489Y-115966239D01*
X187808326Y-116042076D01*
X187884163Y-116193750D01*
X187884163Y-116345425D01*
X187808326Y-116497099D01*
X187732489Y-116572936D01*
X187580814Y-116648773D01*
X187277466Y-116724610D01*
X186898280Y-116724610D01*
X186594931Y-116648773D01*
X186443257Y-116572936D01*
X186367420Y-116497099D01*
X186291583Y-116345425D01*
X186215746Y-113994473D02*
X188263349Y-115359542D01*
X186291583Y-113615288D02*
X186291583Y-112629405D01*
X186898280Y-113160265D01*
X186898280Y-112932753D01*
X186974117Y-112781079D01*
X187049954Y-112705242D01*
X187201629Y-112629405D01*
X187580814Y-112629405D01*
X187732489Y-112705242D01*
X187808326Y-112781079D01*
X187884163Y-112932753D01*
X187884163Y-113387776D01*
X187808326Y-113539450D01*
X187732489Y-113615288D01*
X186443257Y-112022707D02*
X186367420Y-111946870D01*
X186291583Y-111795196D01*
X186291583Y-111416010D01*
X186367420Y-111264336D01*
X186443257Y-111188499D01*
X186594931Y-111112662D01*
X186746606Y-111112662D01*
X186974117Y-111188499D01*
X187884163Y-112098545D01*
X187884163Y-111112662D01*
X186443257Y-110505964D02*
X186367420Y-110430127D01*
X186291583Y-110278453D01*
X186291583Y-109899267D01*
X186367420Y-109747593D01*
X186443257Y-109671756D01*
X186594931Y-109595919D01*
X186746606Y-109595919D01*
X186974117Y-109671756D01*
X187884163Y-110581802D01*
X187884163Y-109595919D01*
X186215746Y-107775827D02*
X188263349Y-109140896D01*
X186822443Y-106562433D02*
X187884163Y-106562433D01*
X186215746Y-106941619D02*
X187353303Y-107320804D01*
X187353303Y-106334922D01*
X186291583Y-105424876D02*
X186291583Y-105273201D01*
X186367420Y-105121527D01*
X186443257Y-105045690D01*
X186594931Y-104969853D01*
X186898280Y-104894016D01*
X187277466Y-104894016D01*
X187580814Y-104969853D01*
X187732489Y-105045690D01*
X187808326Y-105121527D01*
X187884163Y-105273201D01*
X187884163Y-105424876D01*
X187808326Y-105576550D01*
X187732489Y-105652387D01*
X187580814Y-105728224D01*
X187277466Y-105804061D01*
X186898280Y-105804061D01*
X186594931Y-105728224D01*
X186443257Y-105652387D01*
X186367420Y-105576550D01*
X186291583Y-105424876D01*
X186291583Y-103908133D02*
X186291583Y-103756458D01*
X186367420Y-103604784D01*
X186443257Y-103528947D01*
X186594931Y-103453110D01*
X186898280Y-103377273D01*
X187277466Y-103377273D01*
X187580814Y-103453110D01*
X187732489Y-103528947D01*
X187808326Y-103604784D01*
X187884163Y-103756458D01*
X187884163Y-103908133D01*
X187808326Y-104059807D01*
X187732489Y-104135644D01*
X187580814Y-104211481D01*
X187277466Y-104287318D01*
X186898280Y-104287318D01*
X186594931Y-104211481D01*
X186443257Y-104135644D01*
X186367420Y-104059807D01*
X186291583Y-103908133D01*
X186215746Y-101557181D02*
X188263349Y-102922250D01*
X186974117Y-100798810D02*
X186898280Y-100950484D01*
X186822443Y-101026321D01*
X186670769Y-101102158D01*
X186594931Y-101102158D01*
X186443257Y-101026321D01*
X186367420Y-100950484D01*
X186291583Y-100798810D01*
X186291583Y-100495461D01*
X186367420Y-100343787D01*
X186443257Y-100267950D01*
X186594931Y-100192113D01*
X186670769Y-100192113D01*
X186822443Y-100267950D01*
X186898280Y-100343787D01*
X186974117Y-100495461D01*
X186974117Y-100798810D01*
X187049954Y-100950484D01*
X187125791Y-101026321D01*
X187277466Y-101102158D01*
X187580814Y-101102158D01*
X187732489Y-101026321D01*
X187808326Y-100950484D01*
X187884163Y-100798810D01*
X187884163Y-100495461D01*
X187808326Y-100343787D01*
X187732489Y-100267950D01*
X187580814Y-100192113D01*
X187277466Y-100192113D01*
X187125791Y-100267950D01*
X187049954Y-100343787D01*
X186974117Y-100495461D01*
X186291583Y-99206230D02*
X186291583Y-99054555D01*
X186367420Y-98902881D01*
X186443257Y-98827044D01*
X186594931Y-98751207D01*
X186898280Y-98675370D01*
X187277466Y-98675370D01*
X187580814Y-98751207D01*
X187732489Y-98827044D01*
X187808326Y-98902881D01*
X187884163Y-99054555D01*
X187884163Y-99206230D01*
X187808326Y-99357904D01*
X187732489Y-99433741D01*
X187580814Y-99509578D01*
X187277466Y-99585415D01*
X186898280Y-99585415D01*
X186594931Y-99509578D01*
X186443257Y-99433741D01*
X186367420Y-99357904D01*
X186291583Y-99206230D01*
X186291583Y-97689487D02*
X186291583Y-97537812D01*
X186367420Y-97386138D01*
X186443257Y-97310301D01*
X186594931Y-97234464D01*
X186898280Y-97158627D01*
X187277466Y-97158627D01*
X187580814Y-97234464D01*
X187732489Y-97310301D01*
X187808326Y-97386138D01*
X187884163Y-97537812D01*
X187884163Y-97689487D01*
X187808326Y-97841161D01*
X187732489Y-97916998D01*
X187580814Y-97992835D01*
X187277466Y-98068672D01*
X186898280Y-98068672D01*
X186594931Y-97992835D01*
X186443257Y-97916998D01*
X186367420Y-97841161D01*
X186291583Y-97689487D01*
X187429140Y-95338535D02*
X187429140Y-94580164D01*
X187884163Y-95490210D02*
X186291583Y-94959350D01*
X187884163Y-94428490D01*
X187884163Y-93215095D02*
X186291583Y-93215095D01*
X187808326Y-93215095D02*
X187884163Y-93366769D01*
X187884163Y-93670118D01*
X187808326Y-93821792D01*
X187732489Y-93897629D01*
X187580814Y-93973466D01*
X187125791Y-93973466D01*
X186974117Y-93897629D01*
X186898280Y-93821792D01*
X186822443Y-93670118D01*
X186822443Y-93366769D01*
X186898280Y-93215095D01*
X187884163Y-91774189D02*
X187049954Y-91774189D01*
X186898280Y-91850026D01*
X186822443Y-92001700D01*
X186822443Y-92305049D01*
X186898280Y-92456723D01*
X187808326Y-91774189D02*
X187884163Y-91925863D01*
X187884163Y-92305049D01*
X187808326Y-92456723D01*
X187656651Y-92532560D01*
X187504977Y-92532560D01*
X187353303Y-92456723D01*
X187277466Y-92305049D01*
X187277466Y-91925863D01*
X187201629Y-91774189D01*
X186822443Y-91015817D02*
X188415023Y-91015817D01*
X186898280Y-91015817D02*
X186822443Y-90864143D01*
X186822443Y-90560794D01*
X186898280Y-90409120D01*
X186974117Y-90333283D01*
X187125791Y-90257446D01*
X187580814Y-90257446D01*
X187732489Y-90333283D01*
X187808326Y-90409120D01*
X187884163Y-90560794D01*
X187884163Y-90864143D01*
X187808326Y-91015817D01*
X186822443Y-89802423D02*
X186822443Y-89195726D01*
X186291583Y-89574911D02*
X187656651Y-89574911D01*
X187808326Y-89499074D01*
X187884163Y-89347400D01*
X187884163Y-89195726D01*
X187808326Y-88058168D02*
X187884163Y-88209842D01*
X187884163Y-88513191D01*
X187808326Y-88664865D01*
X187656651Y-88740702D01*
X187049954Y-88740702D01*
X186898280Y-88664865D01*
X186822443Y-88513191D01*
X186822443Y-88209842D01*
X186898280Y-88058168D01*
X187049954Y-87982331D01*
X187201629Y-87982331D01*
X187353303Y-88740702D01*
X187884163Y-87299796D02*
X186822443Y-87299796D01*
X187125791Y-87299796D02*
X186974117Y-87223959D01*
X186898280Y-87148122D01*
X186822443Y-86996448D01*
X186822443Y-86844773D01*
D13*
X135166100Y-118973600D02*
X143000000Y-118973600D01*
D11*
X135423487Y-116416667D02*
X135487833Y-116352320D01*
X135616527Y-116287973D01*
X135938260Y-116287973D01*
X136066953Y-116352320D01*
X136131300Y-116416667D01*
X136195647Y-116545360D01*
X136195647Y-116674053D01*
X136131300Y-116867093D01*
X135359140Y-117639253D01*
X136195647Y-117639253D01*
X136646073Y-116287973D02*
X137546926Y-116287973D01*
X136967806Y-117639253D01*
X138640819Y-117574907D02*
X138512126Y-117639253D01*
X138254739Y-117639253D01*
X138126046Y-117574907D01*
X138061699Y-117510560D01*
X137997353Y-117381867D01*
X137997353Y-116995787D01*
X138061699Y-116867093D01*
X138126046Y-116802747D01*
X138254739Y-116738400D01*
X138512126Y-116738400D01*
X138640819Y-116802747D01*
X139091246Y-116287973D02*
X139927753Y-116287973D01*
X139477326Y-116802747D01*
X139670366Y-116802747D01*
X139799059Y-116867093D01*
X139863406Y-116931440D01*
X139927753Y-117060133D01*
X139927753Y-117381867D01*
X139863406Y-117510560D01*
X139799059Y-117574907D01*
X139670366Y-117639253D01*
X139284286Y-117639253D01*
X139155593Y-117574907D01*
X139091246Y-117510560D01*
X140442526Y-116416667D02*
X140506872Y-116352320D01*
X140635566Y-116287973D01*
X140957299Y-116287973D01*
X141085992Y-116352320D01*
X141150339Y-116416667D01*
X141214686Y-116545360D01*
X141214686Y-116674053D01*
X141150339Y-116867093D01*
X140378179Y-117639253D01*
X141214686Y-117639253D01*
X141729459Y-116416667D02*
X141793805Y-116352320D01*
X141922499Y-116287973D01*
X142244232Y-116287973D01*
X142372925Y-116352320D01*
X142437272Y-116416667D01*
X142501619Y-116545360D01*
X142501619Y-116674053D01*
X142437272Y-116867093D01*
X141665112Y-117639253D01*
X142501619Y-117639253D01*
X136531773Y-121555933D02*
X136403080Y-121491587D01*
X136338733Y-121427240D01*
X136274387Y-121298547D01*
X136274387Y-120912467D01*
X136338733Y-120783773D01*
X136403080Y-120719427D01*
X136531773Y-120655080D01*
X136724813Y-120655080D01*
X136853507Y-120719427D01*
X136917853Y-120783773D01*
X136982200Y-120912467D01*
X136982200Y-121298547D01*
X136917853Y-121427240D01*
X136853507Y-121491587D01*
X136724813Y-121555933D01*
X136531773Y-121555933D01*
X137368280Y-120655080D02*
X137883054Y-120655080D01*
X137561320Y-120204653D02*
X137561320Y-121362893D01*
X137625667Y-121491587D01*
X137754360Y-121555933D01*
X137883054Y-121555933D01*
X138333480Y-121555933D02*
X138333480Y-120204653D01*
X138912600Y-121555933D02*
X138912600Y-120848120D01*
X138848254Y-120719427D01*
X138719560Y-120655080D01*
X138526520Y-120655080D01*
X138397827Y-120719427D01*
X138333480Y-120783773D01*
X140070841Y-121491587D02*
X139942147Y-121555933D01*
X139684761Y-121555933D01*
X139556067Y-121491587D01*
X139491721Y-121362893D01*
X139491721Y-120848120D01*
X139556067Y-120719427D01*
X139684761Y-120655080D01*
X139942147Y-120655080D01*
X140070841Y-120719427D01*
X140135187Y-120848120D01*
X140135187Y-120976813D01*
X139491721Y-121105507D01*
X140714307Y-121555933D02*
X140714307Y-120655080D01*
X140714307Y-120912467D02*
X140778654Y-120783773D01*
X140843001Y-120719427D01*
X140971694Y-120655080D01*
X141100387Y-120655080D01*
D14*
X185920138Y-91438790D02*
X185276671Y-91438790D01*
X185460519Y-91438790D02*
X185368595Y-91392829D01*
X185322633Y-91346867D01*
X185276671Y-91254943D01*
X185276671Y-91163019D01*
X185874176Y-90473590D02*
X185920138Y-90565514D01*
X185920138Y-90749362D01*
X185874176Y-90841285D01*
X185782252Y-90887247D01*
X185414557Y-90887247D01*
X185322633Y-90841285D01*
X185276671Y-90749362D01*
X185276671Y-90565514D01*
X185322633Y-90473590D01*
X185414557Y-90427628D01*
X185506481Y-90427628D01*
X185598405Y-90887247D01*
X185276671Y-90105895D02*
X185920138Y-89876086D01*
X185276671Y-89646276D01*
X185920138Y-88037611D02*
X185920138Y-88589153D01*
X185920138Y-88313382D02*
X184954938Y-88313382D01*
X185092824Y-88405306D01*
X185184748Y-88497230D01*
X185230710Y-88589153D01*
X185828214Y-87623953D02*
X185874176Y-87577992D01*
X185920138Y-87623953D01*
X185874176Y-87669915D01*
X185828214Y-87623953D01*
X185920138Y-87623953D01*
X185920138Y-86658754D02*
X185920138Y-87210296D01*
X185920138Y-86934525D02*
X184954938Y-86934525D01*
X185092824Y-87026449D01*
X185184748Y-87118373D01*
X185230710Y-87210296D01*
D13*
X149860000Y-118745000D02*
X147320000Y-118745000D01*
X148590000Y-117475000D02*
X147320000Y-118745000D01*
X148590000Y-117475000D02*
X149860000Y-118745000D01*
X148590000Y-118745000D02*
X148590000Y-120650000D01*
X151765000Y-118745000D02*
G75*
G03X151765000Y-118745000I-3175000J0D01*
G01*
X143640000Y-115295000D02*
X145140000Y-113795000D01*
X153540000Y-113795000D02*
X153540000Y-123695000D01*
X143640000Y-113795000D02*
X153540000Y-113795000D01*
X143640000Y-123695000D02*
X143640000Y-113795000D01*
X153540000Y-123695000D02*
X143640000Y-123695000D01*
D15*
X159639000Y-117287040D02*
X159639000Y-121472960D01*
X161163000Y-118244620D02*
X161163000Y-117977920D01*
X161163000Y-120782080D02*
X161163000Y-120515380D01*
X162428124Y-121792903D02*
G75*
G03X162427920Y-116967000I-1138124J2412903D01*
G01*
X160152194Y-116968717D02*
G75*
G03X159639000Y-117287040I1140346J-2411283D01*
G01*
X159641427Y-121473617D02*
G75*
G03X160180020Y-121803160I1651113J2093617D01*
G01*
D16*
X181851200Y-122149000D02*
X181851200Y-123012600D01*
X181851200Y-123012600D02*
X182460800Y-123012600D01*
X182460800Y-122149000D02*
X182460800Y-123012600D01*
X181851200Y-122149000D02*
X182460800Y-122149000D01*
X181851200Y-114935400D02*
X181851200Y-115799000D01*
X181851200Y-115799000D02*
X182460800Y-115799000D01*
X182460800Y-114935400D02*
X182460800Y-115799000D01*
X181851200Y-114935400D02*
X182460800Y-114935400D01*
D17*
X181267000Y-115799000D02*
X183045000Y-115799000D01*
X183299000Y-116053000D02*
X183299000Y-116434000D01*
X183172000Y-116561000D02*
X183299000Y-116434000D01*
X181013000Y-116053000D02*
X181013000Y-116434000D01*
X181140000Y-116561000D02*
X181013000Y-116434000D01*
X183172000Y-121387000D02*
X183299000Y-121514000D01*
X183172000Y-121387000D02*
X183172000Y-116561000D01*
X181140000Y-121387000D02*
X181013000Y-121514000D01*
X181140000Y-121387000D02*
X181140000Y-116561000D01*
X183299000Y-121895000D02*
X183299000Y-121514000D01*
X181013000Y-121895000D02*
X181013000Y-121514000D01*
X181267000Y-122149000D02*
X183045000Y-122149000D01*
X183299000Y-116053000D02*
G75*
G03X183045000Y-115799000I-254000J0D01*
G01*
X181267000Y-115799000D02*
G75*
G03X181013000Y-116053000I0J-254000D01*
G01*
X181013000Y-121895000D02*
G75*
G03X181267000Y-122149000I254000J0D01*
G01*
X183045000Y-122149000D02*
G75*
G03X183299000Y-121895000I0J254000D01*
G01*
D16*
X178041200Y-122149000D02*
X178041200Y-123012600D01*
X178041200Y-123012600D02*
X178650800Y-123012600D01*
X178650800Y-122149000D02*
X178650800Y-123012600D01*
X178041200Y-122149000D02*
X178650800Y-122149000D01*
X178041200Y-114935400D02*
X178041200Y-115799000D01*
X178041200Y-115799000D02*
X178650800Y-115799000D01*
X178650800Y-114935400D02*
X178650800Y-115799000D01*
X178041200Y-114935400D02*
X178650800Y-114935400D01*
D17*
X177457000Y-115799000D02*
X179235000Y-115799000D01*
X179489000Y-116053000D02*
X179489000Y-116434000D01*
X179362000Y-116561000D02*
X179489000Y-116434000D01*
X177203000Y-116053000D02*
X177203000Y-116434000D01*
X177330000Y-116561000D02*
X177203000Y-116434000D01*
X179362000Y-121387000D02*
X179489000Y-121514000D01*
X179362000Y-121387000D02*
X179362000Y-116561000D01*
X177330000Y-121387000D02*
X177203000Y-121514000D01*
X177330000Y-121387000D02*
X177330000Y-116561000D01*
X179489000Y-121895000D02*
X179489000Y-121514000D01*
X177203000Y-121895000D02*
X177203000Y-121514000D01*
X177457000Y-122149000D02*
X179235000Y-122149000D01*
X179489000Y-116053000D02*
G75*
G03X179235000Y-115799000I-254000J0D01*
G01*
X177457000Y-115799000D02*
G75*
G03X177203000Y-116053000I0J-254000D01*
G01*
X177203000Y-121895000D02*
G75*
G03X177457000Y-122149000I254000J0D01*
G01*
X179235000Y-122149000D02*
G75*
G03X179489000Y-121895000I0J254000D01*
G01*
D16*
X174231200Y-122149000D02*
X174231200Y-123012600D01*
X174231200Y-123012600D02*
X174840800Y-123012600D01*
X174840800Y-122149000D02*
X174840800Y-123012600D01*
X174231200Y-122149000D02*
X174840800Y-122149000D01*
X174231200Y-114935400D02*
X174231200Y-115799000D01*
X174231200Y-115799000D02*
X174840800Y-115799000D01*
X174840800Y-114935400D02*
X174840800Y-115799000D01*
X174231200Y-114935400D02*
X174840800Y-114935400D01*
D17*
X173647000Y-115799000D02*
X175425000Y-115799000D01*
X175679000Y-116053000D02*
X175679000Y-116434000D01*
X175552000Y-116561000D02*
X175679000Y-116434000D01*
X173393000Y-116053000D02*
X173393000Y-116434000D01*
X173520000Y-116561000D02*
X173393000Y-116434000D01*
X175552000Y-121387000D02*
X175679000Y-121514000D01*
X175552000Y-121387000D02*
X175552000Y-116561000D01*
X173520000Y-121387000D02*
X173393000Y-121514000D01*
X173520000Y-121387000D02*
X173520000Y-116561000D01*
X175679000Y-121895000D02*
X175679000Y-121514000D01*
X173393000Y-121895000D02*
X173393000Y-121514000D01*
X173647000Y-122149000D02*
X175425000Y-122149000D01*
X175679000Y-116053000D02*
G75*
G03X175425000Y-115799000I-254000J0D01*
G01*
X173647000Y-115799000D02*
G75*
G03X173393000Y-116053000I0J-254000D01*
G01*
X173393000Y-121895000D02*
G75*
G03X173647000Y-122149000I254000J0D01*
G01*
X175425000Y-122149000D02*
G75*
G03X175679000Y-121895000I0J254000D01*
G01*
D16*
X171030800Y-115799000D02*
X171030800Y-114935400D01*
X171030800Y-114935400D02*
X170421200Y-114935400D01*
X170421200Y-115799000D02*
X170421200Y-114935400D01*
X171030800Y-115799000D02*
X170421200Y-115799000D01*
X171030800Y-123012600D02*
X171030800Y-122149000D01*
X171030800Y-122149000D02*
X170421200Y-122149000D01*
X170421200Y-123012600D02*
X170421200Y-122149000D01*
X171030800Y-123012600D02*
X170421200Y-123012600D01*
D17*
X171615000Y-122149000D02*
X169837000Y-122149000D01*
X169583000Y-121895000D02*
X169583000Y-121514000D01*
X169710000Y-121387000D02*
X169583000Y-121514000D01*
X171869000Y-121895000D02*
X171869000Y-121514000D01*
X171742000Y-121387000D02*
X171869000Y-121514000D01*
X169710000Y-116561000D02*
X169583000Y-116434000D01*
X169710000Y-116561000D02*
X169710000Y-121387000D01*
X171742000Y-116561000D02*
X171869000Y-116434000D01*
X171742000Y-116561000D02*
X171742000Y-121387000D01*
X169583000Y-116053000D02*
X169583000Y-116434000D01*
X171869000Y-116053000D02*
X171869000Y-116434000D01*
X171615000Y-115799000D02*
X169837000Y-115799000D01*
X169583000Y-121895000D02*
G75*
G03X169837000Y-122149000I254000J0D01*
G01*
X171615000Y-122149000D02*
G75*
G03X171869000Y-121895000I0J254000D01*
G01*
X171869000Y-116053000D02*
G75*
G03X171615000Y-115799000I-254000J0D01*
G01*
X169837000Y-115799000D02*
G75*
G03X169583000Y-116053000I0J-254000D01*
G01*
D16*
X166611200Y-122149000D02*
X166611200Y-123012600D01*
X166611200Y-123012600D02*
X167220800Y-123012600D01*
X167220800Y-122149000D02*
X167220800Y-123012600D01*
X166611200Y-122149000D02*
X167220800Y-122149000D01*
X166611200Y-114935400D02*
X166611200Y-115799000D01*
X166611200Y-115799000D02*
X167220800Y-115799000D01*
X167220800Y-114935400D02*
X167220800Y-115799000D01*
X166611200Y-114935400D02*
X167220800Y-114935400D01*
D17*
X166027000Y-115799000D02*
X167805000Y-115799000D01*
X168059000Y-116053000D02*
X168059000Y-116434000D01*
X167932000Y-116561000D02*
X168059000Y-116434000D01*
X165773000Y-116053000D02*
X165773000Y-116434000D01*
X165900000Y-116561000D02*
X165773000Y-116434000D01*
X167932000Y-121387000D02*
X168059000Y-121514000D01*
X167932000Y-121387000D02*
X167932000Y-116561000D01*
X165900000Y-121387000D02*
X165773000Y-121514000D01*
X165900000Y-121387000D02*
X165900000Y-116561000D01*
X168059000Y-121895000D02*
X168059000Y-121514000D01*
X165773000Y-121895000D02*
X165773000Y-121514000D01*
X166027000Y-122149000D02*
X167805000Y-122149000D01*
X168059000Y-116053000D02*
G75*
G03X167805000Y-115799000I-254000J0D01*
G01*
X166027000Y-115799000D02*
G75*
G03X165773000Y-116053000I0J-254000D01*
G01*
X165773000Y-121895000D02*
G75*
G03X166027000Y-122149000I254000J0D01*
G01*
X167805000Y-122149000D02*
G75*
G03X168059000Y-121895000I0J254000D01*
G01*
D16*
X132546500Y-121069500D02*
X132546500Y-120053500D01*
X132546500Y-120053500D02*
X132165500Y-120053500D01*
X132165500Y-121069500D02*
X132165500Y-120053500D01*
X132546500Y-121069500D02*
X132165500Y-121069500D01*
X132546500Y-120434500D02*
X132546500Y-119418500D01*
X132546500Y-119418500D02*
X132165500Y-119418500D01*
X132165500Y-120434500D02*
X132165500Y-119418500D01*
X132546500Y-120434500D02*
X132165500Y-120434500D01*
X132546500Y-119799500D02*
X132546500Y-118783500D01*
X132546500Y-118783500D02*
X132165500Y-118783500D01*
X132165500Y-119799500D02*
X132165500Y-118783500D01*
X132546500Y-119799500D02*
X132165500Y-119799500D01*
D15*
X134103520Y-123472340D02*
X134103520Y-114475660D01*
X134103520Y-114475660D02*
X130608480Y-114475660D01*
X130608480Y-114475660D02*
X130608480Y-123472340D01*
X130608480Y-123472340D02*
X134103520Y-123472340D01*
X131606700Y-117226480D02*
X131606700Y-120972980D01*
X131606700Y-120972980D02*
X133105300Y-120972980D01*
X133105300Y-120972980D02*
X133105300Y-117226480D01*
X133105300Y-117226480D02*
X131606700Y-117226480D01*
D17*
X175171000Y-93703540D02*
X176441000Y-93703540D01*
X176441000Y-93703540D02*
X177076000Y-94336000D01*
X177076000Y-94336000D02*
X177076000Y-95606000D01*
X177076000Y-95606000D02*
X176441000Y-96241000D01*
X171996000Y-94336000D02*
X172631000Y-93703540D01*
X172631000Y-93703540D02*
X173901000Y-93703540D01*
X173901000Y-93703540D02*
X174536000Y-94336000D01*
X174536000Y-94336000D02*
X174536000Y-95606000D01*
X174536000Y-95606000D02*
X173901000Y-96241000D01*
X173901000Y-96241000D02*
X172631000Y-96241000D01*
X172631000Y-96241000D02*
X171996000Y-95606000D01*
X175171000Y-93703540D02*
X174536000Y-94336000D01*
X174536000Y-95606000D02*
X175171000Y-96241000D01*
X176441000Y-96241000D02*
X175171000Y-96241000D01*
X167551000Y-93703540D02*
X168821000Y-93703540D01*
X168821000Y-93703540D02*
X169456000Y-94336000D01*
X169456000Y-94336000D02*
X169456000Y-95606000D01*
X169456000Y-95606000D02*
X168821000Y-96241000D01*
X169456000Y-94336000D02*
X170091000Y-93703540D01*
X170091000Y-93703540D02*
X171361000Y-93703540D01*
X171361000Y-93703540D02*
X171996000Y-94336000D01*
X171996000Y-94336000D02*
X171996000Y-95606000D01*
X171996000Y-95606000D02*
X171361000Y-96241000D01*
X171361000Y-96241000D02*
X170091000Y-96241000D01*
X170091000Y-96241000D02*
X169456000Y-95606000D01*
X164376000Y-94336000D02*
X165011000Y-93703540D01*
X165011000Y-93703540D02*
X166281000Y-93703540D01*
X166281000Y-93703540D02*
X166916000Y-94336000D01*
X166916000Y-94336000D02*
X166916000Y-95606000D01*
X166916000Y-95606000D02*
X166281000Y-96241000D01*
X166281000Y-96241000D02*
X165011000Y-96241000D01*
X165011000Y-96241000D02*
X164376000Y-95606000D01*
X167551000Y-93703540D02*
X166916000Y-94336000D01*
X166916000Y-95606000D02*
X167551000Y-96241000D01*
X168821000Y-96241000D02*
X167551000Y-96241000D01*
X159931000Y-93703540D02*
X161201000Y-93703540D01*
X161201000Y-93703540D02*
X161836000Y-94336000D01*
X161836000Y-94336000D02*
X161836000Y-95606000D01*
X161836000Y-95606000D02*
X161201000Y-96241000D01*
X161836000Y-94336000D02*
X162471000Y-93703540D01*
X162471000Y-93703540D02*
X163741000Y-93703540D01*
X163741000Y-93703540D02*
X164376000Y-94336000D01*
X164376000Y-94336000D02*
X164376000Y-95606000D01*
X164376000Y-95606000D02*
X163741000Y-96241000D01*
X163741000Y-96241000D02*
X162471000Y-96241000D01*
X162471000Y-96241000D02*
X161836000Y-95606000D01*
X156756000Y-94336000D02*
X157391000Y-93703540D01*
X157391000Y-93703540D02*
X158661000Y-93703540D01*
X158661000Y-93703540D02*
X159296000Y-94336000D01*
X159296000Y-94336000D02*
X159296000Y-95606000D01*
X159296000Y-95606000D02*
X158661000Y-96241000D01*
X158661000Y-96241000D02*
X157391000Y-96241000D01*
X157391000Y-96241000D02*
X156756000Y-95606000D01*
X159931000Y-93703540D02*
X159296000Y-94336000D01*
X159296000Y-95606000D02*
X159931000Y-96241000D01*
X161201000Y-96241000D02*
X159931000Y-96241000D01*
X152311000Y-93703540D02*
X153581000Y-93703540D01*
X153581000Y-93703540D02*
X154216000Y-94336000D01*
X154216000Y-94336000D02*
X154216000Y-95606000D01*
X154216000Y-95606000D02*
X153581000Y-96241000D01*
X154216000Y-94336000D02*
X154851000Y-93703540D01*
X154851000Y-93703540D02*
X156121000Y-93703540D01*
X156121000Y-93703540D02*
X156756000Y-94336000D01*
X156756000Y-94336000D02*
X156756000Y-95606000D01*
X156756000Y-95606000D02*
X156121000Y-96241000D01*
X156121000Y-96241000D02*
X154851000Y-96241000D01*
X154851000Y-96241000D02*
X154216000Y-95606000D01*
X149136000Y-94336000D02*
X149771000Y-93703540D01*
X149771000Y-93703540D02*
X151041000Y-93703540D01*
X151041000Y-93703540D02*
X151676000Y-94336000D01*
X151676000Y-94336000D02*
X151676000Y-95606000D01*
X151676000Y-95606000D02*
X151041000Y-96241000D01*
X151041000Y-96241000D02*
X149771000Y-96241000D01*
X149771000Y-96241000D02*
X149136000Y-95606000D01*
X152311000Y-93703540D02*
X151676000Y-94336000D01*
X151676000Y-95606000D02*
X152311000Y-96241000D01*
X153581000Y-96241000D02*
X152311000Y-96241000D01*
X144691000Y-93703540D02*
X145961000Y-93703540D01*
X145961000Y-93703540D02*
X146596000Y-94336000D01*
X146596000Y-94336000D02*
X146596000Y-95606000D01*
X146596000Y-95606000D02*
X145961000Y-96241000D01*
X146596000Y-94336000D02*
X147231000Y-93703540D01*
X147231000Y-93703540D02*
X148501000Y-93703540D01*
X148501000Y-93703540D02*
X149136000Y-94336000D01*
X149136000Y-94336000D02*
X149136000Y-95606000D01*
X149136000Y-95606000D02*
X148501000Y-96241000D01*
X148501000Y-96241000D02*
X147231000Y-96241000D01*
X147231000Y-96241000D02*
X146596000Y-95606000D01*
X141516000Y-94336000D02*
X142151000Y-93703540D01*
X142151000Y-93703540D02*
X143421000Y-93703540D01*
X143421000Y-93703540D02*
X144056000Y-94336000D01*
X144056000Y-94336000D02*
X144056000Y-95606000D01*
X144056000Y-95606000D02*
X143421000Y-96241000D01*
X143421000Y-96241000D02*
X142151000Y-96241000D01*
X142151000Y-96241000D02*
X141516000Y-95606000D01*
X144691000Y-93703540D02*
X144056000Y-94336000D01*
X144056000Y-95606000D02*
X144691000Y-96241000D01*
X145961000Y-96241000D02*
X144691000Y-96241000D01*
X137071000Y-93703540D02*
X138341000Y-93703540D01*
X138341000Y-93703540D02*
X138976000Y-94336000D01*
X138976000Y-94336000D02*
X138976000Y-95606000D01*
X138976000Y-95606000D02*
X138341000Y-96241000D01*
X138976000Y-94336000D02*
X139611000Y-93703540D01*
X139611000Y-93703540D02*
X140881000Y-93703540D01*
X140881000Y-93703540D02*
X141516000Y-94336000D01*
X141516000Y-94336000D02*
X141516000Y-95606000D01*
X141516000Y-95606000D02*
X140881000Y-96241000D01*
X140881000Y-96241000D02*
X139611000Y-96241000D01*
X139611000Y-96241000D02*
X138976000Y-95606000D01*
X133896000Y-94336000D02*
X134531000Y-93703540D01*
X134531000Y-93703540D02*
X135801000Y-93703540D01*
X135801000Y-93703540D02*
X136436000Y-94336000D01*
X136436000Y-94336000D02*
X136436000Y-95606000D01*
X136436000Y-95606000D02*
X135801000Y-96241000D01*
X135801000Y-96241000D02*
X134531000Y-96241000D01*
X134531000Y-96241000D02*
X133896000Y-95606000D01*
X137071000Y-93703540D02*
X136436000Y-94336000D01*
X136436000Y-95606000D02*
X137071000Y-96241000D01*
X138341000Y-96241000D02*
X137071000Y-96241000D01*
X129451000Y-93703540D02*
X130721000Y-93703540D01*
X130721000Y-93703540D02*
X131356000Y-94336000D01*
X131356000Y-94336000D02*
X131356000Y-95606000D01*
X131356000Y-95606000D02*
X130721000Y-96241000D01*
X131356000Y-94336000D02*
X131991000Y-93703540D01*
X131991000Y-93703540D02*
X133261000Y-93703540D01*
X133261000Y-93703540D02*
X133896000Y-94336000D01*
X133896000Y-94336000D02*
X133896000Y-95606000D01*
X133896000Y-95606000D02*
X133261000Y-96241000D01*
X133261000Y-96241000D02*
X131991000Y-96241000D01*
X131991000Y-96241000D02*
X131356000Y-95606000D01*
X128816000Y-94336000D02*
X128816000Y-95606000D01*
X129451000Y-93703540D02*
X128816000Y-94336000D01*
X128816000Y-95606000D02*
X129451000Y-96241000D01*
X130721000Y-96241000D02*
X129451000Y-96241000D01*
X177711000Y-93703540D02*
X178981000Y-93703540D01*
X178981000Y-93703540D02*
X179616000Y-94336000D01*
X179616000Y-94336000D02*
X179616000Y-95606000D01*
X179616000Y-95606000D02*
X178981000Y-96241000D01*
X177711000Y-93703540D02*
X177076000Y-94336000D01*
X177076000Y-95606000D02*
X177711000Y-96241000D01*
X178981000Y-96241000D02*
X177711000Y-96241000D01*
X175171000Y-108687000D02*
X176441000Y-108687000D01*
X176441000Y-108687000D02*
X177076000Y-109322000D01*
X177076000Y-109322000D02*
X177076000Y-110592000D01*
X177076000Y-110592000D02*
X176441000Y-111224460D01*
X171996000Y-109322000D02*
X172631000Y-108687000D01*
X172631000Y-108687000D02*
X173901000Y-108687000D01*
X173901000Y-108687000D02*
X174536000Y-109322000D01*
X174536000Y-109322000D02*
X174536000Y-110592000D01*
X174536000Y-110592000D02*
X173901000Y-111224460D01*
X173901000Y-111224460D02*
X172631000Y-111224460D01*
X172631000Y-111224460D02*
X171996000Y-110592000D01*
X175171000Y-108687000D02*
X174536000Y-109322000D01*
X174536000Y-110592000D02*
X175171000Y-111224460D01*
X176441000Y-111224460D02*
X175171000Y-111224460D01*
X167551000Y-108687000D02*
X168821000Y-108687000D01*
X168821000Y-108687000D02*
X169456000Y-109322000D01*
X169456000Y-109322000D02*
X169456000Y-110592000D01*
X169456000Y-110592000D02*
X168821000Y-111224460D01*
X169456000Y-109322000D02*
X170091000Y-108687000D01*
X170091000Y-108687000D02*
X171361000Y-108687000D01*
X171361000Y-108687000D02*
X171996000Y-109322000D01*
X171996000Y-109322000D02*
X171996000Y-110592000D01*
X171996000Y-110592000D02*
X171361000Y-111224460D01*
X171361000Y-111224460D02*
X170091000Y-111224460D01*
X170091000Y-111224460D02*
X169456000Y-110592000D01*
X164376000Y-109322000D02*
X165011000Y-108687000D01*
X165011000Y-108687000D02*
X166281000Y-108687000D01*
X166281000Y-108687000D02*
X166916000Y-109322000D01*
X166916000Y-109322000D02*
X166916000Y-110592000D01*
X166916000Y-110592000D02*
X166281000Y-111224460D01*
X166281000Y-111224460D02*
X165011000Y-111224460D01*
X165011000Y-111224460D02*
X164376000Y-110592000D01*
X167551000Y-108687000D02*
X166916000Y-109322000D01*
X166916000Y-110592000D02*
X167551000Y-111224460D01*
X168821000Y-111224460D02*
X167551000Y-111224460D01*
X159931000Y-108687000D02*
X161201000Y-108687000D01*
X161201000Y-108687000D02*
X161836000Y-109322000D01*
X161836000Y-109322000D02*
X161836000Y-110592000D01*
X161836000Y-110592000D02*
X161201000Y-111224460D01*
X161836000Y-109322000D02*
X162471000Y-108687000D01*
X162471000Y-108687000D02*
X163741000Y-108687000D01*
X163741000Y-108687000D02*
X164376000Y-109322000D01*
X164376000Y-109322000D02*
X164376000Y-110592000D01*
X164376000Y-110592000D02*
X163741000Y-111224460D01*
X163741000Y-111224460D02*
X162471000Y-111224460D01*
X162471000Y-111224460D02*
X161836000Y-110592000D01*
X156756000Y-109322000D02*
X157391000Y-108687000D01*
X157391000Y-108687000D02*
X158661000Y-108687000D01*
X158661000Y-108687000D02*
X159296000Y-109322000D01*
X159296000Y-109322000D02*
X159296000Y-110592000D01*
X159296000Y-110592000D02*
X158661000Y-111224460D01*
X158661000Y-111224460D02*
X157391000Y-111224460D01*
X157391000Y-111224460D02*
X156756000Y-110592000D01*
X159931000Y-108687000D02*
X159296000Y-109322000D01*
X159296000Y-110592000D02*
X159931000Y-111224460D01*
X161201000Y-111224460D02*
X159931000Y-111224460D01*
X152311000Y-108687000D02*
X153581000Y-108687000D01*
X153581000Y-108687000D02*
X154216000Y-109322000D01*
X154216000Y-109322000D02*
X154216000Y-110592000D01*
X154216000Y-110592000D02*
X153581000Y-111224460D01*
X154216000Y-109322000D02*
X154851000Y-108687000D01*
X154851000Y-108687000D02*
X156121000Y-108687000D01*
X156121000Y-108687000D02*
X156756000Y-109322000D01*
X156756000Y-109322000D02*
X156756000Y-110592000D01*
X156756000Y-110592000D02*
X156121000Y-111224460D01*
X156121000Y-111224460D02*
X154851000Y-111224460D01*
X154851000Y-111224460D02*
X154216000Y-110592000D01*
X149136000Y-109322000D02*
X149771000Y-108687000D01*
X149771000Y-108687000D02*
X151041000Y-108687000D01*
X151041000Y-108687000D02*
X151676000Y-109322000D01*
X151676000Y-109322000D02*
X151676000Y-110592000D01*
X151676000Y-110592000D02*
X151041000Y-111224460D01*
X151041000Y-111224460D02*
X149771000Y-111224460D01*
X149771000Y-111224460D02*
X149136000Y-110592000D01*
X152311000Y-108687000D02*
X151676000Y-109322000D01*
X151676000Y-110592000D02*
X152311000Y-111224460D01*
X153581000Y-111224460D02*
X152311000Y-111224460D01*
X144691000Y-108687000D02*
X145961000Y-108687000D01*
X145961000Y-108687000D02*
X146596000Y-109322000D01*
X146596000Y-109322000D02*
X146596000Y-110592000D01*
X146596000Y-110592000D02*
X145961000Y-111224460D01*
X146596000Y-109322000D02*
X147231000Y-108687000D01*
X147231000Y-108687000D02*
X148501000Y-108687000D01*
X148501000Y-108687000D02*
X149136000Y-109322000D01*
X149136000Y-109322000D02*
X149136000Y-110592000D01*
X149136000Y-110592000D02*
X148501000Y-111224460D01*
X148501000Y-111224460D02*
X147231000Y-111224460D01*
X147231000Y-111224460D02*
X146596000Y-110592000D01*
X141516000Y-109322000D02*
X142151000Y-108687000D01*
X142151000Y-108687000D02*
X143421000Y-108687000D01*
X143421000Y-108687000D02*
X144056000Y-109322000D01*
X144056000Y-109322000D02*
X144056000Y-110592000D01*
X144056000Y-110592000D02*
X143421000Y-111224460D01*
X143421000Y-111224460D02*
X142151000Y-111224460D01*
X142151000Y-111224460D02*
X141516000Y-110592000D01*
X144691000Y-108687000D02*
X144056000Y-109322000D01*
X144056000Y-110592000D02*
X144691000Y-111224460D01*
X145961000Y-111224460D02*
X144691000Y-111224460D01*
X137071000Y-108687000D02*
X138341000Y-108687000D01*
X138341000Y-108687000D02*
X138976000Y-109322000D01*
X138976000Y-109322000D02*
X138976000Y-110592000D01*
X138976000Y-110592000D02*
X138341000Y-111224460D01*
X138976000Y-109322000D02*
X139611000Y-108687000D01*
X139611000Y-108687000D02*
X140881000Y-108687000D01*
X140881000Y-108687000D02*
X141516000Y-109322000D01*
X141516000Y-109322000D02*
X141516000Y-110592000D01*
X141516000Y-110592000D02*
X140881000Y-111224460D01*
X140881000Y-111224460D02*
X139611000Y-111224460D01*
X139611000Y-111224460D02*
X138976000Y-110592000D01*
X133896000Y-109322000D02*
X134531000Y-108687000D01*
X134531000Y-108687000D02*
X135801000Y-108687000D01*
X135801000Y-108687000D02*
X136436000Y-109322000D01*
X136436000Y-109322000D02*
X136436000Y-110592000D01*
X136436000Y-110592000D02*
X135801000Y-111224460D01*
X135801000Y-111224460D02*
X134531000Y-111224460D01*
X134531000Y-111224460D02*
X133896000Y-110592000D01*
X137071000Y-108687000D02*
X136436000Y-109322000D01*
X136436000Y-110592000D02*
X137071000Y-111224460D01*
X138341000Y-111224460D02*
X137071000Y-111224460D01*
X129451000Y-108687000D02*
X130721000Y-108687000D01*
X130721000Y-108687000D02*
X131356000Y-109322000D01*
X131356000Y-109322000D02*
X131356000Y-110592000D01*
X131356000Y-110592000D02*
X130721000Y-111224460D01*
X131356000Y-109322000D02*
X131991000Y-108687000D01*
X131991000Y-108687000D02*
X133261000Y-108687000D01*
X133261000Y-108687000D02*
X133896000Y-109322000D01*
X133896000Y-109322000D02*
X133896000Y-110592000D01*
X133896000Y-110592000D02*
X133261000Y-111224460D01*
X133261000Y-111224460D02*
X131991000Y-111224460D01*
X131991000Y-111224460D02*
X131356000Y-110592000D01*
X128816000Y-109322000D02*
X128816000Y-110592000D01*
X129451000Y-108687000D02*
X128816000Y-109322000D01*
X128816000Y-110592000D02*
X129451000Y-111224460D01*
X130721000Y-111224460D02*
X129451000Y-111224460D01*
X177711000Y-108687000D02*
X178981000Y-108687000D01*
X178981000Y-108687000D02*
X179616000Y-109322000D01*
X179616000Y-109322000D02*
X179616000Y-110592000D01*
X179616000Y-110592000D02*
X178981000Y-111224460D01*
X177711000Y-108687000D02*
X177076000Y-109322000D01*
X177076000Y-110592000D02*
X177711000Y-111224460D01*
X178981000Y-111224460D02*
X177711000Y-111224460D01*
D18*
X109428180Y-84805520D02*
X183024680Y-84805520D01*
X184025440Y-85803740D02*
X184025440Y-106423460D01*
X183024680Y-107421680D02*
X114838380Y-107421680D01*
X114838380Y-107421680D02*
X109428180Y-107421680D01*
X108427420Y-106423460D02*
X108427420Y-85803740D01*
D19*
X110766760Y-95803720D02*
X110766760Y-95265240D01*
X111226500Y-95265240D02*
X111226500Y-95813880D01*
D18*
X108536640Y-103822500D02*
X111787840Y-103822500D01*
X113786820Y-105773220D02*
X113786820Y-106423460D01*
D19*
X110688020Y-96342200D02*
X110147000Y-96342200D01*
X110147000Y-95885000D02*
X110698180Y-95885000D01*
X111226500Y-96423480D02*
X111226500Y-96961960D01*
X110766760Y-96961960D02*
X110766760Y-96413320D01*
X111307780Y-95885000D02*
X111846260Y-95885000D01*
X111846260Y-96342200D02*
X111297620Y-96342200D01*
X182163620Y-95803720D02*
X182163620Y-95265240D01*
X182625900Y-95265240D02*
X182625900Y-95813880D01*
X182084880Y-96342200D02*
X181543860Y-96342200D01*
X181543860Y-95885000D02*
X182095040Y-95885000D01*
X182625900Y-96423480D02*
X182625900Y-96961960D01*
X182163620Y-96961960D02*
X182163620Y-96413320D01*
X182704640Y-95885000D02*
X183245660Y-95885000D01*
X183245660Y-96342200D02*
X182694480Y-96342200D01*
X112526980Y-96113600D02*
G75*
G03X112526980Y-96113600I-1529080J0D01*
G01*
D18*
X112257740Y-105923080D02*
G75*
G03X112257740Y-105923080I-2070100J0D01*
G01*
D19*
X183923840Y-96113600D02*
G75*
G03X183923840Y-96113600I-1529080J0D01*
G01*
D18*
X109428180Y-84802980D02*
G75*
G03X108427420Y-85803740I0J-1000760D01*
G01*
X184022900Y-85803740D02*
G75*
G03X183024680Y-84805520I-998220J0D01*
G01*
X183024680Y-107424220D02*
G75*
G03X184025440Y-106423460I0J1000760D01*
G01*
X108429960Y-106423460D02*
G75*
G03X109428180Y-107421680I998220J0D01*
G01*
D19*
X110997900Y-95034100D02*
G75*
G03X110766760Y-95265240I0J-231140D01*
G01*
X111229040Y-95265240D02*
G75*
G03X110997900Y-95034100I-231140J0D01*
G01*
D18*
X113788674Y-105771626D02*
G75*
G03X111787840Y-103822500I-2000834J-52394D01*
G01*
X113788075Y-106427181D02*
G75*
G03X114838380Y-107421680I999505J3721D01*
G01*
D19*
X109918400Y-96113600D02*
G75*
G03X110147000Y-96342200I228600J0D01*
G01*
X110147000Y-95885000D02*
G75*
G03X109918400Y-96113600I0J-228600D01*
G01*
X110698180Y-95882460D02*
G75*
G03X110766760Y-95813880I0J68580D01*
G01*
X110759140Y-96413320D02*
G75*
G03X110688020Y-96342200I-71120J0D01*
G01*
X110997900Y-97190560D02*
G75*
G03X111226500Y-96961960I0J228600D01*
G01*
X110766760Y-96961960D02*
G75*
G03X110997900Y-97193100I231140J0D01*
G01*
X112074860Y-96113600D02*
G75*
G03X111846260Y-95885000I-228600J0D01*
G01*
X111846260Y-96344740D02*
G75*
G03X112077400Y-96113600I0J231140D01*
G01*
X111297620Y-96342200D02*
G75*
G03X111226500Y-96413320I0J-71120D01*
G01*
X111226500Y-95813880D02*
G75*
G03X111297620Y-95885000I71120J0D01*
G01*
X182394760Y-95034100D02*
G75*
G03X182163620Y-95265240I0J-231140D01*
G01*
X182625900Y-95265240D02*
G75*
G03X182394760Y-95034100I-231140J0D01*
G01*
X181315260Y-96113600D02*
G75*
G03X181543860Y-96342200I228600J0D01*
G01*
X181543860Y-95885000D02*
G75*
G03X181315260Y-96113600I0J-228600D01*
G01*
X182095040Y-95882460D02*
G75*
G03X182163620Y-95813880I0J68580D01*
G01*
X182156000Y-96413320D02*
G75*
G03X182084880Y-96342200I-71120J0D01*
G01*
X182394760Y-97193100D02*
G75*
G03X182625900Y-96961960I0J231140D01*
G01*
X182163620Y-96961960D02*
G75*
G03X182394760Y-97193100I231140J0D01*
G01*
X183474260Y-96113600D02*
G75*
G03X183245660Y-95885000I-228600J0D01*
G01*
X183245660Y-96342200D02*
G75*
G03X183474260Y-96113600I0J228600D01*
G01*
X182694480Y-96344740D02*
G75*
G03X182625900Y-96413320I0J-68580D01*
G01*
X182623360Y-95813880D02*
G75*
G03X182694480Y-95885000I71120J0D01*
G01*
D15*
X146896667Y-113417048D02*
X147078095Y-113477524D01*
X147380476Y-113477524D01*
X147501429Y-113417048D01*
X147561905Y-113356571D01*
X147622381Y-113235619D01*
X147622381Y-113114667D01*
X147561905Y-112993714D01*
X147501429Y-112933238D01*
X147380476Y-112872762D01*
X147138572Y-112812286D01*
X147017619Y-112751810D01*
X146957143Y-112691333D01*
X146896667Y-112570381D01*
X146896667Y-112449429D01*
X146957143Y-112328476D01*
X147017619Y-112268000D01*
X147138572Y-112207524D01*
X147440952Y-112207524D01*
X147622381Y-112268000D01*
X148045715Y-112207524D02*
X148348096Y-113477524D01*
X148590000Y-112570381D01*
X148831905Y-113477524D01*
X149134286Y-112207524D01*
X149557620Y-112328476D02*
X149618096Y-112268000D01*
X149739048Y-112207524D01*
X150041429Y-112207524D01*
X150162382Y-112268000D01*
X150222858Y-112328476D01*
X150283334Y-112449429D01*
X150283334Y-112570381D01*
X150222858Y-112751810D01*
X149497144Y-113477524D01*
X150283334Y-113477524D01*
X165541476Y-119246952D02*
X165481000Y-119367905D01*
X165360048Y-119488857D01*
X165178619Y-119670286D01*
X165118143Y-119791238D01*
X165118143Y-119912190D01*
X165420524Y-119851714D02*
X165360048Y-119972667D01*
X165239095Y-120093619D01*
X164997190Y-120154095D01*
X164573857Y-120154095D01*
X164331952Y-120093619D01*
X164211000Y-119972667D01*
X164150524Y-119851714D01*
X164150524Y-119609810D01*
X164211000Y-119488857D01*
X164331952Y-119367905D01*
X164573857Y-119307429D01*
X164997190Y-119307429D01*
X165239095Y-119367905D01*
X165360048Y-119488857D01*
X165420524Y-119609810D01*
X165420524Y-119851714D01*
X165420524Y-118097905D02*
X165420524Y-118823619D01*
X165420524Y-118460762D02*
X164150524Y-118460762D01*
X164331952Y-118581714D01*
X164452905Y-118702667D01*
X164513381Y-118823619D01*
X158443386Y-121840172D02*
X158503862Y-121658743D01*
X158564338Y-121598267D01*
X158685290Y-121537791D01*
X158866719Y-121537791D01*
X158987671Y-121598267D01*
X159048148Y-121658743D01*
X159108624Y-121779696D01*
X159108624Y-122263505D01*
X157838624Y-122263505D01*
X157838624Y-121840172D01*
X157899100Y-121719219D01*
X157959576Y-121658743D01*
X158080529Y-121598267D01*
X158201481Y-121598267D01*
X158322433Y-121658743D01*
X158382910Y-121719219D01*
X158443386Y-121840172D01*
X158443386Y-122263505D01*
X158987671Y-120267791D02*
X159048148Y-120328267D01*
X159108624Y-120509696D01*
X159108624Y-120630648D01*
X159048148Y-120812076D01*
X158927195Y-120933029D01*
X158806243Y-120993505D01*
X158564338Y-121053981D01*
X158382910Y-121053981D01*
X158141005Y-120993505D01*
X158020052Y-120933029D01*
X157899100Y-120812076D01*
X157838624Y-120630648D01*
X157838624Y-120509696D01*
X157899100Y-120328267D01*
X157959576Y-120267791D01*
X157838624Y-119844457D02*
X157838624Y-119058267D01*
X158322433Y-119481600D01*
X158322433Y-119300172D01*
X158382910Y-119179219D01*
X158443386Y-119118743D01*
X158564338Y-119058267D01*
X158866719Y-119058267D01*
X158987671Y-119118743D01*
X159048148Y-119179219D01*
X159108624Y-119300172D01*
X159108624Y-119663029D01*
X159048148Y-119783981D01*
X158987671Y-119844457D01*
X157959576Y-118574457D02*
X157899100Y-118513981D01*
X157838624Y-118393029D01*
X157838624Y-118090648D01*
X157899100Y-117969695D01*
X157959576Y-117909219D01*
X158080529Y-117848743D01*
X158201481Y-117848743D01*
X158382910Y-117909219D01*
X159108624Y-118634933D01*
X159108624Y-117848743D01*
X157838624Y-117425409D02*
X157838624Y-116578743D01*
X159108624Y-117123028D01*
X184724424Y-119338067D02*
X184119662Y-119761400D01*
X184724424Y-120063781D02*
X183454424Y-120063781D01*
X183454424Y-119579972D01*
X183514900Y-119459019D01*
X183575376Y-119398543D01*
X183696329Y-119338067D01*
X183877757Y-119338067D01*
X183998710Y-119398543D01*
X184059186Y-119459019D01*
X184119662Y-119579972D01*
X184119662Y-120063781D01*
X184724424Y-118128543D02*
X184724424Y-118854257D01*
X184724424Y-118491400D02*
X183454424Y-118491400D01*
X183635852Y-118612352D01*
X183756805Y-118733305D01*
X183817281Y-118854257D01*
X182692424Y-121152352D02*
X182692424Y-121878066D01*
X182692424Y-121515209D02*
X181422424Y-121515209D01*
X181603852Y-121636161D01*
X181724805Y-121757114D01*
X181785281Y-121878066D01*
X181422424Y-120366161D02*
X181422424Y-120245209D01*
X181482900Y-120124257D01*
X181543376Y-120063780D01*
X181664329Y-120003304D01*
X181906233Y-119942828D01*
X182208614Y-119942828D01*
X182450519Y-120003304D01*
X182571471Y-120063780D01*
X182631948Y-120124257D01*
X182692424Y-120245209D01*
X182692424Y-120366161D01*
X182631948Y-120487114D01*
X182571471Y-120547590D01*
X182450519Y-120608066D01*
X182208614Y-120668542D01*
X181906233Y-120668542D01*
X181664329Y-120608066D01*
X181543376Y-120547590D01*
X181482900Y-120487114D01*
X181422424Y-120366161D01*
X182692424Y-119398542D02*
X181422424Y-119398542D01*
X182208614Y-119277590D02*
X182692424Y-118914733D01*
X181845757Y-118914733D02*
X182329567Y-119398542D01*
X180914424Y-119338067D02*
X180309662Y-119761400D01*
X180914424Y-120063781D02*
X179644424Y-120063781D01*
X179644424Y-119579972D01*
X179704900Y-119459019D01*
X179765376Y-119398543D01*
X179886329Y-119338067D01*
X180067757Y-119338067D01*
X180188710Y-119398543D01*
X180249186Y-119459019D01*
X180309662Y-119579972D01*
X180309662Y-120063781D01*
X179765376Y-118854257D02*
X179704900Y-118793781D01*
X179644424Y-118672829D01*
X179644424Y-118370448D01*
X179704900Y-118249495D01*
X179765376Y-118189019D01*
X179886329Y-118128543D01*
X180007281Y-118128543D01*
X180188710Y-118189019D01*
X180914424Y-118914733D01*
X180914424Y-118128543D01*
X178882424Y-121152352D02*
X178882424Y-121878066D01*
X178882424Y-121515209D02*
X177612424Y-121515209D01*
X177793852Y-121636161D01*
X177914805Y-121757114D01*
X177975281Y-121878066D01*
X177612424Y-120366161D02*
X177612424Y-120245209D01*
X177672900Y-120124257D01*
X177733376Y-120063780D01*
X177854329Y-120003304D01*
X178096233Y-119942828D01*
X178398614Y-119942828D01*
X178640519Y-120003304D01*
X178761471Y-120063780D01*
X178821948Y-120124257D01*
X178882424Y-120245209D01*
X178882424Y-120366161D01*
X178821948Y-120487114D01*
X178761471Y-120547590D01*
X178640519Y-120608066D01*
X178398614Y-120668542D01*
X178096233Y-120668542D01*
X177854329Y-120608066D01*
X177733376Y-120547590D01*
X177672900Y-120487114D01*
X177612424Y-120366161D01*
X178882424Y-119398542D02*
X177612424Y-119398542D01*
X178398614Y-119277590D02*
X178882424Y-118914733D01*
X178035757Y-118914733D02*
X178519567Y-119398542D01*
X177104424Y-119338067D02*
X176499662Y-119761400D01*
X177104424Y-120063781D02*
X175834424Y-120063781D01*
X175834424Y-119579972D01*
X175894900Y-119459019D01*
X175955376Y-119398543D01*
X176076329Y-119338067D01*
X176257757Y-119338067D01*
X176378710Y-119398543D01*
X176439186Y-119459019D01*
X176499662Y-119579972D01*
X176499662Y-120063781D01*
X175834424Y-118914733D02*
X175834424Y-118128543D01*
X176318233Y-118551876D01*
X176318233Y-118370448D01*
X176378710Y-118249495D01*
X176439186Y-118189019D01*
X176560138Y-118128543D01*
X176862519Y-118128543D01*
X176983471Y-118189019D01*
X177043948Y-118249495D01*
X177104424Y-118370448D01*
X177104424Y-118733305D01*
X177043948Y-118854257D01*
X176983471Y-118914733D01*
X175072424Y-121152352D02*
X175072424Y-121878066D01*
X175072424Y-121515209D02*
X173802424Y-121515209D01*
X173983852Y-121636161D01*
X174104805Y-121757114D01*
X174165281Y-121878066D01*
X173802424Y-120366161D02*
X173802424Y-120245209D01*
X173862900Y-120124257D01*
X173923376Y-120063780D01*
X174044329Y-120003304D01*
X174286233Y-119942828D01*
X174588614Y-119942828D01*
X174830519Y-120003304D01*
X174951471Y-120063780D01*
X175011948Y-120124257D01*
X175072424Y-120245209D01*
X175072424Y-120366161D01*
X175011948Y-120487114D01*
X174951471Y-120547590D01*
X174830519Y-120608066D01*
X174588614Y-120668542D01*
X174286233Y-120668542D01*
X174044329Y-120608066D01*
X173923376Y-120547590D01*
X173862900Y-120487114D01*
X173802424Y-120366161D01*
X175072424Y-119398542D02*
X173802424Y-119398542D01*
X174588614Y-119277590D02*
X175072424Y-118914733D01*
X174225757Y-118914733D02*
X174709567Y-119398542D01*
X173294424Y-119338067D02*
X172689662Y-119761400D01*
X173294424Y-120063781D02*
X172024424Y-120063781D01*
X172024424Y-119579972D01*
X172084900Y-119459019D01*
X172145376Y-119398543D01*
X172266329Y-119338067D01*
X172447757Y-119338067D01*
X172568710Y-119398543D01*
X172629186Y-119459019D01*
X172689662Y-119579972D01*
X172689662Y-120063781D01*
X172447757Y-118249495D02*
X173294424Y-118249495D01*
X171963948Y-118551876D02*
X172871090Y-118854257D01*
X172871090Y-118068067D01*
X171262424Y-121152352D02*
X171262424Y-121878066D01*
X171262424Y-121515209D02*
X169992424Y-121515209D01*
X170173852Y-121636161D01*
X170294805Y-121757114D01*
X170355281Y-121878066D01*
X169992424Y-120366161D02*
X169992424Y-120245209D01*
X170052900Y-120124257D01*
X170113376Y-120063780D01*
X170234329Y-120003304D01*
X170476233Y-119942828D01*
X170778614Y-119942828D01*
X171020519Y-120003304D01*
X171141471Y-120063780D01*
X171201948Y-120124257D01*
X171262424Y-120245209D01*
X171262424Y-120366161D01*
X171201948Y-120487114D01*
X171141471Y-120547590D01*
X171020519Y-120608066D01*
X170778614Y-120668542D01*
X170476233Y-120668542D01*
X170234329Y-120608066D01*
X170113376Y-120547590D01*
X170052900Y-120487114D01*
X169992424Y-120366161D01*
X171262424Y-119398542D02*
X169992424Y-119398542D01*
X170778614Y-119277590D02*
X171262424Y-118914733D01*
X170415757Y-118914733D02*
X170899567Y-119398542D01*
X169484524Y-119337667D02*
X168879762Y-119761000D01*
X169484524Y-120063381D02*
X168214524Y-120063381D01*
X168214524Y-119579572D01*
X168275000Y-119458619D01*
X168335476Y-119398143D01*
X168456429Y-119337667D01*
X168637857Y-119337667D01*
X168758810Y-119398143D01*
X168819286Y-119458619D01*
X168879762Y-119579572D01*
X168879762Y-120063381D01*
X168214524Y-118188619D02*
X168214524Y-118793381D01*
X168819286Y-118853857D01*
X168758810Y-118793381D01*
X168698333Y-118672429D01*
X168698333Y-118370048D01*
X168758810Y-118249095D01*
X168819286Y-118188619D01*
X168940238Y-118128143D01*
X169242619Y-118128143D01*
X169363571Y-118188619D01*
X169424048Y-118249095D01*
X169484524Y-118370048D01*
X169484524Y-118672429D01*
X169424048Y-118793381D01*
X169363571Y-118853857D01*
X167452524Y-121151952D02*
X167452524Y-121877666D01*
X167452524Y-121514809D02*
X166182524Y-121514809D01*
X166363952Y-121635761D01*
X166484905Y-121756714D01*
X166545381Y-121877666D01*
X166182524Y-120365761D02*
X166182524Y-120244809D01*
X166243000Y-120123857D01*
X166303476Y-120063380D01*
X166424429Y-120002904D01*
X166666333Y-119942428D01*
X166968714Y-119942428D01*
X167210619Y-120002904D01*
X167331571Y-120063380D01*
X167392048Y-120123857D01*
X167452524Y-120244809D01*
X167452524Y-120365761D01*
X167392048Y-120486714D01*
X167331571Y-120547190D01*
X167210619Y-120607666D01*
X166968714Y-120668142D01*
X166666333Y-120668142D01*
X166424429Y-120607666D01*
X166303476Y-120547190D01*
X166243000Y-120486714D01*
X166182524Y-120365761D01*
X167452524Y-119398142D02*
X166182524Y-119398142D01*
X166968714Y-119277190D02*
X167452524Y-118914333D01*
X166605857Y-118914333D02*
X167089667Y-119398142D01*
X130640667Y-113925048D02*
X130822095Y-113985524D01*
X131124476Y-113985524D01*
X131245429Y-113925048D01*
X131305905Y-113864571D01*
X131366381Y-113743619D01*
X131366381Y-113622667D01*
X131305905Y-113501714D01*
X131245429Y-113441238D01*
X131124476Y-113380762D01*
X130882572Y-113320286D01*
X130761619Y-113259810D01*
X130701143Y-113199333D01*
X130640667Y-113078381D01*
X130640667Y-112957429D01*
X130701143Y-112836476D01*
X130761619Y-112776000D01*
X130882572Y-112715524D01*
X131184952Y-112715524D01*
X131366381Y-112776000D01*
X131789715Y-112715524D02*
X132092096Y-113985524D01*
X132334000Y-113078381D01*
X132575905Y-113985524D01*
X132878286Y-112715524D01*
X134027334Y-113985524D02*
X133301620Y-113985524D01*
X133664477Y-113985524D02*
X133664477Y-112715524D01*
X133543525Y-112896952D01*
X133422572Y-113017905D01*
X133301620Y-113078381D01*
M02*
