G04 #@! TF.FileFunction,Copper,L1,Top,Signal*
%FSLAX46Y46*%
G04 Gerber Fmt 4.6, Leading zero omitted, Abs format (unit mm)*
G04 Created by KiCad (PCBNEW 4.0.6) date 06/26/18 14:47:35*
%MOMM*%
%LPD*%
G01*
G04 APERTURE LIST*
%ADD10C,0.100000*%
%ADD11C,1.524000*%
%ADD12O,2.641600X1.320800*%
%ADD13C,1.320800*%
%ADD14C,1.676400*%
%ADD15O,1.506220X3.014980*%
%ADD16C,0.152400*%
G04 APERTURE END LIST*
D10*
D11*
X144780000Y-118745000D03*
X144780000Y-116205000D03*
X144780000Y-121285000D03*
X152400000Y-121285000D03*
X152400000Y-118745000D03*
X152400000Y-116205000D03*
D12*
X161290000Y-119380000D03*
X161290000Y-116840000D03*
X161290000Y-121920000D03*
D13*
X182156000Y-113894000D03*
X182156000Y-124054000D03*
X178346000Y-113894000D03*
X178346000Y-124054000D03*
X174536000Y-113894000D03*
X174536000Y-124054000D03*
X170726000Y-124054000D03*
X170726000Y-113894000D03*
X166916000Y-113894000D03*
X166916000Y-124054000D03*
D14*
X131086000Y-121514000D03*
X131086000Y-118974000D03*
X131086000Y-116434000D03*
X133626000Y-121514000D03*
X133626000Y-118974000D03*
X133626000Y-116434000D03*
D15*
X130086000Y-109957000D03*
X132626000Y-109957000D03*
X135166000Y-109957000D03*
X137706000Y-109957000D03*
X140246000Y-109957000D03*
X142786000Y-109957000D03*
X145326000Y-109957000D03*
X147866000Y-109957000D03*
X150406000Y-109957000D03*
X152946000Y-109957000D03*
X155486000Y-109957000D03*
X158026000Y-109957000D03*
X160566000Y-109957000D03*
X163106000Y-109957000D03*
X165646000Y-109957000D03*
X168186000Y-109957000D03*
X170726000Y-109957000D03*
X173266000Y-109957000D03*
X175806000Y-109957000D03*
X178346000Y-109957000D03*
X178346000Y-94971000D03*
X175806000Y-94971000D03*
X173266000Y-94971000D03*
X170726000Y-94971000D03*
X168186000Y-94971000D03*
X165646000Y-94971000D03*
X163106000Y-94971000D03*
X160566000Y-94971000D03*
X158026000Y-94971000D03*
X155486000Y-94971000D03*
X152946000Y-94971000D03*
X150406000Y-94971000D03*
X147866000Y-94971000D03*
X145326000Y-94971000D03*
X142786000Y-94971000D03*
X140246000Y-94971000D03*
X137706000Y-94971000D03*
X135166000Y-94971000D03*
X132626000Y-94971000D03*
X130086000Y-94971000D03*
X118021000Y-103733600D03*
X120561000Y-103733600D03*
X123101000Y-103733600D03*
X125641000Y-103733600D03*
X128181000Y-103733600D03*
X130721000Y-103733600D03*
X133261000Y-103733600D03*
X135801000Y-103733600D03*
X138341000Y-103733600D03*
X140881000Y-103733600D03*
X143421000Y-103733600D03*
X145961000Y-103733600D03*
X148501000Y-103733600D03*
X151041000Y-103733600D03*
X153581000Y-103733600D03*
X156121000Y-103733600D03*
X158661000Y-103733600D03*
X161201000Y-103733600D03*
X163741000Y-103733600D03*
X166281000Y-103733600D03*
X168821000Y-103733600D03*
X171361000Y-103733600D03*
X173901000Y-103733600D03*
X176441000Y-103733600D03*
X176441000Y-88493600D03*
X173901000Y-88493600D03*
X171361000Y-88493600D03*
X168821000Y-88493600D03*
X166281000Y-88493600D03*
X163741000Y-88493600D03*
X161201000Y-88493600D03*
X158661000Y-88493600D03*
X156121000Y-88493600D03*
X153581000Y-88493600D03*
X151041000Y-88493600D03*
X148501000Y-88493600D03*
X145961000Y-88493600D03*
X143421000Y-88493600D03*
X140881000Y-88493600D03*
X138341000Y-88493600D03*
X135801000Y-88493600D03*
X133261000Y-88493600D03*
X130721000Y-88493600D03*
X128181000Y-88493600D03*
X125641000Y-88493600D03*
X123101000Y-88493600D03*
X120561000Y-88493600D03*
X118021000Y-88493600D03*
D16*
X170726000Y-124054000D02*
X174536000Y-124054000D01*
X174536000Y-124054000D02*
X178346000Y-124054000D01*
X178346000Y-124054000D02*
X182156000Y-124054000D01*
X153581000Y-106315600D02*
X155486000Y-108220600D01*
X153581000Y-103733600D02*
X153581000Y-106315600D01*
X155486000Y-109957000D02*
X155486000Y-108220600D01*
X155486000Y-92135000D02*
X155486000Y-94971000D01*
X153581000Y-90230000D02*
X155486000Y-92135000D01*
X153581000Y-88493600D02*
X153581000Y-90230000D01*
X153415300Y-117729700D02*
X152400000Y-118745000D01*
X163080300Y-117729700D02*
X153415300Y-117729700D01*
X166916000Y-113894000D02*
X163080300Y-117729700D01*
X152400000Y-118745000D02*
X144780000Y-118745000D01*
X124643400Y-102150000D02*
X130086000Y-96707400D01*
X124643400Y-104905000D02*
X124643400Y-102150000D01*
X126114400Y-106376000D02*
X124643400Y-104905000D01*
X128716400Y-106376000D02*
X126114400Y-106376000D01*
X131356000Y-109015600D02*
X128716400Y-106376000D01*
X131356000Y-115078900D02*
X131356000Y-109015600D01*
X132464000Y-116186900D02*
X131356000Y-115078900D01*
X132464000Y-116786700D02*
X132464000Y-116186900D01*
X133451100Y-117773800D02*
X132464000Y-116786700D01*
X143808800Y-117773800D02*
X133451100Y-117773800D01*
X144780000Y-118745000D02*
X143808800Y-117773800D01*
X130086000Y-94971000D02*
X130086000Y-96707400D01*
X161290000Y-116840000D02*
X161290000Y-115950700D01*
X169832900Y-113000900D02*
X170726000Y-113894000D01*
X164239800Y-113000900D02*
X169832900Y-113000900D01*
X161290000Y-115950700D02*
X164239800Y-113000900D01*
X159384300Y-117196000D02*
X159740300Y-116840000D01*
X134388000Y-117196000D02*
X159384300Y-117196000D01*
X133626000Y-116434000D02*
X134388000Y-117196000D01*
X161290000Y-116840000D02*
X159740300Y-116840000D01*
X130003700Y-120431700D02*
X131086000Y-121514000D01*
X130003700Y-111775700D02*
X130003700Y-120431700D01*
X130086000Y-111693400D02*
X130003700Y-111775700D01*
X130086000Y-109957000D02*
X130086000Y-111693400D01*
X175323700Y-120726300D02*
X182156000Y-113894000D01*
X155498300Y-120726300D02*
X175323700Y-120726300D01*
X153941700Y-122282900D02*
X155498300Y-120726300D01*
X145777900Y-122282900D02*
X153941700Y-122282900D01*
X144780000Y-121285000D02*
X145777900Y-122282900D01*
X143465700Y-122599300D02*
X144780000Y-121285000D01*
X133194000Y-122599300D02*
X143465700Y-122599300D01*
X132356100Y-121761400D02*
X133194000Y-122599300D01*
X132356100Y-117704100D02*
X132356100Y-121761400D01*
X131086000Y-116434000D02*
X132356100Y-117704100D01*
X155332600Y-118352400D02*
X152400000Y-121285000D01*
X173887600Y-118352400D02*
X155332600Y-118352400D01*
X178346000Y-113894000D02*
X173887600Y-118352400D01*
X125641000Y-103733600D02*
X125641000Y-105470000D01*
X139202600Y-116205000D02*
X144780000Y-116205000D01*
X133788000Y-110790400D02*
X139202600Y-116205000D01*
X133788000Y-108966500D02*
X133788000Y-110790400D01*
X130291500Y-105470000D02*
X133788000Y-108966500D01*
X125641000Y-105470000D02*
X130291500Y-105470000D01*
X173296300Y-112654300D02*
X174536000Y-113894000D01*
X148330700Y-112654300D02*
X173296300Y-112654300D01*
X144780000Y-116205000D02*
X148330700Y-112654300D01*
X135098800Y-120041200D02*
X133626000Y-121514000D01*
X153011500Y-120041200D02*
X135098800Y-120041200D01*
X155017900Y-118034800D02*
X153011500Y-120041200D01*
X172004600Y-118034800D02*
X155017900Y-118034800D01*
X178346000Y-111693400D02*
X172004600Y-118034800D01*
X178346000Y-109957000D02*
X178346000Y-111693400D01*
X166281000Y-88493600D02*
X166281000Y-90230000D01*
X140246000Y-109957000D02*
X140246000Y-108220600D01*
X137340700Y-105315300D02*
X140246000Y-108220600D01*
X137340700Y-102565800D02*
X137340700Y-105315300D01*
X141336800Y-98569700D02*
X137340700Y-102565800D01*
X164215200Y-98569700D02*
X141336800Y-98569700D01*
X166665400Y-96119500D02*
X164215200Y-98569700D01*
X166665400Y-90614400D02*
X166665400Y-96119500D01*
X166281000Y-90230000D02*
X166665400Y-90614400D01*
X171361000Y-88493600D02*
X171361000Y-90230000D01*
X142786000Y-109957000D02*
X142786000Y-108220600D01*
X171745400Y-90614400D02*
X171361000Y-90230000D01*
X171745400Y-96119600D02*
X171745400Y-90614400D01*
X168074900Y-99790100D02*
X171745400Y-96119600D01*
X145155000Y-99790100D02*
X168074900Y-99790100D01*
X142389100Y-102556000D02*
X145155000Y-99790100D01*
X142389100Y-107823700D02*
X142389100Y-102556000D01*
X142786000Y-108220600D02*
X142389100Y-107823700D01*
X176441000Y-103733600D02*
X176441000Y-101997200D01*
X145326000Y-109957000D02*
X145326000Y-108220600D01*
X175525700Y-101081900D02*
X176441000Y-101997200D01*
X151547500Y-101081900D02*
X175525700Y-101081900D01*
X149771000Y-102858400D02*
X151547500Y-101081900D01*
X149771000Y-104613900D02*
X149771000Y-102858400D01*
X146164300Y-108220600D02*
X149771000Y-104613900D01*
X145326000Y-108220600D02*
X146164300Y-108220600D01*
X147866000Y-109957000D02*
X147866000Y-108220600D01*
X171361000Y-103733600D02*
X171361000Y-101997200D01*
X170750800Y-101387000D02*
X171361000Y-101997200D01*
X153775800Y-101387000D02*
X170750800Y-101387000D01*
X152311000Y-102851800D02*
X153775800Y-101387000D01*
X152311000Y-104651500D02*
X152311000Y-102851800D01*
X148741900Y-108220600D02*
X152311000Y-104651500D01*
X147866000Y-108220600D02*
X148741900Y-108220600D01*
X155950800Y-111693400D02*
X150406000Y-111693400D01*
X156756000Y-110888200D02*
X155950800Y-111693400D01*
X156756000Y-109010400D02*
X156756000Y-110888200D01*
X160296300Y-105470100D02*
X156756000Y-109010400D01*
X161672900Y-105470100D02*
X160296300Y-105470100D01*
X162471000Y-104672000D02*
X161672900Y-105470100D01*
X162471000Y-102843100D02*
X162471000Y-104672000D01*
X163316900Y-101997200D02*
X162471000Y-102843100D01*
X166281000Y-101997200D02*
X163316900Y-101997200D01*
X166281000Y-103733600D02*
X166281000Y-101997200D01*
X150406000Y-109957000D02*
X150406000Y-111693400D01*
X163741000Y-103733600D02*
X163741000Y-105470000D01*
X173266000Y-109957000D02*
X173266000Y-108220600D01*
X170515400Y-105470000D02*
X173266000Y-108220600D01*
X163741000Y-105470000D02*
X170515400Y-105470000D01*
X158661000Y-103733600D02*
X158661000Y-101997200D01*
X175806000Y-109957000D02*
X175806000Y-108220600D01*
X173704600Y-108220600D02*
X175806000Y-108220600D01*
X169983000Y-104499000D02*
X173704600Y-108220600D01*
X169983000Y-102725400D02*
X169983000Y-104499000D01*
X168949700Y-101692100D02*
X169983000Y-102725400D01*
X158966100Y-101692100D02*
X168949700Y-101692100D01*
X158661000Y-101997200D02*
X158966100Y-101692100D01*
X148501000Y-103733600D02*
X148501000Y-101997200D01*
X178346000Y-94971000D02*
X178346000Y-96707400D01*
X174348000Y-100705400D02*
X178346000Y-96707400D01*
X149792800Y-100705400D02*
X174348000Y-100705400D01*
X148501000Y-101997200D02*
X149792800Y-100705400D01*
X145961000Y-103733600D02*
X145961000Y-101997200D01*
X175806000Y-94971000D02*
X175806000Y-96707400D01*
X172113100Y-100400300D02*
X175806000Y-96707400D01*
X147557900Y-100400300D02*
X172113100Y-100400300D01*
X145961000Y-101997200D02*
X147557900Y-100400300D01*
X143421000Y-103733600D02*
X143421000Y-101997200D01*
X173266000Y-94971000D02*
X173266000Y-96707400D01*
X169878200Y-100095200D02*
X173266000Y-96707400D01*
X145323000Y-100095200D02*
X169878200Y-100095200D01*
X143421000Y-101997200D02*
X145323000Y-100095200D01*
X140881000Y-103733600D02*
X140881000Y-101997200D01*
X170726000Y-94971000D02*
X170726000Y-96707400D01*
X167948400Y-99485000D02*
X170726000Y-96707400D01*
X143393200Y-99485000D02*
X167948400Y-99485000D01*
X140881000Y-101997200D02*
X143393200Y-99485000D01*
X168186000Y-95090600D02*
X168186000Y-94971000D01*
X164249200Y-99027400D02*
X168186000Y-95090600D01*
X141310800Y-99027400D02*
X164249200Y-99027400D01*
X138341000Y-101997200D02*
X141310800Y-99027400D01*
X138341000Y-103733600D02*
X138341000Y-101997200D01*
X135801000Y-103733600D02*
X135801000Y-101997200D01*
X165646000Y-94971000D02*
X165646000Y-96707400D01*
X139533600Y-98264600D02*
X135801000Y-101997200D01*
X164088800Y-98264600D02*
X139533600Y-98264600D01*
X165646000Y-96707400D02*
X164088800Y-98264600D01*
X133261000Y-103733600D02*
X133261000Y-101997200D01*
X163106000Y-94971000D02*
X163106000Y-96707400D01*
X161853900Y-97959500D02*
X163106000Y-96707400D01*
X137298700Y-97959500D02*
X161853900Y-97959500D01*
X133261000Y-101997200D02*
X137298700Y-97959500D01*
X130721000Y-103733600D02*
X130721000Y-101997200D01*
X160566000Y-94971000D02*
X160566000Y-96707400D01*
X159619000Y-97654400D02*
X160566000Y-96707400D01*
X135063800Y-97654400D02*
X159619000Y-97654400D01*
X130721000Y-101997200D02*
X135063800Y-97654400D01*
X128181000Y-88493600D02*
X128181000Y-90230000D01*
X158026000Y-94971000D02*
X158026000Y-96707400D01*
X157415800Y-97317600D02*
X158026000Y-96707400D01*
X137840400Y-97317600D02*
X157415800Y-97317600D01*
X136436000Y-95913200D02*
X137840400Y-97317600D01*
X136436000Y-94090700D02*
X136436000Y-95913200D01*
X133860000Y-91514700D02*
X136436000Y-94090700D01*
X129465700Y-91514700D02*
X133860000Y-91514700D01*
X128181000Y-90230000D02*
X129465700Y-91514700D01*
X152640900Y-97012500D02*
X152946000Y-96707400D01*
X140133100Y-97012500D02*
X152640900Y-97012500D01*
X138976000Y-95855400D02*
X140133100Y-97012500D01*
X138976000Y-94090800D02*
X138976000Y-95855400D01*
X135986800Y-91101600D02*
X138976000Y-94090800D01*
X131592600Y-91101600D02*
X135986800Y-91101600D01*
X130721000Y-90230000D02*
X131592600Y-91101600D01*
X152946000Y-94971000D02*
X152946000Y-96707400D01*
X130721000Y-88493600D02*
X130721000Y-90230000D01*
X144902600Y-96707400D02*
X150406000Y-96707400D01*
X144056000Y-95860800D02*
X144902600Y-96707400D01*
X144056000Y-94039600D02*
X144056000Y-95860800D01*
X140551600Y-90535200D02*
X144056000Y-94039600D01*
X133566200Y-90535200D02*
X140551600Y-90535200D01*
X133261000Y-90230000D02*
X133566200Y-90535200D01*
X133261000Y-88493600D02*
X133261000Y-90230000D01*
X150406000Y-94971000D02*
X150406000Y-96707400D01*
X146018600Y-93234600D02*
X147866000Y-93234600D01*
X142043000Y-89259000D02*
X146018600Y-93234600D01*
X142043000Y-87507700D02*
X142043000Y-89259000D01*
X141292500Y-86757200D02*
X142043000Y-87507700D01*
X135801000Y-86757200D02*
X141292500Y-86757200D01*
X135801000Y-88493600D02*
X135801000Y-86757200D01*
X147866000Y-94971000D02*
X147866000Y-93234600D01*
X142321400Y-90230000D02*
X145326000Y-93234600D01*
X138341000Y-90230000D02*
X142321400Y-90230000D01*
X138341000Y-88493600D02*
X138341000Y-90230000D01*
X145326000Y-94971000D02*
X145326000Y-93234600D01*
M02*
