G04 #@! TF.FileFunction,Copper,L1,Top,Signal*
%FSLAX46Y46*%
G04 Gerber Fmt 4.6, Leading zero omitted, Abs format (unit mm)*
G04 Created by KiCad (PCBNEW 4.0.6) date 06/10/18 11:22:36*
%MOMM*%
%LPD*%
G01*
G04 APERTURE LIST*
%ADD10C,0.100000*%
%ADD11C,1.524000*%
%ADD12O,2.641600X1.320800*%
%ADD13C,1.320800*%
%ADD14C,1.676400*%
%ADD15O,1.506220X3.014980*%
%ADD16C,0.152400*%
G04 APERTURE END LIST*
D10*
D11*
X144780000Y-118745000D03*
X144780000Y-116205000D03*
X144780000Y-121285000D03*
X152400000Y-121285000D03*
X152400000Y-118745000D03*
X152400000Y-116205000D03*
D12*
X161290000Y-119380000D03*
X161290000Y-116840000D03*
X161290000Y-121920000D03*
D13*
X182156000Y-113894000D03*
X182156000Y-124054000D03*
X178346000Y-113894000D03*
X178346000Y-124054000D03*
X174536000Y-113894000D03*
X174536000Y-124054000D03*
X170726000Y-124054000D03*
X170726000Y-113894000D03*
X166916000Y-113894000D03*
X166916000Y-124054000D03*
D14*
X131086000Y-121514000D03*
X131086000Y-118974000D03*
X131086000Y-116434000D03*
X133626000Y-121514000D03*
X133626000Y-118974000D03*
X133626000Y-116434000D03*
D15*
X130086000Y-109957000D03*
X132626000Y-109957000D03*
X135166000Y-109957000D03*
X137706000Y-109957000D03*
X140246000Y-109957000D03*
X142786000Y-109957000D03*
X145326000Y-109957000D03*
X147866000Y-109957000D03*
X150406000Y-109957000D03*
X152946000Y-109957000D03*
X155486000Y-109957000D03*
X158026000Y-109957000D03*
X160566000Y-109957000D03*
X163106000Y-109957000D03*
X165646000Y-109957000D03*
X168186000Y-109957000D03*
X170726000Y-109957000D03*
X173266000Y-109957000D03*
X175806000Y-109957000D03*
X178346000Y-109957000D03*
X178346000Y-94971000D03*
X175806000Y-94971000D03*
X173266000Y-94971000D03*
X170726000Y-94971000D03*
X168186000Y-94971000D03*
X165646000Y-94971000D03*
X163106000Y-94971000D03*
X160566000Y-94971000D03*
X158026000Y-94971000D03*
X155486000Y-94971000D03*
X152946000Y-94971000D03*
X150406000Y-94971000D03*
X147866000Y-94971000D03*
X145326000Y-94971000D03*
X142786000Y-94971000D03*
X140246000Y-94971000D03*
X137706000Y-94971000D03*
X135166000Y-94971000D03*
X132626000Y-94971000D03*
X130086000Y-94971000D03*
X118021000Y-103733600D03*
X120561000Y-103733600D03*
X123101000Y-103733600D03*
X125641000Y-103733600D03*
X128181000Y-103733600D03*
X130721000Y-103733600D03*
X133261000Y-103733600D03*
X135801000Y-103733600D03*
X138341000Y-103733600D03*
X140881000Y-103733600D03*
X143421000Y-103733600D03*
X145961000Y-103733600D03*
X148501000Y-103733600D03*
X151041000Y-103733600D03*
X153581000Y-103733600D03*
X156121000Y-103733600D03*
X158661000Y-103733600D03*
X161201000Y-103733600D03*
X163741000Y-103733600D03*
X166281000Y-103733600D03*
X168821000Y-103733600D03*
X171361000Y-103733600D03*
X173901000Y-103733600D03*
X176441000Y-103733600D03*
X176441000Y-88493600D03*
X173901000Y-88493600D03*
X171361000Y-88493600D03*
X168821000Y-88493600D03*
X166281000Y-88493600D03*
X163741000Y-88493600D03*
X161201000Y-88493600D03*
X158661000Y-88493600D03*
X156121000Y-88493600D03*
X153581000Y-88493600D03*
X151041000Y-88493600D03*
X148501000Y-88493600D03*
X145961000Y-88493600D03*
X143421000Y-88493600D03*
X140881000Y-88493600D03*
X138341000Y-88493600D03*
X135801000Y-88493600D03*
X133261000Y-88493600D03*
X130721000Y-88493600D03*
X128181000Y-88493600D03*
X125641000Y-88493600D03*
X123101000Y-88493600D03*
X120561000Y-88493600D03*
X118021000Y-88493600D03*
D16*
X170726000Y-124054000D02*
X174536000Y-124054000D01*
X182156000Y-124054000D02*
X178346000Y-124054000D01*
X178346000Y-124054000D02*
X174536000Y-124054000D01*
X153581000Y-91329600D02*
X155486000Y-93234600D01*
X153581000Y-88493600D02*
X153581000Y-91329600D01*
X155486000Y-94971000D02*
X155486000Y-93234600D01*
X152400000Y-118745000D02*
X144780000Y-118745000D01*
X157251000Y-113894000D02*
X152400000Y-118745000D01*
X166916000Y-113894000D02*
X157251000Y-113894000D01*
X167780000Y-116840000D02*
X170726000Y-113894000D01*
X161290000Y-116840000D02*
X167780000Y-116840000D01*
X159059800Y-122600500D02*
X159740300Y-121920000D01*
X132172500Y-122600500D02*
X159059800Y-122600500D01*
X131086000Y-121514000D02*
X132172500Y-122600500D01*
X161290000Y-121920000D02*
X159740300Y-121920000D01*
X138356500Y-116205000D02*
X144780000Y-116205000D01*
X134505400Y-120056100D02*
X138356500Y-116205000D01*
X133134200Y-120056100D02*
X134505400Y-120056100D01*
X132558900Y-119480800D02*
X133134200Y-120056100D01*
X132558900Y-117906900D02*
X132558900Y-119480800D01*
X131086000Y-116434000D02*
X132558900Y-117906900D01*
X182156000Y-111551300D02*
X182156000Y-113894000D01*
X178774200Y-108169500D02*
X182156000Y-111551300D01*
X177931700Y-108169500D02*
X178774200Y-108169500D01*
X176968000Y-109133200D02*
X177931700Y-108169500D01*
X176968000Y-110983100D02*
X176968000Y-109133200D01*
X175590400Y-112360700D02*
X176968000Y-110983100D01*
X148624300Y-112360700D02*
X175590400Y-112360700D01*
X144780000Y-116205000D02*
X148624300Y-112360700D01*
X177423100Y-112971100D02*
X178346000Y-113894000D01*
X169336900Y-112971100D02*
X177423100Y-112971100D01*
X166864700Y-115443300D02*
X169336900Y-112971100D01*
X158241700Y-115443300D02*
X166864700Y-115443300D01*
X152400000Y-121285000D02*
X158241700Y-115443300D01*
X170596800Y-117833200D02*
X174536000Y-113894000D01*
X160728500Y-117833200D02*
X170596800Y-117833200D01*
X156266400Y-122295300D02*
X160728500Y-117833200D01*
X145790300Y-122295300D02*
X156266400Y-122295300D01*
X144780000Y-121285000D02*
X145790300Y-122295300D01*
X129978300Y-117866300D02*
X131086000Y-118974000D01*
X129978300Y-115307500D02*
X129978300Y-117866300D01*
X131073700Y-114212100D02*
X129978300Y-115307500D01*
X131073700Y-107633200D02*
X131073700Y-114212100D01*
X129725600Y-106285100D02*
X131073700Y-107633200D01*
X129725600Y-102528600D02*
X129725600Y-106285100D01*
X135241600Y-97012600D02*
X129725600Y-102528600D01*
X142896900Y-97012600D02*
X135241600Y-97012600D01*
X144056000Y-95853500D02*
X142896900Y-97012600D01*
X144056000Y-94021000D02*
X144056000Y-95853500D01*
X147847000Y-90230000D02*
X144056000Y-94021000D01*
X151041000Y-90230000D02*
X147847000Y-90230000D01*
X151041000Y-88493600D02*
X151041000Y-90230000D01*
X156121000Y-103733600D02*
X156121000Y-105470000D01*
X155510800Y-106080200D02*
X156121000Y-105470000D01*
X146960000Y-106080200D02*
X155510800Y-106080200D01*
X143821700Y-109218500D02*
X146960000Y-106080200D01*
X143821700Y-111089400D02*
X143821700Y-109218500D01*
X139269700Y-115641400D02*
X143821700Y-111089400D01*
X136958600Y-115641400D02*
X139269700Y-115641400D01*
X133626000Y-118974000D02*
X136958600Y-115641400D01*
X178346000Y-109957000D02*
X178346000Y-111693400D01*
X177373500Y-112665900D02*
X178346000Y-111693400D01*
X153958400Y-112665900D02*
X177373500Y-112665900D01*
X149149300Y-117475000D02*
X153958400Y-112665900D01*
X137665000Y-117475000D02*
X149149300Y-117475000D01*
X133626000Y-121514000D02*
X137665000Y-117475000D01*
X135376600Y-105470000D02*
X132626000Y-108220600D01*
X151041000Y-105470000D02*
X135376600Y-105470000D01*
X151041000Y-103733600D02*
X151041000Y-105470000D01*
X132626000Y-109957000D02*
X132626000Y-108220600D01*
X171361000Y-88493600D02*
X171361000Y-90230000D01*
X142786000Y-109957000D02*
X142786000Y-108220600D01*
X175757100Y-90230000D02*
X171361000Y-90230000D01*
X179345200Y-93818100D02*
X175757100Y-90230000D01*
X179345200Y-96139900D02*
X179345200Y-93818100D01*
X174860800Y-100624300D02*
X179345200Y-96139900D01*
X157010400Y-100624300D02*
X174860800Y-100624300D01*
X154851000Y-102783700D02*
X157010400Y-100624300D01*
X154851000Y-104630900D02*
X154851000Y-102783700D01*
X153706800Y-105775100D02*
X154851000Y-104630900D01*
X145231500Y-105775100D02*
X153706800Y-105775100D01*
X142786000Y-108220600D02*
X145231500Y-105775100D01*
X145326000Y-109957000D02*
X145326000Y-108220600D01*
X176441000Y-103733600D02*
X176441000Y-101997200D01*
X175525700Y-101081900D02*
X176441000Y-101997200D01*
X159121600Y-101081900D02*
X175525700Y-101081900D01*
X157468900Y-102734600D02*
X159121600Y-101081900D01*
X157468900Y-104572600D02*
X157468900Y-102734600D01*
X155368100Y-106673400D02*
X157468900Y-104572600D01*
X146873200Y-106673400D02*
X155368100Y-106673400D01*
X145326000Y-108220600D02*
X146873200Y-106673400D01*
X149031500Y-107055100D02*
X147866000Y-108220600D01*
X157522000Y-107055100D02*
X149031500Y-107055100D01*
X159931000Y-104646100D02*
X157522000Y-107055100D01*
X159931000Y-102833400D02*
X159931000Y-104646100D01*
X161072300Y-101692100D02*
X159931000Y-102833400D01*
X169319500Y-101692100D02*
X161072300Y-101692100D01*
X171361000Y-103733600D02*
X169319500Y-101692100D01*
X147866000Y-109957000D02*
X147866000Y-108220600D01*
X153392000Y-111693400D02*
X150406000Y-111693400D01*
X154216000Y-110869400D02*
X153392000Y-111693400D01*
X154216000Y-109065900D02*
X154216000Y-110869400D01*
X155323800Y-107958100D02*
X154216000Y-109065900D01*
X159144600Y-107958100D02*
X155323800Y-107958100D01*
X162348500Y-104754200D02*
X159144600Y-107958100D01*
X162348500Y-102965600D02*
X162348500Y-104754200D01*
X163316900Y-101997200D02*
X162348500Y-102965600D01*
X166281000Y-101997200D02*
X163316900Y-101997200D01*
X166281000Y-103733600D02*
X166281000Y-101997200D01*
X150406000Y-109957000D02*
X150406000Y-111693400D01*
X161201000Y-103733600D02*
X161201000Y-105470000D01*
X152946000Y-109957000D02*
X152946000Y-108220600D01*
X153550600Y-107616000D02*
X152946000Y-108220600D01*
X153550600Y-107615900D02*
X153550600Y-107616000D01*
X159055100Y-107615900D02*
X153550600Y-107615900D01*
X161201000Y-105470000D02*
X159055100Y-107615900D01*
X170726000Y-107375000D02*
X170726000Y-109957000D01*
X168821000Y-105470000D02*
X170726000Y-107375000D01*
X168821000Y-103733600D02*
X168821000Y-105470000D01*
X170280000Y-111693400D02*
X173266000Y-111693400D01*
X169456000Y-110869400D02*
X170280000Y-111693400D01*
X169456000Y-109056700D02*
X169456000Y-110869400D01*
X165869300Y-105470000D02*
X169456000Y-109056700D01*
X163741000Y-105470000D02*
X165869300Y-105470000D01*
X163741000Y-103733600D02*
X163741000Y-105470000D01*
X173266000Y-109957000D02*
X173266000Y-111693400D01*
X158661000Y-103733600D02*
X158661000Y-101997200D01*
X175806000Y-109957000D02*
X175806000Y-108220600D01*
X159271200Y-101387000D02*
X158661000Y-101997200D01*
X171179500Y-101387000D02*
X159271200Y-101387000D01*
X172631000Y-102838500D02*
X171179500Y-101387000D01*
X172631000Y-105045600D02*
X172631000Y-102838500D01*
X175806000Y-108220600D02*
X172631000Y-105045600D01*
X148501000Y-103733600D02*
X148501000Y-101997200D01*
X178346000Y-94971000D02*
X178346000Y-96707400D01*
X150179000Y-100319200D02*
X148501000Y-101997200D01*
X174734200Y-100319200D02*
X150179000Y-100319200D01*
X178346000Y-96707400D02*
X174734200Y-100319200D01*
X145961000Y-103733600D02*
X145961000Y-101997200D01*
X175806000Y-94971000D02*
X175806000Y-96707400D01*
X147944100Y-100014100D02*
X145961000Y-101997200D01*
X172499300Y-100014100D02*
X147944100Y-100014100D01*
X175806000Y-96707400D02*
X172499300Y-100014100D01*
X143421000Y-103733600D02*
X143421000Y-101997200D01*
X173266000Y-94971000D02*
X173266000Y-96707400D01*
X145709200Y-99709000D02*
X143421000Y-101997200D01*
X170264400Y-99709000D02*
X145709200Y-99709000D01*
X173266000Y-96707400D02*
X170264400Y-99709000D01*
X140881000Y-103733600D02*
X140881000Y-101997200D01*
X170726000Y-94971000D02*
X170726000Y-96707400D01*
X143474400Y-99403800D02*
X140881000Y-101997200D01*
X168029600Y-99403800D02*
X143474400Y-99403800D01*
X170726000Y-96707400D02*
X168029600Y-99403800D01*
X138341000Y-103733600D02*
X138341000Y-101997200D01*
X168186000Y-94971000D02*
X168186000Y-96707400D01*
X141239500Y-99098700D02*
X138341000Y-101997200D01*
X165794700Y-99098700D02*
X141239500Y-99098700D01*
X168186000Y-96707400D02*
X165794700Y-99098700D01*
X135801000Y-103733600D02*
X135801000Y-101997200D01*
X165646000Y-94971000D02*
X165646000Y-96707400D01*
X139107600Y-98690600D02*
X135801000Y-101997200D01*
X163662800Y-98690600D02*
X139107600Y-98690600D01*
X165646000Y-96707400D02*
X163662800Y-98690600D01*
X133261000Y-103733600D02*
X133261000Y-101997200D01*
X163106000Y-94971000D02*
X163106000Y-96707400D01*
X161427900Y-98385500D02*
X163106000Y-96707400D01*
X136872700Y-98385500D02*
X161427900Y-98385500D01*
X133261000Y-101997200D02*
X136872700Y-98385500D01*
X159498200Y-97775200D02*
X160566000Y-96707400D01*
X134943000Y-97775200D02*
X159498200Y-97775200D01*
X130721000Y-101997200D02*
X134943000Y-97775200D01*
X130721000Y-103733600D02*
X130721000Y-101997200D01*
X160566000Y-94971000D02*
X160566000Y-96707400D01*
X128181000Y-88493600D02*
X128181000Y-86757200D01*
X128854200Y-86084000D02*
X128181000Y-86757200D01*
X153363800Y-86084000D02*
X128854200Y-86084000D01*
X154743000Y-87463200D02*
X153363800Y-86084000D01*
X154743000Y-89951600D02*
X154743000Y-87463200D01*
X158026000Y-93234600D02*
X154743000Y-89951600D01*
X158026000Y-94971000D02*
X158026000Y-93234600D01*
X152539100Y-92827700D02*
X152946000Y-93234600D01*
X152539100Y-87808400D02*
X152539100Y-92827700D01*
X151150100Y-86419400D02*
X152539100Y-87808400D01*
X131058800Y-86419400D02*
X151150100Y-86419400D01*
X130721000Y-86757200D02*
X131058800Y-86419400D01*
X130721000Y-88493600D02*
X130721000Y-86757200D01*
X152946000Y-94971000D02*
X152946000Y-93234600D01*
X140416400Y-93234600D02*
X140246000Y-93234600D01*
X143421000Y-90230000D02*
X140416400Y-93234600D01*
X143421000Y-88493600D02*
X143421000Y-90230000D01*
X140246000Y-94971000D02*
X140246000Y-93234600D01*
X140657700Y-96707400D02*
X137706000Y-96707400D01*
X141516000Y-95849100D02*
X140657700Y-96707400D01*
X141516000Y-94091000D02*
X141516000Y-95849100D01*
X145377000Y-90230000D02*
X141516000Y-94091000D01*
X145961000Y-90230000D02*
X145377000Y-90230000D01*
X145961000Y-88493600D02*
X145961000Y-90230000D01*
X137706000Y-94971000D02*
X137706000Y-96707400D01*
X138289100Y-93234600D02*
X135166000Y-93234600D01*
X142151000Y-89372700D02*
X138289100Y-93234600D01*
X142151000Y-87601100D02*
X142151000Y-89372700D01*
X142994900Y-86757200D02*
X142151000Y-87601100D01*
X148501000Y-86757200D02*
X142994900Y-86757200D01*
X148501000Y-88493600D02*
X148501000Y-86757200D01*
X135166000Y-94971000D02*
X135166000Y-93234600D01*
X128181000Y-101152400D02*
X132626000Y-96707400D01*
X128181000Y-103733600D02*
X128181000Y-101152400D01*
X132626000Y-94971000D02*
X132626000Y-96707400D01*
M02*
