G04 #@! TF.GenerationSoftware,KiCad,Pcbnew,(5.1.2)-2*
G04 #@! TF.CreationDate,2019-08-03T14:41:18-04:00*
G04 #@! TF.ProjectId,27C160_Adapter,32374331-3630-45f4-9164-61707465722e,rev?*
G04 #@! TF.SameCoordinates,Original*
G04 #@! TF.FileFunction,Legend,Bot*
G04 #@! TF.FilePolarity,Positive*
%FSLAX46Y46*%
G04 Gerber Fmt 4.6, Leading zero omitted, Abs format (unit mm)*
G04 Created by KiCad (PCBNEW (5.1.2)-2) date 2019-08-03 14:41:18*
%MOMM*%
%LPD*%
G04 APERTURE LIST*
%ADD10C,0.134112*%
%ADD11C,0.142240*%
G04 APERTURE END LIST*
D10*
X19273919Y-33015195D02*
X20032290Y-33546055D01*
X19273919Y-33925241D02*
X20866499Y-33925241D01*
X20866499Y-33318544D01*
X20790662Y-33166870D01*
X20714824Y-33091032D01*
X20563150Y-33015195D01*
X20335639Y-33015195D01*
X20183964Y-33091032D01*
X20108127Y-33166870D01*
X20032290Y-33318544D01*
X20032290Y-33925241D01*
X19273919Y-31498452D02*
X19273919Y-32408498D01*
X19273919Y-31953475D02*
X20866499Y-31953475D01*
X20638987Y-32105150D01*
X20487313Y-32256824D01*
X20411476Y-32408498D01*
X19880616Y-30815918D02*
X19880616Y-29602524D01*
X20866499Y-28085781D02*
X20866499Y-28844152D01*
X20108127Y-28919990D01*
X20183964Y-28844152D01*
X20259802Y-28692478D01*
X20259802Y-28313292D01*
X20183964Y-28161618D01*
X20108127Y-28085781D01*
X19956453Y-28009944D01*
X19577267Y-28009944D01*
X19425593Y-28085781D01*
X19349756Y-28161618D01*
X19273919Y-28313292D01*
X19273919Y-28692478D01*
X19349756Y-28844152D01*
X19425593Y-28919990D01*
X19425593Y-27327410D02*
X19349756Y-27251572D01*
X19273919Y-27327410D01*
X19349756Y-27403247D01*
X19425593Y-27327410D01*
X19273919Y-27327410D01*
X20259802Y-27327410D02*
X20183964Y-27251572D01*
X20108127Y-27327410D01*
X20183964Y-27403247D01*
X20259802Y-27327410D01*
X20108127Y-27327410D01*
X19273919Y-24521435D02*
X19273919Y-25431481D01*
X19273919Y-24976458D02*
X20866499Y-24976458D01*
X20638987Y-25128132D01*
X20487313Y-25279807D01*
X20411476Y-25431481D01*
X20866499Y-23535552D02*
X20866499Y-23383878D01*
X20790662Y-23232204D01*
X20714824Y-23156367D01*
X20563150Y-23080530D01*
X20259802Y-23004692D01*
X19880616Y-23004692D01*
X19577267Y-23080530D01*
X19425593Y-23156367D01*
X19349756Y-23232204D01*
X19273919Y-23383878D01*
X19273919Y-23535552D01*
X19349756Y-23687227D01*
X19425593Y-23763064D01*
X19577267Y-23838901D01*
X19880616Y-23914738D01*
X20259802Y-23914738D01*
X20563150Y-23838901D01*
X20714824Y-23763064D01*
X20790662Y-23687227D01*
X20866499Y-23535552D01*
X19273919Y-22322158D02*
X20866499Y-22322158D01*
X19880616Y-22170484D02*
X19273919Y-21715461D01*
X20335639Y-21715461D02*
X19728942Y-22322158D01*
X20866499Y-20729578D02*
X20866499Y-20426230D01*
X20790662Y-20274555D01*
X20638987Y-20122881D01*
X20335639Y-20047044D01*
X19804779Y-20047044D01*
X19501430Y-20122881D01*
X19349756Y-20274555D01*
X19273919Y-20426230D01*
X19273919Y-20729578D01*
X19349756Y-20881252D01*
X19501430Y-21032927D01*
X19804779Y-21108764D01*
X20335639Y-21108764D01*
X20638987Y-21032927D01*
X20790662Y-20881252D01*
X20866499Y-20729578D01*
X19273919Y-19364510D02*
X20866499Y-19364510D01*
X19273919Y-18681975D02*
X20108127Y-18681975D01*
X20259802Y-18757812D01*
X20335639Y-18909487D01*
X20335639Y-19136998D01*
X20259802Y-19288672D01*
X20183964Y-19364510D01*
X19273919Y-17923604D02*
X20335639Y-17923604D01*
X20183964Y-17923604D02*
X20259802Y-17847767D01*
X20335639Y-17696092D01*
X20335639Y-17468581D01*
X20259802Y-17316907D01*
X20108127Y-17241070D01*
X19273919Y-17241070D01*
X20108127Y-17241070D02*
X20259802Y-17165232D01*
X20335639Y-17013558D01*
X20335639Y-16786047D01*
X20259802Y-16634372D01*
X20108127Y-16558535D01*
X19273919Y-16558535D01*
X16599262Y-32863521D02*
X16675100Y-33015195D01*
X16826774Y-33166870D01*
X17054285Y-33394381D01*
X17130122Y-33546055D01*
X17130122Y-33697730D01*
X16750937Y-33621892D02*
X16826774Y-33773567D01*
X16978448Y-33925241D01*
X17281797Y-34001078D01*
X17812657Y-34001078D01*
X18116005Y-33925241D01*
X18267680Y-33773567D01*
X18343517Y-33621892D01*
X18343517Y-33318544D01*
X18267680Y-33166870D01*
X18116005Y-33015195D01*
X17812657Y-32939358D01*
X17281797Y-32939358D01*
X16978448Y-33015195D01*
X16826774Y-33166870D01*
X16750937Y-33318544D01*
X16750937Y-33621892D01*
X16750937Y-31422615D02*
X16750937Y-32332661D01*
X16750937Y-31877638D02*
X18343517Y-31877638D01*
X18116005Y-32029312D01*
X17964331Y-32180987D01*
X17888494Y-32332661D01*
X16902611Y-30740081D02*
X16826774Y-30664244D01*
X16750937Y-30740081D01*
X16826774Y-30815918D01*
X16902611Y-30740081D01*
X16750937Y-30740081D01*
X17736820Y-30740081D02*
X17660982Y-30664244D01*
X17585145Y-30740081D01*
X17660982Y-30815918D01*
X17736820Y-30740081D01*
X17585145Y-30740081D01*
X17585145Y-25810667D02*
X17509308Y-25583155D01*
X17433471Y-25507318D01*
X17281797Y-25431481D01*
X17054285Y-25431481D01*
X16902611Y-25507318D01*
X16826774Y-25583155D01*
X16750937Y-25734830D01*
X16750937Y-26341527D01*
X18343517Y-26341527D01*
X18343517Y-25810667D01*
X18267680Y-25658992D01*
X18191842Y-25583155D01*
X18040168Y-25507318D01*
X17888494Y-25507318D01*
X17736820Y-25583155D01*
X17660982Y-25658992D01*
X17585145Y-25810667D01*
X17585145Y-26341527D01*
X16902611Y-23838901D02*
X16826774Y-23914738D01*
X16750937Y-24142250D01*
X16750937Y-24293924D01*
X16826774Y-24521435D01*
X16978448Y-24673110D01*
X17130122Y-24748947D01*
X17433471Y-24824784D01*
X17660982Y-24824784D01*
X17964331Y-24748947D01*
X18116005Y-24673110D01*
X18267680Y-24521435D01*
X18343517Y-24293924D01*
X18343517Y-24142250D01*
X18267680Y-23914738D01*
X18191842Y-23838901D01*
X18343517Y-23308041D02*
X18343517Y-22322158D01*
X17736820Y-22853018D01*
X17736820Y-22625507D01*
X17660982Y-22473832D01*
X17585145Y-22397995D01*
X17433471Y-22322158D01*
X17054285Y-22322158D01*
X16902611Y-22397995D01*
X16826774Y-22473832D01*
X16750937Y-22625507D01*
X16750937Y-23080530D01*
X16826774Y-23232204D01*
X16902611Y-23308041D01*
X18191842Y-21715461D02*
X18267680Y-21639624D01*
X18343517Y-21487950D01*
X18343517Y-21108764D01*
X18267680Y-20957090D01*
X18191842Y-20881252D01*
X18040168Y-20805415D01*
X17888494Y-20805415D01*
X17660982Y-20881252D01*
X16750937Y-21791298D01*
X16750937Y-20805415D01*
X18343517Y-20274555D02*
X18343517Y-19212835D01*
X16750937Y-19895370D01*
D11*
X91355333Y-35885289D02*
X91435766Y-36046156D01*
X91516200Y-36126589D01*
X91677066Y-36207022D01*
X92159666Y-36207022D01*
X92320533Y-36126589D01*
X92400966Y-36046156D01*
X92481400Y-35885289D01*
X92481400Y-35643989D01*
X92400966Y-35483122D01*
X92320533Y-35402689D01*
X92159666Y-35322256D01*
X91677066Y-35322256D01*
X91516200Y-35402689D01*
X91435766Y-35483122D01*
X91355333Y-35643989D01*
X91355333Y-35885289D01*
X91355333Y-34598356D02*
X92481400Y-34598356D01*
X92159666Y-34598356D02*
X92320533Y-34517922D01*
X92400966Y-34437489D01*
X92481400Y-34276622D01*
X92481400Y-34115756D01*
X91355333Y-33552722D02*
X92481400Y-33552722D01*
X93044433Y-33552722D02*
X92964000Y-33633156D01*
X92883566Y-33552722D01*
X92964000Y-33472289D01*
X93044433Y-33552722D01*
X92883566Y-33552722D01*
X92481400Y-32024489D02*
X91114033Y-32024489D01*
X90953166Y-32104922D01*
X90872733Y-32185356D01*
X90792300Y-32346222D01*
X90792300Y-32587522D01*
X90872733Y-32748389D01*
X91435766Y-32024489D02*
X91355333Y-32185356D01*
X91355333Y-32507089D01*
X91435766Y-32667956D01*
X91516200Y-32748389D01*
X91677066Y-32828822D01*
X92159666Y-32828822D01*
X92320533Y-32748389D01*
X92400966Y-32667956D01*
X92481400Y-32507089D01*
X92481400Y-32185356D01*
X92400966Y-32024489D01*
X91355333Y-31220156D02*
X92481400Y-31220156D01*
X93044433Y-31220156D02*
X92964000Y-31300589D01*
X92883566Y-31220156D01*
X92964000Y-31139722D01*
X93044433Y-31220156D01*
X92883566Y-31220156D01*
X92481400Y-30415822D02*
X91355333Y-30415822D01*
X92320533Y-30415822D02*
X92400966Y-30335389D01*
X92481400Y-30174522D01*
X92481400Y-29933222D01*
X92400966Y-29772356D01*
X92240100Y-29691922D01*
X91355333Y-29691922D01*
X91355333Y-28163689D02*
X92240100Y-28163689D01*
X92400966Y-28244122D01*
X92481400Y-28404989D01*
X92481400Y-28726722D01*
X92400966Y-28887589D01*
X91435766Y-28163689D02*
X91355333Y-28324556D01*
X91355333Y-28726722D01*
X91435766Y-28887589D01*
X91596633Y-28968022D01*
X91757500Y-28968022D01*
X91918366Y-28887589D01*
X91998800Y-28726722D01*
X91998800Y-28324556D01*
X92079233Y-28163689D01*
X91355333Y-27118056D02*
X91435766Y-27278922D01*
X91596633Y-27359356D01*
X93044433Y-27359356D01*
X91355333Y-25187656D02*
X93044433Y-25187656D01*
X92400966Y-25187656D02*
X92481400Y-25026789D01*
X92481400Y-24705056D01*
X92400966Y-24544189D01*
X92320533Y-24463756D01*
X92159666Y-24383322D01*
X91677066Y-24383322D01*
X91516200Y-24463756D01*
X91435766Y-24544189D01*
X91355333Y-24705056D01*
X91355333Y-25026789D01*
X91435766Y-25187656D01*
X92481400Y-23820289D02*
X91355333Y-23418122D01*
X92481400Y-23015956D02*
X91355333Y-23418122D01*
X90953166Y-23578989D01*
X90872733Y-23659422D01*
X90792300Y-23820289D01*
X92481400Y-20361656D02*
X91114033Y-20361656D01*
X90953166Y-20442089D01*
X90872733Y-20522522D01*
X90792300Y-20683389D01*
X90792300Y-20924689D01*
X90872733Y-21085556D01*
X91435766Y-20361656D02*
X91355333Y-20522522D01*
X91355333Y-20844256D01*
X91435766Y-21005122D01*
X91516200Y-21085556D01*
X91677066Y-21165989D01*
X92159666Y-21165989D01*
X92320533Y-21085556D01*
X92400966Y-21005122D01*
X92481400Y-20844256D01*
X92481400Y-20522522D01*
X92400966Y-20361656D01*
X91355333Y-18833422D02*
X92240100Y-18833422D01*
X92400966Y-18913856D01*
X92481400Y-19074722D01*
X92481400Y-19396456D01*
X92400966Y-19557322D01*
X91435766Y-18833422D02*
X91355333Y-18994289D01*
X91355333Y-19396456D01*
X91435766Y-19557322D01*
X91596633Y-19637756D01*
X91757500Y-19637756D01*
X91918366Y-19557322D01*
X91998800Y-19396456D01*
X91998800Y-18994289D01*
X92079233Y-18833422D01*
X92481400Y-17305189D02*
X91114033Y-17305189D01*
X90953166Y-17385622D01*
X90872733Y-17466056D01*
X90792300Y-17626922D01*
X90792300Y-17868222D01*
X90872733Y-18029089D01*
X91435766Y-17305189D02*
X91355333Y-17466056D01*
X91355333Y-17787789D01*
X91435766Y-17948656D01*
X91516200Y-18029089D01*
X91677066Y-18109522D01*
X92159666Y-18109522D01*
X92320533Y-18029089D01*
X92400966Y-17948656D01*
X92481400Y-17787789D01*
X92481400Y-17466056D01*
X92400966Y-17305189D01*
X92481400Y-15776956D02*
X91114033Y-15776956D01*
X90953166Y-15857389D01*
X90872733Y-15937822D01*
X90792300Y-16098689D01*
X90792300Y-16339989D01*
X90872733Y-16500856D01*
X91435766Y-15776956D02*
X91355333Y-15937822D01*
X91355333Y-16259556D01*
X91435766Y-16420422D01*
X91516200Y-16500856D01*
X91677066Y-16581289D01*
X92159666Y-16581289D01*
X92320533Y-16500856D01*
X92400966Y-16420422D01*
X92481400Y-16259556D01*
X92481400Y-15937822D01*
X92400966Y-15776956D01*
X91355333Y-14972622D02*
X92481400Y-14972622D01*
X93044433Y-14972622D02*
X92964000Y-15053056D01*
X92883566Y-14972622D01*
X92964000Y-14892189D01*
X93044433Y-14972622D01*
X92883566Y-14972622D01*
X88679443Y-45859022D02*
X89805510Y-45859022D01*
X89644643Y-45859022D02*
X89725076Y-45778589D01*
X89805510Y-45617722D01*
X89805510Y-45376422D01*
X89725076Y-45215556D01*
X89564210Y-45135122D01*
X88679443Y-45135122D01*
X89564210Y-45135122D02*
X89725076Y-45054689D01*
X89805510Y-44893822D01*
X89805510Y-44652522D01*
X89725076Y-44491656D01*
X89564210Y-44411222D01*
X88679443Y-44411222D01*
X88679443Y-43365589D02*
X88759876Y-43526456D01*
X88840310Y-43606889D01*
X89001176Y-43687322D01*
X89483776Y-43687322D01*
X89644643Y-43606889D01*
X89725076Y-43526456D01*
X89805510Y-43365589D01*
X89805510Y-43124289D01*
X89725076Y-42963422D01*
X89644643Y-42882989D01*
X89483776Y-42802556D01*
X89001176Y-42802556D01*
X88840310Y-42882989D01*
X88759876Y-42963422D01*
X88679443Y-43124289D01*
X88679443Y-43365589D01*
X88679443Y-41354756D02*
X90368543Y-41354756D01*
X88759876Y-41354756D02*
X88679443Y-41515622D01*
X88679443Y-41837356D01*
X88759876Y-41998222D01*
X88840310Y-42078656D01*
X89001176Y-42159089D01*
X89483776Y-42159089D01*
X89644643Y-42078656D01*
X89725076Y-41998222D01*
X89805510Y-41837356D01*
X89805510Y-41515622D01*
X89725076Y-41354756D01*
X88679443Y-40550422D02*
X89805510Y-40550422D01*
X90368543Y-40550422D02*
X90288110Y-40630856D01*
X90207676Y-40550422D01*
X90288110Y-40469989D01*
X90368543Y-40550422D01*
X90207676Y-40550422D01*
X89805510Y-39987389D02*
X89805510Y-39343922D01*
X88679443Y-39746089D02*
X90127243Y-39746089D01*
X90288110Y-39665656D01*
X90368543Y-39504789D01*
X90368543Y-39343922D01*
X88679443Y-38780889D02*
X89805510Y-38780889D01*
X90368543Y-38780889D02*
X90288110Y-38861322D01*
X90207676Y-38780889D01*
X90288110Y-38700456D01*
X90368543Y-38780889D01*
X90207676Y-38780889D01*
X88759876Y-37333089D02*
X88679443Y-37493956D01*
X88679443Y-37815689D01*
X88759876Y-37976556D01*
X88920743Y-38056989D01*
X89564210Y-38056989D01*
X89725076Y-37976556D01*
X89805510Y-37815689D01*
X89805510Y-37493956D01*
X89725076Y-37333089D01*
X89564210Y-37252656D01*
X89403343Y-37252656D01*
X89242476Y-38056989D01*
X88679443Y-35804856D02*
X90368543Y-35804856D01*
X88759876Y-35804856D02*
X88679443Y-35965722D01*
X88679443Y-36287456D01*
X88759876Y-36448322D01*
X88840310Y-36528756D01*
X89001176Y-36609189D01*
X89483776Y-36609189D01*
X89644643Y-36528756D01*
X89725076Y-36448322D01*
X89805510Y-36287456D01*
X89805510Y-35965722D01*
X89725076Y-35804856D01*
X88679443Y-33713589D02*
X90368543Y-33713589D01*
X89725076Y-33713589D02*
X89805510Y-33552722D01*
X89805510Y-33230989D01*
X89725076Y-33070122D01*
X89644643Y-32989689D01*
X89483776Y-32909256D01*
X89001176Y-32909256D01*
X88840310Y-32989689D01*
X88759876Y-33070122D01*
X88679443Y-33230989D01*
X88679443Y-33552722D01*
X88759876Y-33713589D01*
X89805510Y-32346222D02*
X88679443Y-31944056D01*
X89805510Y-31541889D02*
X88679443Y-31944056D01*
X88277276Y-32104922D01*
X88196843Y-32185356D01*
X88116410Y-32346222D01*
X88679443Y-29611489D02*
X90368543Y-29611489D01*
X90368543Y-29209322D01*
X90288110Y-28968022D01*
X90127243Y-28807156D01*
X89966376Y-28726722D01*
X89644643Y-28646289D01*
X89403343Y-28646289D01*
X89081610Y-28726722D01*
X88920743Y-28807156D01*
X88759876Y-28968022D01*
X88679443Y-29209322D01*
X88679443Y-29611489D01*
X88679443Y-27922389D02*
X89805510Y-27922389D01*
X90368543Y-27922389D02*
X90288110Y-28002822D01*
X90207676Y-27922389D01*
X90288110Y-27841956D01*
X90368543Y-27922389D01*
X90207676Y-27922389D01*
X88759876Y-26474589D02*
X88679443Y-26635456D01*
X88679443Y-26957189D01*
X88759876Y-27118056D01*
X88920743Y-27198489D01*
X89564210Y-27198489D01*
X89725076Y-27118056D01*
X89805510Y-26957189D01*
X89805510Y-26635456D01*
X89725076Y-26474589D01*
X89564210Y-26394156D01*
X89403343Y-26394156D01*
X89242476Y-27198489D01*
X88679443Y-25670256D02*
X90368543Y-25670256D01*
X88679443Y-24705056D02*
X89644643Y-25428956D01*
X90368543Y-24705056D02*
X89403343Y-25670256D01*
X88679443Y-23257256D02*
X89564210Y-23257256D01*
X89725076Y-23337689D01*
X89805510Y-23498556D01*
X89805510Y-23820289D01*
X89725076Y-23981156D01*
X88759876Y-23257256D02*
X88679443Y-23418122D01*
X88679443Y-23820289D01*
X88759876Y-23981156D01*
X88920743Y-24061589D01*
X89081610Y-24061589D01*
X89242476Y-23981156D01*
X89322910Y-23820289D01*
X89322910Y-23418122D01*
X89403343Y-23257256D01*
X89805510Y-22694222D02*
X89805510Y-22050756D01*
X90368543Y-22452922D02*
X88920743Y-22452922D01*
X88759876Y-22372489D01*
X88679443Y-22211622D01*
X88679443Y-22050756D01*
X89805510Y-21648589D02*
X89805510Y-20763822D01*
X88679443Y-21648589D01*
X88679443Y-20763822D01*
X88759876Y-19396456D02*
X88679443Y-19557322D01*
X88679443Y-19879056D01*
X88759876Y-20039922D01*
X88840310Y-20120356D01*
X89001176Y-20200789D01*
X89483776Y-20200789D01*
X89644643Y-20120356D01*
X89725076Y-20039922D01*
X89805510Y-19879056D01*
X89805510Y-19557322D01*
X89725076Y-19396456D01*
X88679443Y-18672556D02*
X90368543Y-18672556D01*
X88679443Y-17948656D02*
X89564210Y-17948656D01*
X89725076Y-18029089D01*
X89805510Y-18189956D01*
X89805510Y-18431256D01*
X89725076Y-18592122D01*
X89644643Y-18672556D01*
X88759876Y-16500856D02*
X88679443Y-16661722D01*
X88679443Y-16983456D01*
X88759876Y-17144322D01*
X88920743Y-17224756D01*
X89564210Y-17224756D01*
X89725076Y-17144322D01*
X89805510Y-16983456D01*
X89805510Y-16661722D01*
X89725076Y-16500856D01*
X89564210Y-16420422D01*
X89403343Y-16420422D01*
X89242476Y-17224756D01*
X89805510Y-15696522D02*
X88679443Y-15696522D01*
X89644643Y-15696522D02*
X89725076Y-15616089D01*
X89805510Y-15455222D01*
X89805510Y-15213922D01*
X89725076Y-15053056D01*
X89564210Y-14972622D01*
X88679443Y-14972622D01*
M02*
